<svg width="68" height="68" viewBox="0 0 68 68" fill="none" xmlns="http://www.w3.org/2000/svg">
<g clip-path="url(#clip0_68935_218695)">
<rect x="4" y="4" width="60" height="60" rx="8" fill="#3F41D1"/>
<path d="M56 33.9997C56 46.1503 46.1491 56 33.9985 56C21.8478 56 12 46.1503 12 33.9997C12 21.8487 21.8478 12 33.9985 12C46.1491 11.9995 56 21.8487 56 33.9997Z" fill="#FFCE00"/>
<path d="M45.3632 36.6264C45.2961 36.6264 45.2285 36.6173 45.1619 36.5969L40.4886 35.233C40.2075 35.1507 40.0041 34.9057 39.9762 34.6134C39.9472 34.3221 40.0997 34.042 40.36 33.9073C40.36 33.9073 43.9957 32.0269 45.0831 31.4474C45.4338 31.2598 45.8675 31.393 46.0535 31.7432C46.2396 32.0925 46.1074 32.5271 45.7572 32.7132C45.1471 33.0395 43.7339 33.7741 42.6099 34.3571L45.564 35.2198C45.9437 35.3306 46.1623 35.7292 46.0505 36.1089C45.9605 36.4231 45.6738 36.6264 45.3632 36.6264Z" fill="#562912"/>
<path d="M22.6146 36.6259C22.3045 36.6259 22.0188 36.4221 21.9268 36.1089C21.8155 35.7292 22.0341 35.3301 22.4143 35.2198L25.3683 34.3571C24.2439 33.7741 22.8312 33.039 22.2196 32.7132C21.8699 32.5271 21.7382 32.0925 21.9243 31.7432C22.1098 31.393 22.5429 31.2598 22.8942 31.4474C23.9831 32.0274 27.6178 33.9073 27.6178 33.9073C27.8786 34.042 28.0311 34.3216 28.0026 34.6134C27.9742 34.9057 27.7708 35.1512 27.4892 35.233L22.8164 36.5969C22.7493 36.6167 22.6827 36.6259 22.6146 36.6259Z" fill="#562912"/>
<path d="M48.2129 27.5501C48.1763 27.5501 48.1392 27.5471 48.1021 27.5415C44.5253 26.9889 42.7298 24.0888 42.655 23.9653C42.4497 23.6262 42.5569 23.186 42.896 22.9801C43.2346 22.7727 43.6743 22.8825 43.8797 23.2195C43.8954 23.2434 45.4215 25.6754 48.3217 26.1232C48.7126 26.1837 48.9815 26.5502 48.921 26.9416C48.8656 27.2965 48.5611 27.5501 48.2129 27.5501Z" fill="#562912"/>
<path d="M19.7643 27.5496C19.4161 27.5496 19.1111 27.2959 19.0552 26.9416C18.9957 26.5502 19.2625 26.1836 19.6545 26.1232C22.5775 25.6717 24.0802 23.2454 24.0955 23.221C24.2993 22.8824 24.7401 22.7726 25.0807 22.98C25.4187 23.1859 25.5275 23.6261 25.3221 23.9652C25.2464 24.0887 23.4494 26.9884 19.8746 27.5414C19.8375 27.5465 19.7989 27.5496 19.7643 27.5496Z" fill="#562912"/>
<path d="M26.226 46.7625C25.9592 46.7625 25.6902 46.6634 25.4833 46.4651L23.5475 44.6147C23.1174 44.204 23.1027 43.5233 23.5129 43.0932C23.9247 42.6622 24.6049 42.6495 25.0345 43.0592L26.226 44.1989L29.3534 41.2088C29.7688 40.8108 30.4245 40.8108 30.8399 41.2088L33.9647 44.1984L37.0926 41.2083C37.5084 40.8113 38.1637 40.8103 38.5795 41.2083L41.7105 44.1994L42.9051 43.0587C43.3352 42.649 44.0164 42.6642 44.4256 43.0938C44.8374 43.5233 44.8206 44.205 44.3916 44.6153L42.4532 46.4656C42.0373 46.8621 41.3821 46.8626 40.9673 46.4656L37.8368 43.4745L34.7084 46.4656C34.2931 46.8626 33.6363 46.8626 33.221 46.4651L30.0956 43.475L26.9703 46.4651C26.7608 46.6639 26.495 46.7625 26.226 46.7625Z" fill="#562912"/>
</g>
<defs>
<clipPath id="clip0_68935_218695">
<rect x="4" y="4" width="60" height="60" rx="8" fill="white"/>
</clipPath>
</defs>
</svg>
