<svg width="68" height="68" viewBox="0 0 68 68" fill="none" xmlns="http://www.w3.org/2000/svg">
<g clip-path="url(#clip0_68935_218114)">
<rect x="4" y="4" width="60" height="60" rx="8" fill="#3F41D1"/>
<path d="M34 56C46.1503 56 56 46.1503 56 34C56 21.8497 46.1503 12 34 12C21.8497 12 12 21.8497 12 34C12 46.1503 21.8497 56 34 56Z" fill="#FFCE00"/>
<path d="M45.6748 26.3888C45.6748 27.0689 45.534 27.7008 45.2884 28.2269C45.1309 28.5655 44.7008 28.7129 44.4009 28.4913C44.0766 28.2518 43.7065 28.1176 43.3146 28.1176C42.9272 28.1176 42.5602 28.2513 42.2359 28.4913C41.9365 28.7129 41.5044 28.566 41.3478 28.2269C41.1017 27.7003 40.9609 27.0689 40.9609 26.3888C40.9609 24.545 42.0158 23.0459 43.3141 23.0459C44.62 23.0459 45.6748 24.545 45.6748 26.3888Z" fill="#562912"/>
<path d="M27.0248 26.3888C27.0248 27.0689 26.884 27.7008 26.64 28.2269C26.4819 28.5655 26.0508 28.7129 25.7519 28.4913C25.4286 28.2518 25.0581 28.1176 24.6661 28.1176C24.2788 28.1176 23.9102 28.2513 23.5869 28.4913C23.288 28.7129 22.8559 28.566 22.6983 28.2269C22.4538 27.7003 22.3125 27.0689 22.3125 26.3888C22.3125 24.545 23.3668 23.0459 24.6656 23.0459C25.971 23.0459 27.0248 24.545 27.0248 26.3888Z" fill="#562912"/>
<path d="M22.8055 34.9863C22.1538 34.9863 21.7039 35.6121 21.8772 36.2404C23.0286 40.4357 28.0043 43.5941 33.9844 43.5941C40.0011 43.5941 45.0022 40.3956 46.1129 36.1611C46.27 35.5633 45.7845 34.9863 45.1659 34.9863H22.8055Z" fill="#562912"/>
<path d="M33.9975 36.6303C37.2615 36.6303 40.2546 36.0132 42.6296 34.9863H25.3633C27.7388 36.0132 30.7324 36.6303 33.9975 36.6303Z" fill="white"/>
<path d="M34.1888 41.3096C32.4543 41.3096 30.8942 41.9801 29.7891 43.0496C31.098 43.4009 32.5097 43.5946 33.9834 43.5946C35.5781 43.5946 37.096 43.3638 38.4949 42.9551C37.3954 41.9394 35.8729 41.3096 34.1888 41.3096Z" fill="#CC342F"/>
</g>
<defs>
<clipPath id="clip0_68935_218114">
<rect x="4" y="4" width="60" height="60" rx="8" fill="white"/>
</clipPath>
</defs>
</svg>
