<svg width="68" height="68" viewBox="0 0 68 68" fill="none" xmlns="http://www.w3.org/2000/svg">
<g clip-path="url(#clip0_68935_218498)">
<rect x="4" y="4" width="60" height="60" rx="8" fill="#3F41D1"/>
<path d="M56 34.0005C56 46.1512 46.1514 56 34 56C21.8496 56 12 46.1512 12 34.0005C12 21.8493 21.8491 12 34 12C46.1509 12 56 21.8493 56 34.0005Z" fill="#FFCE00"/>
<path d="M42.5099 42.8956C42.2471 42.8956 41.9848 42.8001 41.7774 42.6074C39.987 40.94 37.5505 39.966 34.9178 39.8643C31.9913 39.7535 29.2056 40.7484 27.2683 42.5983C26.8393 43.009 26.1576 42.9917 25.7468 42.5627C25.3361 42.1331 25.3529 41.4514 25.7824 41.0422C28.1381 38.7932 31.5023 37.5778 34.9997 37.7145C38.1478 37.835 41.0759 39.0128 43.2434 41.032C43.6786 41.4377 43.703 42.1189 43.2978 42.553C43.0859 42.7802 42.7981 42.8956 42.5099 42.8956Z" fill="#562912"/>
<path d="M47.8117 36.6001C47.7451 36.6001 47.6775 36.591 47.6104 36.5707L42.9377 35.2067C42.6566 35.1244 42.4527 34.8789 42.4253 34.5876C42.3968 34.2958 42.5488 34.0162 42.8091 33.8804C42.8091 33.8804 46.4442 32.0011 47.5321 31.421C47.8823 31.2335 48.3159 31.3666 48.5025 31.7159C48.6891 32.0656 48.5564 32.5003 48.2072 32.6868C47.5956 33.0127 46.184 33.7478 45.0585 34.3309L48.0125 35.193C48.3922 35.3038 48.6108 35.7019 48.5 36.0821C48.409 36.3963 48.1228 36.6001 47.8117 36.6001Z" fill="#562912"/>
<path d="M21.4552 36.6002C21.1446 36.6002 20.8584 36.3963 20.7669 36.0832C20.6556 35.703 20.8737 35.3049 21.2544 35.1941L24.2084 34.3319C23.0839 33.7488 21.6708 33.0133 21.0597 32.6879C20.7105 32.5014 20.5778 32.0662 20.7639 31.717C20.9499 31.3672 21.3825 31.2345 21.7348 31.4221C22.8232 32.0021 26.4573 33.8815 26.4573 33.8815C26.7181 34.0173 26.8706 34.2958 26.8416 34.5886C26.8131 34.8799 26.6103 35.1255 26.3287 35.2078L21.656 36.5717C21.5899 36.5916 21.5218 36.6002 21.4552 36.6002Z" fill="#562912"/>
<path d="M48.8569 28.9579C48.8208 28.9579 48.7836 28.9548 48.747 28.9492C45.1704 28.3977 43.3739 25.4965 43.2997 25.373C43.0938 25.0344 43.2021 24.5942 43.5406 24.3878C43.8797 24.1814 44.3194 24.2902 44.5253 24.6287C44.5527 24.672 46.0783 27.0856 48.9656 27.5309C49.3571 27.5919 49.6255 27.9579 49.5655 28.3494C49.5101 28.7047 49.2051 28.9579 48.8569 28.9579Z" fill="#562912"/>
<path d="M20.3656 28.9576C20.0173 28.9576 19.7118 28.7044 19.6569 28.3496C19.5964 27.9576 19.8658 27.5922 20.2568 27.5311C23.1792 27.0802 24.6819 24.6539 24.6966 24.629C24.901 24.2904 25.3412 24.1811 25.6818 24.388C26.0203 24.5939 26.1281 25.0341 25.9227 25.3732C25.8485 25.4967 24.0515 28.3979 20.4754 28.9495C20.4382 28.9546 20.4016 28.9576 20.3656 28.9576Z" fill="#562912"/>
</g>
<defs>
<clipPath id="clip0_68935_218498">
<rect x="4" y="4" width="60" height="60" rx="8" fill="white"/>
</clipPath>
</defs>
</svg>
