<svg width="68" height="68" viewBox="0 0 68 68" fill="none" xmlns="http://www.w3.org/2000/svg">
<g clip-path="url(#clip0_68935_218310)">
<rect x="4" y="4" width="60" height="60" rx="8" fill="#3F41D1"/>
<path d="M56 34.001C56 46.1514 46.1507 56 34.0002 56C21.8492 56 12 46.1514 12 34.001C12 21.8501 21.8492 12 34.0002 12C46.1507 12.0005 56 21.8506 56 34.001Z" fill="#FFCE00"/>
<path d="M26.3097 38.7379C25.6412 38.6286 25.1812 39.4119 25.6244 39.9248C27.576 42.1824 30.6027 43.6347 34.0086 43.6347C37.4125 43.6347 40.4407 42.1829 42.3907 39.9248C42.834 39.4119 42.377 38.6286 41.707 38.7379C39.3946 39.1079 36.7791 39.3169 34.0081 39.3169C31.2376 39.3164 28.6206 39.1074 26.3097 38.7379Z" fill="#562912"/>
<path d="M42.1243 30.6733C41.9728 30.5873 41.7908 30.7297 41.8244 30.8995C42.0862 32.2196 43.3901 33.2241 44.9639 33.2241C46.5383 33.2241 47.8417 32.2196 48.104 30.8995C48.138 30.7297 47.9571 30.5873 47.8051 30.6733C46.9958 31.1282 46.0177 31.3961 44.9639 31.3961C43.9111 31.3961 42.9341 31.1282 42.1243 30.6733Z" fill="#562912"/>
<path d="M20.2535 30.6733C20.102 30.5873 19.9205 30.7297 19.953 30.8995C20.2159 32.2196 21.5198 33.2241 23.0941 33.2241C24.668 33.2241 25.9709 32.2196 26.2347 30.8995C26.2672 30.7297 26.0857 30.5873 25.9332 30.6733C25.1239 31.1282 24.1469 31.3961 23.0941 31.3961C22.0413 31.3961 21.0638 31.1282 20.2535 30.6733Z" fill="#562912"/>
<g opacity="0.4">
<path d="M51.2683 38.3844C51.2683 40.2576 49.7493 41.775 47.8766 41.775C46.0028 41.775 44.4844 40.2576 44.4844 38.3844C44.4844 36.5107 46.0023 34.9912 47.8766 34.9912C49.7493 34.9912 51.2683 36.5107 51.2683 38.3844Z" fill="#E55725"/>
</g>
<g opacity="0.4">
<path d="M23.467 38.3844C23.467 40.2576 21.9486 41.775 20.0748 41.775C18.2015 41.775 16.6836 40.2576 16.6836 38.3844C16.6836 36.5107 18.201 34.9912 20.0748 34.9912C21.9486 34.9912 23.467 36.5107 23.467 38.3844Z" fill="#E55725"/>
</g>
</g>
<defs>
<clipPath id="clip0_68935_218310">
<rect x="4" y="4" width="60" height="60" rx="8" fill="white"/>
</clipPath>
</defs>
</svg>
