<svg width="68" height="68" viewBox="0 0 68 68" fill="none" xmlns="http://www.w3.org/2000/svg">
<g clip-path="url(#clip0_68935_217917)">
<rect x="4" y="4" width="60" height="60" rx="8" fill="#4B4DD4"/>
<path d="M56 33.9997C56 46.1508 46.1508 56 33.9997 56C21.8492 56 12 46.1503 12 33.9997C12 21.8492 21.8492 12 33.9997 12C46.1508 12 56 21.8492 56 33.9997Z" fill="#FFCE00"/>
<path d="M48.5421 31.1634C48.7683 31.3043 49.0692 31.1441 49.0692 30.8762C49.0692 30.8737 49.0692 30.8722 49.0692 30.8696C49.0692 29.2648 47.7684 27.9629 46.1635 27.9629C44.5582 27.9629 43.2578 29.2648 43.2578 30.8696C43.2578 30.8717 43.2578 30.8737 43.2578 30.8762C43.2578 31.1441 43.5588 31.3043 43.787 31.1634C44.4778 30.7364 45.2917 30.4899 46.164 30.4899C47.0358 30.4899 47.8497 30.7364 48.5421 31.1634Z" fill="#562912"/>
<path d="M24.2101 31.1634C24.4373 31.3043 24.7377 31.1441 24.7392 30.8762C24.7392 30.8737 24.7392 30.8722 24.7392 30.8696C24.7392 29.2648 23.4374 27.9629 21.8315 27.9629C20.2266 27.9629 18.9258 29.2648 18.9258 30.8696C18.9258 30.8717 18.9258 30.8737 18.9258 30.8762C18.9263 31.1441 19.2267 31.3043 19.455 31.1634C20.1453 30.7364 20.9592 30.4899 21.8315 30.4899C22.7048 30.4899 23.5187 30.7364 24.2101 31.1634Z" fill="#562912"/>
<path d="M22.7505 37.3328C22.0479 37.5707 21.6474 38.3363 21.9203 39.0272C23.5598 43.1732 28.3616 46.6666 34.0002 46.6666C39.6368 46.6666 44.4406 43.1732 46.0796 39.0272C46.3515 38.3363 45.952 37.5713 45.2494 37.3328C38.4538 35.0336 29.5456 35.0336 22.7505 37.3328Z" fill="#562912"/>
<path d="M27.9502 45.2474C29.7508 46.1349 31.8116 46.6662 34.0011 46.6662C36.19 46.6662 38.2493 46.1344 40.0519 45.2474C38.384 43.9912 36.2871 43.2358 34.0011 43.2358C31.715 43.2358 29.6166 43.9912 27.9502 45.2474Z" fill="#CC342F"/>
</g>
<defs>
<clipPath id="clip0_68935_217917">
<rect x="4" y="4" width="60" height="60" rx="8" fill="white"/>
</clipPath>
</defs>
</svg>
