<svg width="68" height="68" viewBox="0 0 68 68" fill="none" xmlns="http://www.w3.org/2000/svg">
<g clip-path="url(#clip0_68935_217953)">
<rect x="4" y="4" width="60" height="60" rx="8" fill="#EBEBFA"/>
<g style="mix-blend-mode:luminosity">
<path d="M56 34.001C56 46.1514 46.1507 56 34.0002 56C21.8492 56 12 46.1514 12 34.001C12 21.8501 21.8492 12 34.0002 12C46.1507 12.0005 56 21.8506 56 34.001Z" fill="#FFCE00"/>
</g>
<path d="M26.3009 38.7383C25.6324 38.6291 25.1724 39.4124 25.6156 39.9253C27.5672 42.1829 30.5939 43.6352 33.9998 43.6352C37.4037 43.6352 40.4319 42.1834 42.382 39.9253C42.8252 39.4124 42.3682 38.6291 41.6982 38.7383C39.3858 39.1084 36.7703 39.3174 33.9993 39.3174C31.2288 39.3168 28.6119 39.1079 26.3009 38.7383Z" fill="#562912"/>
<path d="M42.0999 30.6728C41.9484 30.5869 41.7664 30.7292 41.7999 30.899C42.0617 32.2191 43.3657 33.2236 44.9395 33.2236C46.5139 33.2236 47.8173 32.2191 48.0796 30.899C48.1136 30.7292 47.9326 30.5869 47.7807 30.6728C46.9714 31.1277 45.9933 31.3956 44.9395 31.3956C43.8867 31.3956 42.9097 31.1277 42.0999 30.6728Z" fill="#562912"/>
<path d="M20.2222 30.6728C20.0707 30.5869 19.8893 30.7292 19.9218 30.899C20.1846 32.2191 21.4885 33.2236 23.0629 33.2236C24.6367 33.2236 25.9396 32.2191 26.2034 30.899C26.236 30.7292 26.0545 30.5869 25.902 30.6728C25.0927 31.1277 24.1157 31.3956 23.0629 31.3956C22.0101 31.3956 21.0325 31.1277 20.2222 30.6728Z" fill="#562912"/>
<g opacity="0.4">
<path d="M51.2936 38.3839C51.2936 40.2571 49.7747 41.7745 47.902 41.7745C46.0282 41.7745 44.5098 40.2571 44.5098 38.3839C44.5098 36.5102 46.0277 34.9907 47.902 34.9907C49.7747 34.9907 51.2936 36.5102 51.2936 38.3839Z" fill="#E55725"/>
</g>
<g opacity="0.4">
<path d="M23.4914 38.3839C23.4914 40.2571 21.973 41.7745 20.0992 41.7745C18.2259 41.7745 16.708 40.2571 16.708 38.3839C16.708 36.5102 18.2254 34.9907 20.0992 34.9907C21.973 34.9907 23.4914 36.5102 23.4914 38.3839Z" fill="#E55725"/>
</g>
</g>
<defs>
<clipPath id="clip0_68935_217953">
<rect x="4" y="4" width="60" height="60" rx="8" fill="white"/>
</clipPath>
</defs>
</svg>
