<svg width="68" height="68" viewBox="0 0 68 68" fill="none" xmlns="http://www.w3.org/2000/svg">
<g clip-path="url(#clip0_68935_217994)">
<rect x="4" y="4" width="60" height="60" rx="8" fill="#EBEBFA"/>
<g style="mix-blend-mode:luminosity">
<path d="M56 33.9997C56 46.1503 46.1491 56 33.9985 56C21.8478 56 12 46.1503 12 33.9997C12 21.8487 21.8478 12 33.9985 12C46.1491 11.9995 56 21.8487 56 33.9997Z" fill="#FFCE00"/>
</g>
<path d="M45.3895 36.6264C45.3224 36.6264 45.2548 36.6173 45.1882 36.5969L40.5149 35.233C40.2338 35.1507 40.0305 34.9057 40.0025 34.6134C39.9736 34.3221 40.1261 34.042 40.3863 33.9073C40.3863 33.9073 44.0221 32.0269 45.1094 31.4474C45.4602 31.2598 45.8938 31.393 46.0799 31.7432C46.2659 32.0925 46.1338 32.5271 45.7835 32.7132C45.1735 33.0395 43.7603 33.7741 42.6363 34.3571L45.5904 35.2198C45.9701 35.3306 46.1887 35.7292 46.0768 36.1089C45.9869 36.4231 45.7001 36.6264 45.3895 36.6264Z" fill="#562912"/>
<path d="M22.6136 36.6259C22.3035 36.6259 22.0178 36.4221 21.9258 36.1089C21.8145 35.7292 22.0331 35.3301 22.4133 35.2198L25.3674 34.3571C24.2429 33.7741 22.8302 33.039 22.2186 32.7132C21.8689 32.5271 21.7372 32.0925 21.9233 31.7432C22.1088 31.393 22.5419 31.2598 22.8932 31.4474C23.9821 32.0274 27.6168 33.9073 27.6168 33.9073C27.8776 34.042 28.0301 34.3216 28.0016 34.6134C27.9732 34.9057 27.7698 35.1512 27.4882 35.233L22.8154 36.5969C22.7483 36.6167 22.6817 36.6259 22.6136 36.6259Z" fill="#562912"/>
<path d="M48.2412 27.5497C48.2046 27.5497 48.1675 27.5466 48.1304 27.541C44.5536 26.9884 42.7581 24.0883 42.6834 23.9648C42.478 23.6257 42.5852 23.1855 42.9243 22.9796C43.2629 22.7722 43.7026 22.882 43.908 23.219C43.9238 23.2429 45.4498 25.6749 48.35 26.1227C48.7409 26.1832 49.0098 26.5497 48.9493 26.9412C48.8939 27.296 48.5894 27.5497 48.2412 27.5497Z" fill="#562912"/>
<path d="M19.7575 27.5496C19.4092 27.5496 19.1042 27.2959 19.0483 26.9416C18.9889 26.5502 19.2557 26.1836 19.6477 26.1232C22.5707 25.6717 24.0734 23.2454 24.0886 23.221C24.2925 22.8824 24.7332 22.7726 25.0738 22.98C25.4119 23.1859 25.5207 23.6261 25.3153 23.9652C25.2396 24.0887 23.4425 26.9884 19.8678 27.5414C19.8307 27.5465 19.792 27.5496 19.7575 27.5496Z" fill="#562912"/>
<path d="M26.2563 46.7625C25.9894 46.7625 25.7205 46.6634 25.5136 46.4651L23.5778 44.6147C23.1477 44.204 23.133 43.5233 23.5432 43.0932C23.955 42.6622 24.6352 42.6495 25.0647 43.0592L26.2563 44.1989L29.3837 41.2088C29.799 40.8108 30.4548 40.8108 30.8701 41.2088L33.995 44.1984L37.1229 41.2083C37.5387 40.8113 38.194 40.8103 38.6098 41.2083L41.7407 44.1994L42.9354 43.0587C43.3655 42.649 44.0466 42.6642 44.4559 43.0938C44.8676 43.5233 44.8509 44.205 44.4218 44.6153L42.4834 46.4656C42.0676 46.8621 41.4124 46.8626 40.9975 46.4656L37.8671 43.4745L34.7387 46.4656C34.3234 46.8626 33.6666 46.8626 33.2513 46.4651L30.1259 43.475L27.0005 46.4651C26.7911 46.6639 26.5252 46.7625 26.2563 46.7625Z" fill="#562912"/>
</g>
<defs>
<clipPath id="clip0_68935_217994">
<rect x="4" y="4" width="60" height="60" rx="8" fill="white"/>
</clipPath>
</defs>
</svg>
