<svg width="68" height="68" viewBox="0 0 68 68" fill="none" xmlns="http://www.w3.org/2000/svg">
<g clip-path="url(#clip0_68935_217973)">
<rect x="4" y="4" width="60" height="60" rx="8" fill="#EBEBFA"/>
<g style="mix-blend-mode:luminosity">
<path d="M56 34.0005C56 46.1512 46.1514 56 34 56C21.8496 56 12 46.1512 12 34.0005C12 21.8493 21.8491 12 34 12C46.1509 12 56 21.8493 56 34.0005Z" fill="#FFCE00"/>
</g>
<path d="M42.5011 42.8956C42.2383 42.8956 41.976 42.8001 41.7686 42.6074C39.9782 40.94 37.5417 39.966 34.909 39.8643C31.9825 39.7535 29.1968 40.7484 27.2595 42.5983C26.8305 43.009 26.1488 42.9917 25.7381 42.5627C25.3273 42.1331 25.3441 41.4514 25.7736 41.0422C28.1293 38.7932 31.4935 37.5778 34.9909 37.7145C38.139 37.835 41.0671 39.0128 43.2347 41.032C43.6698 41.4377 43.6942 42.1189 43.289 42.553C43.0771 42.7802 42.7893 42.8956 42.5011 42.8956Z" fill="#562912"/>
<path d="M47.7892 36.6006C47.7226 36.6006 47.655 36.5915 47.5879 36.5711L42.9152 35.2072C42.6341 35.1249 42.4303 34.8793 42.4028 34.5881C42.3744 34.2963 42.5263 34.0166 42.7866 33.8809C42.7866 33.8809 46.4218 32.0016 47.5096 31.4215C47.8599 31.2339 48.2935 31.3671 48.48 31.7164C48.6666 32.0661 48.5339 32.5008 48.1847 32.6873C47.5732 33.0132 46.1615 33.7483 45.036 34.3313L47.99 35.1935C48.3697 35.3043 48.5883 35.7023 48.4775 36.0826C48.3865 36.3968 48.1003 36.6006 47.7892 36.6006Z" fill="#562912"/>
<path d="M21.4259 36.6007C21.1153 36.6007 20.8291 36.3968 20.7376 36.0837C20.6263 35.7034 20.8444 35.3054 21.2251 35.1946L24.1791 34.3324C23.0547 33.7493 21.6415 33.0138 21.0304 32.6884C20.6812 32.5019 20.5485 32.0667 20.7346 31.7175C20.9206 31.3677 21.3532 31.235 21.7055 31.4226C22.7939 32.0026 26.428 33.882 26.428 33.882C26.6888 34.0177 26.8413 34.2963 26.8123 34.5891C26.7838 34.8804 26.581 35.126 26.2994 35.2083L21.6267 36.5722C21.5606 36.592 21.4925 36.6007 21.4259 36.6007Z" fill="#562912"/>
<path d="M48.8481 28.9579C48.812 28.9579 48.7749 28.9548 48.7383 28.9492C45.1616 28.3977 43.3651 25.4965 43.2909 25.373C43.085 25.0344 43.1933 24.5942 43.5318 24.3878C43.8709 24.1814 44.3106 24.2902 44.5165 24.6287C44.5439 24.672 46.0695 27.0856 48.9568 27.5309C49.3483 27.5919 49.6167 27.9579 49.5567 28.3494C49.5013 28.7047 49.1963 28.9579 48.8481 28.9579Z" fill="#562912"/>
<path d="M20.3656 28.9576C20.0173 28.9576 19.7118 28.7044 19.6569 28.3496C19.5964 27.9576 19.8658 27.5922 20.2568 27.5311C23.1792 27.0802 24.6819 24.6539 24.6966 24.629C24.901 24.2904 25.3412 24.1811 25.6818 24.388C26.0203 24.5939 26.1281 25.0341 25.9227 25.3732C25.8485 25.4967 24.0515 28.3979 20.4754 28.9495C20.4382 28.9546 20.4016 28.9576 20.3656 28.9576Z" fill="#562912"/>
</g>
<defs>
<clipPath id="clip0_68935_217973">
<rect x="4" y="4" width="60" height="60" rx="8" fill="white"/>
</clipPath>
</defs>
</svg>
