<svg width="68" height="68" viewBox="0 0 68 68" fill="none" xmlns="http://www.w3.org/2000/svg">
<g clip-path="url(#clip0_68935_217935)">
<rect x="4" y="4" width="60" height="60" rx="8" fill="#EBEBFA"/>
<g style="mix-blend-mode:luminosity">
<path d="M34 56C46.1503 56 56 46.1503 56 34C56 21.8497 46.1503 12 34 12C21.8497 12 12 21.8497 12 34C12 46.1503 21.8497 56 34 56Z" fill="#FFCE00"/>
<path d="M45.6816 26.3892C45.6816 27.0694 45.5408 27.7013 45.2953 28.2274C45.1377 28.566 44.7076 28.7134 44.4077 28.4917C44.0834 28.2523 43.7133 28.1181 43.3214 28.1181C42.934 28.1181 42.567 28.2518 42.2427 28.4917C41.9433 28.7134 41.5112 28.5665 41.3546 28.2274C41.1086 27.7008 40.9678 27.0694 40.9678 26.3892C40.9678 24.5455 42.0226 23.0464 43.3209 23.0464C44.6268 23.0464 45.6816 24.5455 45.6816 26.3892Z" fill="#562912"/>
<path d="M27.0317 26.3892C27.0317 27.0694 26.8909 27.7013 26.6468 28.2274C26.4888 28.566 26.0577 28.7134 25.7588 28.4917C25.4355 28.2523 25.0649 28.1181 24.673 28.1181C24.2856 28.1181 23.9171 28.2518 23.5937 28.4917C23.2948 28.7134 22.8628 28.5665 22.7052 28.2274C22.4607 27.7008 22.3193 27.0694 22.3193 26.3892C22.3193 24.5455 23.3736 23.0464 24.6724 23.0464C25.9779 23.0464 27.0317 24.5455 27.0317 26.3892Z" fill="#562912"/>
<path d="M22.8142 34.9873C22.1626 34.9873 21.7127 35.6131 21.886 36.2414C23.0374 40.4367 28.0131 43.5951 33.9932 43.5951C40.0099 43.5951 45.011 40.3966 46.1217 36.1621C46.2788 35.5643 45.7933 34.9873 45.1747 34.9873H22.8142Z" fill="#562912"/>
<path d="M33.9936 36.6308C37.2576 36.6308 40.2507 36.0137 42.6257 34.9868H25.3594C27.7349 36.0137 30.7285 36.6308 33.9936 36.6308Z" fill="white"/>
<path d="M34.1995 41.3101C32.465 41.3101 30.9049 41.9806 29.7998 43.0501C31.1088 43.4014 32.5205 43.5951 33.9941 43.5951C35.5888 43.5951 37.1067 43.3643 38.5057 42.9556C37.4061 41.9399 35.8836 41.3101 34.1995 41.3101Z" fill="#CC342F"/>
</g>
</g>
<defs>
<clipPath id="clip0_68935_217935">
<rect x="4" y="4" width="60" height="60" rx="8" fill="white"/>
</clipPath>
</defs>
</svg>
