<svg width="68" height="68" viewBox="0 0 68 68" fill="none" xmlns="http://www.w3.org/2000/svg">
<g clip-path="url(#clip0_68935_218096)">
<rect x="4" y="4" width="60" height="60" rx="8" fill="#EBEBFA"/>
<g style="mix-blend-mode:luminosity">
<path d="M56 33.9997C56 46.1508 46.1508 56 33.9997 56C21.8492 56 12 46.1503 12 33.9997C12 21.8492 21.8492 12 33.9997 12C46.1508 12 56 21.8492 56 33.9997Z" fill="#FFCE00"/>
<path d="M48.5431 31.1634C48.7693 31.3043 49.0702 31.1441 49.0702 30.8762C49.0702 30.8737 49.0702 30.8722 49.0702 30.8696C49.0702 29.2648 47.7694 27.9629 46.1645 27.9629C44.5591 27.9629 43.2588 29.2648 43.2588 30.8696C43.2588 30.8717 43.2588 30.8737 43.2588 30.8762C43.2588 31.1441 43.5597 31.3043 43.788 31.1634C44.4788 30.7364 45.2927 30.4899 46.165 30.4899C47.0368 30.4899 47.8507 30.7364 48.5431 31.1634Z" fill="#562912"/>
<path d="M24.2091 31.1634C24.4363 31.3043 24.7367 31.1441 24.7383 30.8762C24.7383 30.8737 24.7383 30.8722 24.7383 30.8696C24.7383 29.2648 23.4364 27.9629 21.8305 27.9629C20.2257 27.9629 18.9248 29.2648 18.9248 30.8696C18.9248 30.8717 18.9248 30.8737 18.9248 30.8762C18.9253 31.1441 19.2257 31.3043 19.454 31.1634C20.1443 30.7364 20.9582 30.4899 21.8305 30.4899C22.7039 30.4899 23.5177 30.7364 24.2091 31.1634Z" fill="#562912"/>
<path d="M22.7495 37.3328C22.047 37.5707 21.6464 38.3363 21.9194 39.0272C23.5588 43.1732 28.3606 46.6666 33.9992 46.6666C39.6358 46.6666 44.4397 43.1732 46.0786 39.0272C46.3505 38.3363 45.951 37.5713 45.2484 37.3328C38.4529 35.0336 29.5446 35.0336 22.7495 37.3328Z" fill="#562912"/>
<path d="M27.9492 45.2479C29.7498 46.1354 31.8106 46.6667 34.0001 46.6667C36.189 46.6667 38.2483 46.1349 40.0509 45.2479C38.383 43.9917 36.2861 43.2363 34.0001 43.2363C31.714 43.2363 29.6156 43.9917 27.9492 45.2479Z" fill="#CC342F"/>
</g>
</g>
<defs>
<clipPath id="clip0_68935_218096">
<rect x="4" y="4" width="60" height="60" rx="8" fill="white"/>
</clipPath>
</defs>
</svg>
