<svg width="484" height="465" viewBox="0 0 484 465" fill="none" xmlns="http://www.w3.org/2000/svg">
<g clip-path="url(#clip0_68935_218374)">
<path d="M238.341 464.947C631.277 469.554 915.445 172.033 703.246 -57.9026C473.361 -307.002 -30.6974 -320.876 -254.541 -69.1315C-467.843 170.757 -167.294 460.192 238.341 464.947Z" fill="url(#paint0_linear_68935_218374)"/>
<path d="M56.013 51V36.7H58.673V43.18L64.153 36.68H67.013L61.093 43.52L67.313 51H64.173L58.673 44.32V51H56.013ZM68.959 51V40.54H71.379V51H68.959ZM70.139 38.82C69.339 38.82 68.699 38.22 68.699 37.44C68.699 36.64 69.339 36.04 70.139 36.04C70.939 36.04 71.579 36.64 71.579 37.44C71.579 38.22 70.939 38.82 70.139 38.82ZM74.3287 51V40.54H76.7487V42.2C77.2487 41.18 78.4087 40.32 80.1287 40.32C82.2287 40.32 83.7087 41.54 83.7087 44.42V51H81.2887V44.64C81.2887 43.06 80.6487 42.34 79.2087 42.34C77.8487 42.34 76.7487 43.18 76.7487 44.84V51H74.3287ZM90.4166 51.2C87.7966 51.2 85.8166 49.34 85.8166 45.94V45.78C85.8166 42.44 87.7966 40.32 90.5166 40.32C92.2166 40.32 93.2766 41.1 93.8566 42.14V35.7H96.2766V51H93.8566V49.24C93.2966 50.28 91.9566 51.2 90.4166 51.2ZM91.0166 49.28C92.6966 49.28 93.9366 48.16 93.9366 45.82V45.66C93.9366 43.36 92.8766 42.22 91.1166 42.22C89.3366 42.22 88.2966 43.46 88.2966 45.72V45.88C88.2966 48.18 89.4566 49.28 91.0166 49.28ZM99.2129 51V35.7H101.633V51H99.2129ZM105.743 54.58L107.643 49.94L103.503 40.54H106.123L108.903 47.28L111.463 40.54H113.823L108.123 54.58H105.743ZM125.463 51.2C121.563 51.2 119.923 49.26 119.723 46.56H122.283C122.463 48 123.043 49.2 125.463 49.2C127.043 49.2 128.163 48.32 128.163 47C128.163 45.68 127.503 45.18 125.183 44.8C121.763 44.34 120.143 43.3 120.143 40.62C120.143 38.28 122.143 36.52 125.123 36.52C128.203 36.52 130.043 37.92 130.323 40.66H127.883C127.623 39.16 126.763 38.52 125.123 38.52C123.503 38.52 122.663 39.3 122.663 40.4C122.663 41.56 123.143 42.14 125.623 42.5C128.983 42.96 130.723 43.92 130.723 46.78C130.723 49.26 128.623 51.2 125.463 51.2ZM133.098 51V35.7H135.518V42.2C136.018 41.18 137.178 40.32 138.898 40.32C140.998 40.32 142.478 41.54 142.478 44.42V51H140.058V44.64C140.058 43.06 139.418 42.34 137.978 42.34C136.618 42.34 135.518 43.18 135.518 44.84V51H133.098ZM148.006 51.2C146.086 51.2 144.506 50.28 144.506 48.1C144.506 45.66 146.866 44.78 149.866 44.78H151.166V44.24C151.166 42.84 150.686 42.14 149.266 42.14C148.006 42.14 147.386 42.74 147.266 43.78H144.926C145.126 41.34 147.066 40.32 149.406 40.32C151.746 40.32 153.586 41.28 153.586 44.14V51H151.206V49.72C150.526 50.62 149.606 51.2 148.006 51.2ZM148.586 49.46C150.066 49.46 151.166 48.68 151.166 47.34V46.3H149.926C148.086 46.3 146.906 46.72 146.906 48C146.906 48.88 147.386 49.46 148.586 49.46ZM156.36 51V40.54H158.78V42.5C159.44 41.18 160.42 40.4 162.18 40.38V42.64C160.06 42.66 158.78 43.34 158.78 45.56V51H156.36ZM168.714 51.2C165.634 51.2 163.414 49.18 163.414 45.88V45.72C163.414 42.48 165.634 40.32 168.614 40.32C171.214 40.32 173.554 41.86 173.554 45.6V46.3H165.894C165.974 48.28 166.974 49.4 168.774 49.4C170.234 49.4 170.994 48.82 171.174 47.8H173.514C173.174 50 171.394 51.2 168.714 51.2ZM165.934 44.68H171.154C171.034 42.88 170.114 42.08 168.614 42.08C167.154 42.08 166.174 43.06 165.934 44.68ZM184.121 51V44.8L179.381 36.7H182.321L185.541 42.62L188.681 36.7H191.281L186.801 44.82V51H184.121ZM196.138 49.32C197.938 49.32 199.018 47.98 199.018 45.84V45.7C199.018 43.54 197.938 42.22 196.138 42.22C194.338 42.22 193.238 43.52 193.238 45.68V45.84C193.238 47.98 194.298 49.32 196.138 49.32ZM196.118 51.2C193.038 51.2 190.758 49.06 190.758 45.88V45.72C190.758 42.48 193.058 40.32 196.138 40.32C199.198 40.32 201.498 42.46 201.498 45.66V45.82C201.498 49.08 199.198 51.2 196.118 51.2ZM207.184 51.2C205.124 51.2 203.584 50.02 203.584 47.24V40.54H206.004V46.96C206.004 48.54 206.664 49.26 208.064 49.26C209.364 49.26 210.504 48.42 210.504 46.76V40.54H212.924V51H210.504V49.36C209.984 50.38 208.884 51.2 207.184 51.2ZM215.794 51V40.54H218.214V42.5C218.874 41.18 219.854 40.4 221.614 40.38V42.64C219.494 42.66 218.214 43.34 218.214 45.56V51H215.794ZM232.348 51L227.528 36.7H230.308L234.028 48.3L237.768 36.7H240.268L235.428 51H232.348ZM244.002 51.2C242.082 51.2 240.502 50.28 240.502 48.1C240.502 45.66 242.862 44.78 245.862 44.78H247.162V44.24C247.162 42.84 246.682 42.14 245.262 42.14C244.002 42.14 243.382 42.74 243.262 43.78H240.922C241.122 41.34 243.062 40.32 245.402 40.32C247.742 40.32 249.582 41.28 249.582 44.14V51H247.202V49.72C246.522 50.62 245.602 51.2 244.002 51.2ZM244.582 49.46C246.062 49.46 247.162 48.68 247.162 47.34V46.3H245.922C244.082 46.3 242.902 46.72 242.902 48C242.902 48.88 243.382 49.46 244.582 49.46ZM252.416 51V35.7H254.836V51H252.416ZM261.286 51.2C259.226 51.2 257.686 50.02 257.686 47.24V40.54H260.106V46.96C260.106 48.54 260.766 49.26 262.166 49.26C263.466 49.26 264.606 48.42 264.606 46.76V40.54H267.026V51H264.606V49.36C264.086 50.38 262.986 51.2 261.286 51.2ZM272.635 51.2C270.715 51.2 269.135 50.28 269.135 48.1C269.135 45.66 271.495 44.78 274.495 44.78H275.795V44.24C275.795 42.84 275.315 42.14 273.895 42.14C272.635 42.14 272.015 42.74 271.895 43.78H269.555C269.755 41.34 271.695 40.32 274.035 40.32C276.375 40.32 278.215 41.28 278.215 44.14V51H275.835V49.72C275.155 50.62 274.235 51.2 272.635 51.2ZM273.215 49.46C274.695 49.46 275.795 48.68 275.795 47.34V46.3H274.555C272.715 46.3 271.535 46.72 271.535 48C271.535 48.88 272.015 49.46 273.215 49.46ZM286.829 51.2C285.169 51.2 283.969 50.38 283.409 49.32V51H280.989V35.7H283.409V42.22C283.989 41.22 285.289 40.32 286.829 40.32C289.449 40.32 291.469 42.26 291.469 45.64V45.8C291.469 49.16 289.529 51.2 286.829 51.2ZM286.229 49.28C288.009 49.28 288.989 48.08 288.989 45.84V45.68C288.989 43.36 287.789 42.22 286.209 42.22C284.529 42.22 283.329 43.36 283.329 45.68V45.84C283.329 48.18 284.469 49.28 286.229 49.28ZM293.705 51V35.7H296.125V51H293.705ZM303.675 51.2C300.595 51.2 298.375 49.18 298.375 45.88V45.72C298.375 42.48 300.595 40.32 303.575 40.32C306.175 40.32 308.515 41.86 308.515 45.6V46.3H300.855C300.935 48.28 301.935 49.4 303.735 49.4C305.195 49.4 305.955 48.82 306.135 47.8H308.475C308.135 50 306.355 51.2 303.675 51.2ZM300.895 44.68H306.115C305.995 42.88 305.075 42.08 303.575 42.08C302.115 42.08 301.135 43.06 300.895 44.68ZM315.642 51V36.7H324.502V38.82H318.302V43.08H323.182V45.14H318.302V51H315.642ZM330.706 51.2C327.626 51.2 325.406 49.18 325.406 45.88V45.72C325.406 42.48 327.626 40.32 330.606 40.32C333.206 40.32 335.546 41.86 335.546 45.6V46.3H327.886C327.966 48.28 328.966 49.4 330.766 49.4C332.226 49.4 332.986 48.82 333.166 47.8H335.506C335.166 50 333.386 51.2 330.706 51.2ZM327.926 44.68H333.146C333.026 42.88 332.106 42.08 330.606 42.08C329.146 42.08 328.166 43.06 327.926 44.68ZM342.308 51.2C339.228 51.2 337.008 49.18 337.008 45.88V45.72C337.008 42.48 339.228 40.32 342.208 40.32C344.808 40.32 347.148 41.86 347.148 45.6V46.3H339.488C339.568 48.28 340.568 49.4 342.368 49.4C343.828 49.4 344.588 48.82 344.768 47.8H347.108C346.768 50 344.988 51.2 342.308 51.2ZM339.528 44.68H344.748C344.628 42.88 343.708 42.08 342.208 42.08C340.748 42.08 339.768 43.06 339.528 44.68ZM353.229 51.2C350.609 51.2 348.629 49.34 348.629 45.94V45.78C348.629 42.44 350.609 40.32 353.329 40.32C355.029 40.32 356.089 41.1 356.669 42.14V35.7H359.089V51H356.669V49.24C356.109 50.28 354.769 51.2 353.229 51.2ZM353.829 49.28C355.509 49.28 356.749 48.16 356.749 45.82V45.66C356.749 43.36 355.689 42.22 353.929 42.22C352.149 42.22 351.109 43.46 351.109 45.72V45.88C351.109 48.18 352.269 49.28 353.829 49.28ZM367.805 51.2C366.145 51.2 364.945 50.38 364.385 49.32V51H361.965V35.7H364.385V42.22C364.965 41.22 366.265 40.32 367.805 40.32C370.425 40.32 372.445 42.26 372.445 45.64V45.8C372.445 49.16 370.505 51.2 367.805 51.2ZM367.205 49.28C368.985 49.28 369.965 48.08 369.965 45.84V45.68C369.965 43.36 368.765 42.22 367.185 42.22C365.505 42.22 364.305 43.36 364.305 45.68V45.84C364.305 48.18 365.445 49.28 367.205 49.28ZM377.362 51.2C375.442 51.2 373.862 50.28 373.862 48.1C373.862 45.66 376.222 44.78 379.222 44.78H380.522V44.24C380.522 42.84 380.042 42.14 378.622 42.14C377.362 42.14 376.742 42.74 376.622 43.78H374.282C374.482 41.34 376.422 40.32 378.762 40.32C381.102 40.32 382.942 41.28 382.942 44.14V51H380.562V49.72C379.882 50.62 378.962 51.2 377.362 51.2ZM377.942 49.46C379.422 49.46 380.522 48.68 380.522 47.34V46.3H379.282C377.442 46.3 376.262 46.72 376.262 48C376.262 48.88 376.742 49.46 377.942 49.46ZM390.295 51.2C387.295 51.2 385.015 49.24 385.015 45.9V45.74C385.015 42.42 387.375 40.32 390.295 40.32C392.615 40.32 394.795 41.36 395.075 44.24H392.735C392.535 42.84 391.615 42.26 390.335 42.26C388.675 42.26 387.495 43.54 387.495 45.7V45.86C387.495 48.14 388.615 49.34 390.395 49.34C391.675 49.34 392.775 48.58 392.915 47.1H395.135C394.955 49.5 393.135 51.2 390.295 51.2ZM397.219 51V35.7H399.639V45.14L403.379 40.54H406.019L401.959 45.34L406.359 51H403.559L399.639 45.86V51H397.219ZM414.386 51.14C413.506 51.14 412.786 50.46 412.786 49.6C412.786 48.72 413.506 48.04 414.386 48.04C415.286 48.04 416.006 48.72 416.006 49.6C416.006 50.46 415.286 51.14 414.386 51.14ZM413.426 46.7L413.066 36.7H415.766L415.386 46.7H413.426ZM420.479 51.14C419.599 51.14 418.879 50.46 418.879 49.6C418.879 48.72 419.599 48.04 420.479 48.04C421.379 48.04 422.099 48.72 422.099 49.6C422.099 50.46 421.379 51.14 420.479 51.14ZM419.519 46.7L419.159 36.7H421.859L421.479 46.7H419.519ZM426.573 51.14C425.693 51.14 424.973 50.46 424.973 49.6C424.973 48.72 425.693 48.04 426.573 48.04C427.473 48.04 428.193 48.72 428.193 49.6C428.193 50.46 427.473 51.14 426.573 51.14ZM425.613 46.7L425.253 36.7H427.953L427.573 46.7H425.613Z" fill="white"/>
<path d="M230 121.2C226.1 121.2 224.46 119.26 224.26 116.56H226.82C227 118 227.58 119.2 230 119.2C231.58 119.2 232.7 118.32 232.7 117C232.7 115.68 232.04 115.18 229.72 114.8C226.3 114.34 224.68 113.3 224.68 110.62C224.68 108.28 226.68 106.52 229.66 106.52C232.74 106.52 234.58 107.92 234.86 110.66H232.42C232.16 109.16 231.3 108.52 229.66 108.52C228.04 108.52 227.2 109.3 227.2 110.4C227.2 111.56 227.68 112.14 230.16 112.5C233.52 112.96 235.26 113.92 235.26 116.78C235.26 119.26 233.16 121.2 230 121.2ZM240.375 121.2C238.455 121.2 236.875 120.28 236.875 118.1C236.875 115.66 239.235 114.78 242.235 114.78H243.535V114.24C243.535 112.84 243.055 112.14 241.635 112.14C240.375 112.14 239.755 112.74 239.635 113.78H237.295C237.495 111.34 239.435 110.32 241.775 110.32C244.115 110.32 245.955 111.28 245.955 114.14V121H243.575V119.72C242.895 120.62 241.975 121.2 240.375 121.2ZM240.955 119.46C242.435 119.46 243.535 118.68 243.535 117.34V116.3H242.295C240.455 116.3 239.275 116.72 239.275 118C239.275 118.88 239.755 119.46 240.955 119.46ZM252.649 121.2C250.029 121.2 248.049 119.34 248.049 115.94V115.78C248.049 112.44 250.029 110.32 252.749 110.32C254.449 110.32 255.509 111.1 256.089 112.14V105.7H258.509V121H256.089V119.24C255.529 120.28 254.189 121.2 252.649 121.2ZM253.249 119.28C254.929 119.28 256.169 118.16 256.169 115.82V115.66C256.169 113.36 255.109 112.22 253.349 112.22C251.569 112.22 250.529 113.46 250.529 115.72V115.88C250.529 118.18 251.689 119.28 253.249 119.28Z" fill="white"/>
<path d="M196.504 319.031C222.466 319.031 243.513 293.351 243.513 261.674C243.513 229.997 222.466 204.317 196.504 204.317C170.542 204.317 149.495 229.997 149.495 261.674C149.495 293.351 170.542 319.031 196.504 319.031Z" fill="#878787"/>
<path d="M287.835 319.031C313.797 319.031 334.844 293.351 334.844 261.674C334.844 229.997 313.797 204.317 287.835 204.317C261.873 204.317 240.826 229.997 240.826 261.674C240.826 293.351 261.873 319.031 287.835 319.031Z" fill="#878787"/>
<path d="M241.153 256.04C241.99 225.76 222.379 200.408 197.35 199.414C172.32 198.421 151.352 222.163 150.515 252.443C149.678 282.723 169.29 308.075 194.319 309.068C219.348 310.061 240.317 286.32 241.153 256.04Z" fill="#DDDDDD"/>
<path d="M226.616 219.083C234.342 229.073 238.389 242.111 238.01 255.794C237.639 269.179 233.049 281.671 225.086 290.969C217.151 300.234 206.725 305.337 195.727 305.337C195.251 305.337 194.788 305.328 194.31 305.309C183.024 304.86 172.558 299.118 164.842 289.141C164.842 289.141 194.667 313.456 219.463 287.705C243.685 262.55 226.616 219.083 226.616 219.083Z" fill="#C6C6C6"/>
<path d="M197.371 199.463C172.343 198.467 151.374 222.206 150.535 252.484C150.412 256.897 150.727 261.205 151.428 265.349C158.685 278.653 170.986 287.637 185.16 288.201C208.384 289.125 227.842 267.098 228.62 239.002C228.926 227.969 226.305 217.642 221.603 209.111C214.697 203.341 206.385 199.822 197.371 199.463Z" fill="#EBEBEB"/>
<path d="M212.989 248.803C213.455 231.984 202.563 217.9 188.66 217.347C174.758 216.794 163.109 229.979 162.643 246.798C162.177 263.617 173.069 277.701 186.972 278.254C200.874 278.807 212.523 265.622 212.989 248.803Z" fill="#2E7BAB"/>
<path d="M203.794 248.434C204.09 237.751 197.172 228.805 188.341 228.454C179.51 228.102 172.112 236.478 171.816 247.161C171.519 257.844 178.438 266.789 187.269 267.14C196.099 267.492 203.498 259.117 203.794 248.434Z" fill="#310003"/>
<path opacity="0.44" d="M192.598 227.264C192.851 218.15 186.949 210.519 179.416 210.22C171.883 209.92 165.571 217.064 165.319 226.178C165.066 235.291 170.968 242.922 178.501 243.222C186.034 243.522 192.346 236.377 192.598 227.264Z" fill="white"/>
<path opacity="0.53" d="M206.526 275.099C210.275 275.099 213.315 271.457 213.315 266.964C213.315 262.471 210.275 258.828 206.526 258.828C202.776 258.828 199.736 262.471 199.736 266.964C199.736 271.457 202.776 275.099 206.526 275.099Z" fill="white"/>
<path d="M333.485 256.034C334.321 225.754 314.71 200.402 289.681 199.409C264.652 198.415 243.683 222.157 242.846 252.437C242.009 282.717 261.621 308.069 286.65 309.062C311.679 310.055 332.648 286.314 333.485 256.034Z" fill="#DDDDDD"/>
<path d="M318.95 219.083C326.676 229.073 330.723 242.111 330.344 255.794C329.973 269.179 325.383 281.671 317.42 290.969C309.485 300.234 299.059 305.337 288.061 305.337C287.585 305.337 287.122 305.328 286.644 305.309C275.358 304.86 264.892 299.118 257.176 289.141C257.176 289.141 287.001 313.456 311.797 287.705C336.019 262.55 318.95 219.083 318.95 219.083Z" fill="#C6C6C6"/>
<path d="M289.706 199.463C264.678 198.467 243.709 222.206 242.87 252.484C242.747 256.897 243.062 261.205 243.763 265.349C251.02 278.653 263.321 287.637 277.496 288.201C300.719 289.125 320.177 267.098 320.955 239.002C321.261 227.969 318.64 217.642 313.938 209.111C307.032 203.341 298.72 199.822 289.706 199.463Z" fill="#EBEBEB"/>
<path d="M305.323 248.806C305.789 231.987 294.897 217.904 280.994 217.351C267.092 216.797 255.443 229.983 254.977 246.802C254.511 263.621 265.403 277.705 279.306 278.258C293.208 278.811 304.857 265.625 305.323 248.806Z" fill="#2E7BAB"/>
<path d="M296.126 248.438C296.422 237.755 289.504 228.809 280.673 228.458C271.842 228.106 264.444 236.482 264.148 247.165C263.851 257.848 270.77 266.793 279.601 267.144C288.431 267.496 295.83 259.121 296.126 248.438Z" fill="#310003"/>
<path opacity="0.44" d="M284.93 227.268C285.183 218.155 279.281 210.524 271.748 210.224C264.215 209.925 257.903 217.069 257.651 226.182C257.398 235.296 263.3 242.927 270.833 243.227C278.366 243.526 284.678 236.382 284.93 227.268Z" fill="white"/>
<path opacity="0.53" d="M298.861 275.099C302.61 275.099 305.65 271.457 305.65 266.964C305.65 262.471 302.61 258.828 298.861 258.828C295.111 258.828 292.071 262.471 292.071 266.964C292.071 271.457 295.111 275.099 298.861 275.099Z" fill="white"/>
<path d="M156.148 195.523C156.148 195.523 171.658 165.484 192.108 164.418C212.559 163.353 210.028 148.325 210.028 148.325C210.028 148.325 220.852 137.775 224.946 151.452C229.04 165.128 214.127 177.434 197.887 177.826C181.646 178.217 176.232 175.775 156.148 195.523Z" fill="#5E2222"/>
<path d="M319.324 193.081C319.324 193.081 303.814 163.042 283.364 161.977C262.914 160.912 265.444 145.883 265.444 145.883C265.444 145.883 254.62 135.334 250.526 149.01C246.432 162.687 261.346 174.992 277.586 175.384C293.825 175.776 299.239 173.335 319.324 193.081Z" fill="#5E2222"/>
<path d="M291.653 363.182C287.184 361.25 285.007 358.467 282.291 354.337C278.529 348.714 275.088 343.69 268.149 343.785C256.212 344.356 247.656 361.406 236.621 365.016C229.951 366.3 226.96 361.802 223.119 354.842C219.862 348.964 215.215 339.603 205.998 340.887C195.327 342.869 189.159 359.01 179.467 364.355C169.093 369.727 160.294 359.261 154.73 347.582C159.466 361.273 168.824 372.491 180.507 367.362C192.084 361.955 200.86 341.618 210.376 346.473C219.35 350.344 219.861 369.874 234.26 370.99C247.485 371.563 259.302 346.665 270.285 349.012C278.977 351.529 279.706 362.962 290.708 366.738C303.883 371.371 320.478 360.543 321.543 344.344C318.969 359.573 303.163 368.148 291.653 363.182Z" fill="#3D1C39"/>
<path d="M154.28 396.313L157.1 401.991C157.48 402.777 158.5 403.522 159.361 403.683L164.461 404.528C167.721 405.072 168.481 407.448 166.141 409.824L162.161 413.831C161.501 414.495 161.121 415.804 161.341 416.751L162.481 421.704C163.381 425.61 161.301 427.14 157.88 425.087L153.1 422.227C152.24 421.704 150.8 421.704 149.94 422.227L145.16 425.087C141.739 427.12 139.659 425.61 140.559 421.704L141.699 416.751C141.879 415.784 141.499 414.475 140.839 413.811L136.859 409.804C134.519 407.448 135.279 405.072 138.539 404.508L143.639 403.663C144.5 403.522 145.52 402.756 145.9 401.971L148.72 396.293C150.26 393.232 152.74 393.232 154.28 396.313Z" fill="#A3A3A3"/>
<path d="M199.28 396.313L202.1 401.991C202.48 402.777 203.5 403.522 204.361 403.683L209.461 404.528C212.721 405.072 213.481 407.448 211.141 409.824L207.161 413.831C206.501 414.495 206.121 415.804 206.341 416.751L207.481 421.704C208.381 425.61 206.301 427.14 202.88 425.087L198.1 422.227C197.24 421.704 195.8 421.704 194.94 422.227L190.16 425.087C186.739 427.12 184.659 425.61 185.559 421.704L186.699 416.751C186.879 415.784 186.499 414.475 185.839 413.811L181.859 409.804C179.519 407.448 180.279 405.072 183.539 404.508L188.639 403.663C189.5 403.522 190.52 402.756 190.9 401.971L193.72 396.293C195.26 393.232 197.74 393.232 199.28 396.313Z" fill="#A3A3A3"/>
<path d="M244.28 396.313L247.1 401.991C247.48 402.777 248.5 403.522 249.361 403.683L254.461 404.528C257.721 405.072 258.481 407.448 256.141 409.824L252.161 413.831C251.501 414.495 251.121 415.804 251.341 416.751L252.481 421.704C253.381 425.61 251.301 427.14 247.88 425.087L243.1 422.227C242.24 421.704 240.8 421.704 239.94 422.227L235.16 425.087C231.739 427.12 229.659 425.61 230.559 421.704L231.699 416.751C231.879 415.784 231.499 414.475 230.839 413.811L226.859 409.804C224.519 407.448 225.279 405.072 228.539 404.508L233.639 403.663C234.5 403.522 235.52 402.756 235.9 401.971L238.72 396.293C240.26 393.232 242.74 393.232 244.28 396.313Z" fill="#A3A3A3"/>
<path d="M289.28 396.313L292.1 401.991C292.48 402.777 293.5 403.522 294.361 403.683L299.461 404.528C302.721 405.072 303.481 407.448 301.141 409.824L297.161 413.831C296.501 414.495 296.121 415.804 296.341 416.751L297.481 421.704C298.381 425.61 296.301 427.14 292.88 425.087L288.1 422.227C287.24 421.704 285.8 421.704 284.94 422.227L280.16 425.087C276.739 427.12 274.659 425.61 275.559 421.704L276.699 416.751C276.879 415.784 276.499 414.475 275.839 413.811L271.859 409.804C269.519 407.448 270.279 405.072 273.539 404.508L278.639 403.663C279.5 403.522 280.52 402.756 280.9 401.971L283.72 396.293C285.26 393.232 287.74 393.232 289.28 396.313Z" fill="#FF9500"/>
<path d="M334.28 396.313L337.1 401.991C337.48 402.777 338.5 403.522 339.361 403.683L344.461 404.528C347.721 405.072 348.481 407.448 346.141 409.824L342.161 413.831C341.501 414.495 341.121 415.804 341.341 416.751L342.481 421.704C343.381 425.61 341.301 427.14 337.88 425.087L333.1 422.227C332.24 421.704 330.8 421.704 329.94 422.227L325.16 425.087C321.739 427.12 319.659 425.61 320.559 421.704L321.699 416.751C321.879 415.784 321.499 414.475 320.839 413.811L316.859 409.804C314.519 407.448 315.279 405.072 318.539 404.508L323.639 403.663C324.5 403.522 325.52 402.756 325.9 401.971L328.72 396.293C330.26 393.232 332.74 393.232 334.28 396.313Z" fill="#FF9500"/>
</g>
<defs>
<linearGradient id="paint0_linear_68935_218374" x1="-325.149" y1="106.774" x2="775.641" y2="106.774" gradientUnits="userSpaceOnUse">
<stop stop-color="#4776E6"/>
<stop offset="1" stop-color="#8E54E9"/>
</linearGradient>
<clipPath id="clip0_68935_218374">
<rect width="484" height="465" fill="white"/>
</clipPath>
</defs>
</svg>
