<svg width="484" height="465" viewBox="0 0 484 465" fill="none" xmlns="http://www.w3.org/2000/svg">
<g clip-path="url(#clip0_68935_218542)">
<path d="M238.341 464.947C631.277 469.554 915.445 172.033 703.246 -57.9026C473.361 -307.002 -30.6974 -320.876 -254.541 -69.1315C-467.843 170.757 -167.294 460.192 238.341 464.947Z" fill="url(#paint0_linear_68935_218542)"/>
<path d="M56.013 51V36.7H58.673V43.18L64.153 36.68H67.013L61.093 43.52L67.313 51H64.173L58.673 44.32V51H56.013ZM68.959 51V40.54H71.379V51H68.959ZM70.139 38.82C69.339 38.82 68.699 38.22 68.699 37.44C68.699 36.64 69.339 36.04 70.139 36.04C70.939 36.04 71.579 36.64 71.579 37.44C71.579 38.22 70.939 38.82 70.139 38.82ZM74.3287 51V40.54H76.7487V42.2C77.2487 41.18 78.4087 40.32 80.1287 40.32C82.2287 40.32 83.7087 41.54 83.7087 44.42V51H81.2887V44.64C81.2887 43.06 80.6487 42.34 79.2087 42.34C77.8487 42.34 76.7487 43.18 76.7487 44.84V51H74.3287ZM90.4166 51.2C87.7966 51.2 85.8166 49.34 85.8166 45.94V45.78C85.8166 42.44 87.7966 40.32 90.5166 40.32C92.2166 40.32 93.2766 41.1 93.8566 42.14V35.7H96.2766V51H93.8566V49.24C93.2966 50.28 91.9566 51.2 90.4166 51.2ZM91.0166 49.28C92.6966 49.28 93.9366 48.16 93.9366 45.82V45.66C93.9366 43.36 92.8766 42.22 91.1166 42.22C89.3366 42.22 88.2966 43.46 88.2966 45.72V45.88C88.2966 48.18 89.4566 49.28 91.0166 49.28ZM99.2129 51V35.7H101.633V51H99.2129ZM105.743 54.58L107.643 49.94L103.503 40.54H106.123L108.903 47.28L111.463 40.54H113.823L108.123 54.58H105.743ZM125.463 51.2C121.563 51.2 119.923 49.26 119.723 46.56H122.283C122.463 48 123.043 49.2 125.463 49.2C127.043 49.2 128.163 48.32 128.163 47C128.163 45.68 127.503 45.18 125.183 44.8C121.763 44.34 120.143 43.3 120.143 40.62C120.143 38.28 122.143 36.52 125.123 36.52C128.203 36.52 130.043 37.92 130.323 40.66H127.883C127.623 39.16 126.763 38.52 125.123 38.52C123.503 38.52 122.663 39.3 122.663 40.4C122.663 41.56 123.143 42.14 125.623 42.5C128.983 42.96 130.723 43.92 130.723 46.78C130.723 49.26 128.623 51.2 125.463 51.2ZM133.098 51V35.7H135.518V42.2C136.018 41.18 137.178 40.32 138.898 40.32C140.998 40.32 142.478 41.54 142.478 44.42V51H140.058V44.64C140.058 43.06 139.418 42.34 137.978 42.34C136.618 42.34 135.518 43.18 135.518 44.84V51H133.098ZM148.006 51.2C146.086 51.2 144.506 50.28 144.506 48.1C144.506 45.66 146.866 44.78 149.866 44.78H151.166V44.24C151.166 42.84 150.686 42.14 149.266 42.14C148.006 42.14 147.386 42.74 147.266 43.78H144.926C145.126 41.34 147.066 40.32 149.406 40.32C151.746 40.32 153.586 41.28 153.586 44.14V51H151.206V49.72C150.526 50.62 149.606 51.2 148.006 51.2ZM148.586 49.46C150.066 49.46 151.166 48.68 151.166 47.34V46.3H149.926C148.086 46.3 146.906 46.72 146.906 48C146.906 48.88 147.386 49.46 148.586 49.46ZM156.36 51V40.54H158.78V42.5C159.44 41.18 160.42 40.4 162.18 40.38V42.64C160.06 42.66 158.78 43.34 158.78 45.56V51H156.36ZM168.714 51.2C165.634 51.2 163.414 49.18 163.414 45.88V45.72C163.414 42.48 165.634 40.32 168.614 40.32C171.214 40.32 173.554 41.86 173.554 45.6V46.3H165.894C165.974 48.28 166.974 49.4 168.774 49.4C170.234 49.4 170.994 48.82 171.174 47.8H173.514C173.174 50 171.394 51.2 168.714 51.2ZM165.934 44.68H171.154C171.034 42.88 170.114 42.08 168.614 42.08C167.154 42.08 166.174 43.06 165.934 44.68ZM184.121 51V44.8L179.381 36.7H182.321L185.541 42.62L188.681 36.7H191.281L186.801 44.82V51H184.121ZM196.138 49.32C197.938 49.32 199.018 47.98 199.018 45.84V45.7C199.018 43.54 197.938 42.22 196.138 42.22C194.338 42.22 193.238 43.52 193.238 45.68V45.84C193.238 47.98 194.298 49.32 196.138 49.32ZM196.118 51.2C193.038 51.2 190.758 49.06 190.758 45.88V45.72C190.758 42.48 193.058 40.32 196.138 40.32C199.198 40.32 201.498 42.46 201.498 45.66V45.82C201.498 49.08 199.198 51.2 196.118 51.2ZM207.184 51.2C205.124 51.2 203.584 50.02 203.584 47.24V40.54H206.004V46.96C206.004 48.54 206.664 49.26 208.064 49.26C209.364 49.26 210.504 48.42 210.504 46.76V40.54H212.924V51H210.504V49.36C209.984 50.38 208.884 51.2 207.184 51.2ZM215.794 51V40.54H218.214V42.5C218.874 41.18 219.854 40.4 221.614 40.38V42.64C219.494 42.66 218.214 43.34 218.214 45.56V51H215.794ZM232.348 51L227.528 36.7H230.308L234.028 48.3L237.768 36.7H240.268L235.428 51H232.348ZM244.002 51.2C242.082 51.2 240.502 50.28 240.502 48.1C240.502 45.66 242.862 44.78 245.862 44.78H247.162V44.24C247.162 42.84 246.682 42.14 245.262 42.14C244.002 42.14 243.382 42.74 243.262 43.78H240.922C241.122 41.34 243.062 40.32 245.402 40.32C247.742 40.32 249.582 41.28 249.582 44.14V51H247.202V49.72C246.522 50.62 245.602 51.2 244.002 51.2ZM244.582 49.46C246.062 49.46 247.162 48.68 247.162 47.34V46.3H245.922C244.082 46.3 242.902 46.72 242.902 48C242.902 48.88 243.382 49.46 244.582 49.46ZM252.416 51V35.7H254.836V51H252.416ZM261.286 51.2C259.226 51.2 257.686 50.02 257.686 47.24V40.54H260.106V46.96C260.106 48.54 260.766 49.26 262.166 49.26C263.466 49.26 264.606 48.42 264.606 46.76V40.54H267.026V51H264.606V49.36C264.086 50.38 262.986 51.2 261.286 51.2ZM272.635 51.2C270.715 51.2 269.135 50.28 269.135 48.1C269.135 45.66 271.495 44.78 274.495 44.78H275.795V44.24C275.795 42.84 275.315 42.14 273.895 42.14C272.635 42.14 272.015 42.74 271.895 43.78H269.555C269.755 41.34 271.695 40.32 274.035 40.32C276.375 40.32 278.215 41.28 278.215 44.14V51H275.835V49.72C275.155 50.62 274.235 51.2 272.635 51.2ZM273.215 49.46C274.695 49.46 275.795 48.68 275.795 47.34V46.3H274.555C272.715 46.3 271.535 46.72 271.535 48C271.535 48.88 272.015 49.46 273.215 49.46ZM286.829 51.2C285.169 51.2 283.969 50.38 283.409 49.32V51H280.989V35.7H283.409V42.22C283.989 41.22 285.289 40.32 286.829 40.32C289.449 40.32 291.469 42.26 291.469 45.64V45.8C291.469 49.16 289.529 51.2 286.829 51.2ZM286.229 49.28C288.009 49.28 288.989 48.08 288.989 45.84V45.68C288.989 43.36 287.789 42.22 286.209 42.22C284.529 42.22 283.329 43.36 283.329 45.68V45.84C283.329 48.18 284.469 49.28 286.229 49.28ZM293.705 51V35.7H296.125V51H293.705ZM303.675 51.2C300.595 51.2 298.375 49.18 298.375 45.88V45.72C298.375 42.48 300.595 40.32 303.575 40.32C306.175 40.32 308.515 41.86 308.515 45.6V46.3H300.855C300.935 48.28 301.935 49.4 303.735 49.4C305.195 49.4 305.955 48.82 306.135 47.8H308.475C308.135 50 306.355 51.2 303.675 51.2ZM300.895 44.68H306.115C305.995 42.88 305.075 42.08 303.575 42.08C302.115 42.08 301.135 43.06 300.895 44.68ZM315.642 51V36.7H324.502V38.82H318.302V43.08H323.182V45.14H318.302V51H315.642ZM330.706 51.2C327.626 51.2 325.406 49.18 325.406 45.88V45.72C325.406 42.48 327.626 40.32 330.606 40.32C333.206 40.32 335.546 41.86 335.546 45.6V46.3H327.886C327.966 48.28 328.966 49.4 330.766 49.4C332.226 49.4 332.986 48.82 333.166 47.8H335.506C335.166 50 333.386 51.2 330.706 51.2ZM327.926 44.68H333.146C333.026 42.88 332.106 42.08 330.606 42.08C329.146 42.08 328.166 43.06 327.926 44.68ZM342.308 51.2C339.228 51.2 337.008 49.18 337.008 45.88V45.72C337.008 42.48 339.228 40.32 342.208 40.32C344.808 40.32 347.148 41.86 347.148 45.6V46.3H339.488C339.568 48.28 340.568 49.4 342.368 49.4C343.828 49.4 344.588 48.82 344.768 47.8H347.108C346.768 50 344.988 51.2 342.308 51.2ZM339.528 44.68H344.748C344.628 42.88 343.708 42.08 342.208 42.08C340.748 42.08 339.768 43.06 339.528 44.68ZM353.229 51.2C350.609 51.2 348.629 49.34 348.629 45.94V45.78C348.629 42.44 350.609 40.32 353.329 40.32C355.029 40.32 356.089 41.1 356.669 42.14V35.7H359.089V51H356.669V49.24C356.109 50.28 354.769 51.2 353.229 51.2ZM353.829 49.28C355.509 49.28 356.749 48.16 356.749 45.82V45.66C356.749 43.36 355.689 42.22 353.929 42.22C352.149 42.22 351.109 43.46 351.109 45.72V45.88C351.109 48.18 352.269 49.28 353.829 49.28ZM367.805 51.2C366.145 51.2 364.945 50.38 364.385 49.32V51H361.965V35.7H364.385V42.22C364.965 41.22 366.265 40.32 367.805 40.32C370.425 40.32 372.445 42.26 372.445 45.64V45.8C372.445 49.16 370.505 51.2 367.805 51.2ZM367.205 49.28C368.985 49.28 369.965 48.08 369.965 45.84V45.68C369.965 43.36 368.765 42.22 367.185 42.22C365.505 42.22 364.305 43.36 364.305 45.68V45.84C364.305 48.18 365.445 49.28 367.205 49.28ZM377.362 51.2C375.442 51.2 373.862 50.28 373.862 48.1C373.862 45.66 376.222 44.78 379.222 44.78H380.522V44.24C380.522 42.84 380.042 42.14 378.622 42.14C377.362 42.14 376.742 42.74 376.622 43.78H374.282C374.482 41.34 376.422 40.32 378.762 40.32C381.102 40.32 382.942 41.28 382.942 44.14V51H380.562V49.72C379.882 50.62 378.962 51.2 377.362 51.2ZM377.942 49.46C379.422 49.46 380.522 48.68 380.522 47.34V46.3H379.282C377.442 46.3 376.262 46.72 376.262 48C376.262 48.88 376.742 49.46 377.942 49.46ZM390.295 51.2C387.295 51.2 385.015 49.24 385.015 45.9V45.74C385.015 42.42 387.375 40.32 390.295 40.32C392.615 40.32 394.795 41.36 395.075 44.24H392.735C392.535 42.84 391.615 42.26 390.335 42.26C388.675 42.26 387.495 43.54 387.495 45.7V45.86C387.495 48.14 388.615 49.34 390.395 49.34C391.675 49.34 392.775 48.58 392.915 47.1H395.135C394.955 49.5 393.135 51.2 390.295 51.2ZM397.219 51V35.7H399.639V45.14L403.379 40.54H406.019L401.959 45.34L406.359 51H403.559L399.639 45.86V51H397.219ZM414.386 51.14C413.506 51.14 412.786 50.46 412.786 49.6C412.786 48.72 413.506 48.04 414.386 48.04C415.286 48.04 416.006 48.72 416.006 49.6C416.006 50.46 415.286 51.14 414.386 51.14ZM413.426 46.7L413.066 36.7H415.766L415.386 46.7H413.426ZM420.479 51.14C419.599 51.14 418.879 50.46 418.879 49.6C418.879 48.72 419.599 48.04 420.479 48.04C421.379 48.04 422.099 48.72 422.099 49.6C422.099 50.46 421.379 51.14 420.479 51.14ZM419.519 46.7L419.159 36.7H421.859L421.479 46.7H419.519ZM426.573 51.14C425.693 51.14 424.973 50.46 424.973 49.6C424.973 48.72 425.693 48.04 426.573 48.04C427.473 48.04 428.193 48.72 428.193 49.6C428.193 50.46 427.473 51.14 426.573 51.14ZM425.613 46.7L425.253 36.7H427.953L427.573 46.7H425.613Z" fill="white"/>
<path d="M206.14 121.2C202.56 121.2 200.52 119.24 200.52 115.56V106.7H203.2V115.36C203.2 117.98 204.04 119.06 206.16 119.06C208.22 119.06 209.26 118.14 209.26 115.18V106.7H211.94V115.4C211.94 119.14 209.92 121.2 206.14 121.2ZM214.795 121V110.54H217.215V112.2C217.715 111.18 218.875 110.32 220.595 110.32C222.695 110.32 224.175 111.54 224.175 114.42V121H221.755V114.64C221.755 113.06 221.115 112.34 219.675 112.34C218.315 112.34 217.215 113.18 217.215 114.84V121H214.795ZM226.963 121V105.7H229.383V112.2C229.883 111.18 231.043 110.32 232.763 110.32C234.863 110.32 236.343 111.54 236.343 114.42V121H233.923V114.64C233.923 113.06 233.283 112.34 231.843 112.34C230.483 112.34 229.383 113.18 229.383 114.84V121H226.963ZM241.871 121.2C239.951 121.2 238.371 120.28 238.371 118.1C238.371 115.66 240.731 114.78 243.731 114.78H245.031V114.24C245.031 112.84 244.551 112.14 243.131 112.14C241.871 112.14 241.251 112.74 241.131 113.78H238.791C238.991 111.34 240.931 110.32 243.271 110.32C245.611 110.32 247.451 111.28 247.451 114.14V121H245.071V119.72C244.391 120.62 243.471 121.2 241.871 121.2ZM242.451 119.46C243.931 119.46 245.031 118.68 245.031 117.34V116.3H243.791C241.951 116.3 240.771 116.72 240.771 118C240.771 118.88 241.251 119.46 242.451 119.46ZM250.225 124.58V110.54H252.645V112.22C253.225 111.22 254.525 110.32 256.065 110.32C258.685 110.32 260.705 112.26 260.705 115.64V115.8C260.705 119.16 258.765 121.2 256.065 121.2C254.405 121.2 253.205 120.38 252.645 119.36V124.58H250.225ZM255.465 119.28C257.245 119.28 258.225 118.08 258.225 115.84V115.68C258.225 113.36 257.025 112.22 255.445 112.22C253.765 112.22 252.565 113.36 252.565 115.68V115.84C252.565 118.18 253.705 119.28 255.465 119.28ZM262.881 124.58V110.54H265.301V112.22C265.881 111.22 267.181 110.32 268.721 110.32C271.341 110.32 273.361 112.26 273.361 115.64V115.8C273.361 119.16 271.421 121.2 268.721 121.2C267.061 121.2 265.861 120.38 265.301 119.36V124.58H262.881ZM268.121 119.28C269.901 119.28 270.881 118.08 270.881 115.84V115.68C270.881 113.36 269.681 112.22 268.101 112.22C266.421 112.22 265.221 113.36 265.221 115.68V115.84C265.221 118.18 266.361 119.28 268.121 119.28ZM276.405 124.58L278.305 119.94L274.165 110.54H276.785L279.565 117.28L282.125 110.54H284.485L278.785 124.58H276.405Z" fill="white"/>
<path d="M197.745 307.519C222.541 307.519 242.641 284.622 242.641 256.378C242.641 228.133 222.541 205.236 197.745 205.236C172.949 205.236 152.849 228.133 152.849 256.378C152.849 284.622 172.949 307.519 197.745 307.519Z" fill="#9B9A9A"/>
<path d="M240.884 248.511C241.677 220.104 223.154 196.319 199.511 195.384C175.869 194.449 156.06 216.72 155.267 245.126C154.474 273.533 172.997 297.318 196.64 298.253C220.282 299.188 240.091 276.917 240.884 248.511Z" fill="#DDDDDD"/>
<path d="M227.181 213.75C234.481 223.123 238.303 235.355 237.945 248.193C237.595 260.751 233.259 272.471 225.737 281.195C218.24 289.888 208.39 294.676 198.002 294.676C197.552 294.676 197.114 294.667 196.663 294.649C186.001 294.228 176.114 288.84 168.824 279.48C168.824 279.48 197 302.293 220.424 278.132C243.306 254.532 227.181 213.75 227.181 213.75Z" fill="#C6C6C6"/>
<path d="M199.553 195.342C175.91 194.408 156.1 216.68 155.308 245.087C155.192 249.228 155.49 253.27 156.151 257.158C163.007 269.64 174.628 278.069 188.018 278.598C209.958 279.465 228.339 258.798 229.074 232.438C229.363 222.087 226.887 212.398 222.445 204.394C215.921 198.98 208.069 195.679 199.553 195.342Z" fill="#EBEBEB"/>
<path d="M222.778 263.103C223.218 247.323 212.928 234.11 199.795 233.591C186.661 233.072 175.657 245.443 175.216 261.223C174.776 277.003 185.066 290.216 198.199 290.735C211.333 291.254 222.337 278.883 222.778 263.103Z" fill="#2E7BAB"/>
<path d="M214.09 262.749C214.37 252.726 207.834 244.334 199.492 244.004C191.15 243.674 184.16 251.532 183.881 261.555C183.601 271.578 190.137 279.97 198.479 280.3C206.821 280.63 213.811 272.772 214.09 262.749Z" fill="#310003"/>
<path opacity="0.53" d="M221.417 265.236C221.985 261.075 219.61 257.154 216.114 256.479C212.617 255.804 209.322 258.629 208.755 262.791C208.188 266.952 210.562 270.873 214.059 271.548C217.555 272.223 220.85 269.397 221.417 265.236Z" fill="white"/>
<path d="M149 248.745C149 248.745 210.572 255.615 235.586 216.686C235.586 216.686 220.158 177.637 181.71 193.787C149 207.526 149 248.745 149 248.745Z" fill="#B48EBC"/>
<path d="M286.256 307.519C311.051 307.519 331.152 284.622 331.152 256.378C331.152 228.133 311.051 205.236 286.256 205.236C261.46 205.236 241.359 228.133 241.359 256.378C241.359 284.622 261.46 307.519 286.256 307.519Z" fill="#9B9A9A"/>
<path d="M287.293 298.133C310.935 297.198 329.458 273.412 328.665 245.006C327.872 216.599 308.064 194.329 284.421 195.264C260.779 196.198 242.256 219.984 243.049 248.391C243.842 276.797 263.651 299.067 287.293 298.133Z" fill="#DDDDDD"/>
<path d="M314.011 213.75C321.31 223.123 325.132 235.355 324.774 248.193C324.424 260.751 320.088 272.471 312.566 281.195C305.069 289.888 295.219 294.676 284.831 294.676C284.381 294.676 283.943 294.667 283.492 294.649C272.83 294.228 262.943 288.84 255.653 279.48C255.653 279.48 283.829 302.293 307.253 278.132C330.136 254.532 314.011 213.75 314.011 213.75Z" fill="#C6C6C6"/>
<path d="M284.447 195.342C308.09 194.408 327.899 216.68 328.692 245.087C328.808 249.228 328.51 253.27 327.848 257.158C320.993 269.64 309.372 278.069 295.981 278.598C274.042 279.465 255.661 258.798 254.925 232.438C254.636 222.087 257.113 212.398 261.554 204.394C268.079 198.98 275.93 195.679 284.447 195.342Z" fill="#EBEBEB"/>
<path d="M285.748 290.609C298.881 290.09 309.171 276.877 308.731 261.097C308.29 245.317 297.286 232.946 284.153 233.465C271.019 233.984 260.729 247.197 261.17 262.977C261.61 278.757 272.614 291.129 285.748 290.609Z" fill="#2E7BAB"/>
<path d="M285.45 280.198C293.792 279.869 300.328 271.476 300.048 261.453C299.769 251.43 292.779 243.572 284.437 243.902C276.095 244.232 269.559 252.624 269.839 262.647C270.118 272.67 277.108 280.528 285.45 280.198Z" fill="#310003"/>
<path opacity="0.53" d="M305.907 271.535C309.404 270.86 311.779 266.939 311.211 262.777C310.644 258.616 307.349 255.79 303.852 256.466C300.356 257.141 297.982 261.062 298.549 265.223C299.116 269.384 302.411 272.21 305.907 271.535Z" fill="white"/>
<path d="M335 248.745C335 248.745 273.428 255.615 248.414 216.686C248.414 216.686 263.842 177.637 302.29 193.787C335 207.526 335 248.745 335 248.745Z" fill="#B48EBC"/>
<path d="M320.206 182.661C317.569 166.847 293.684 145.095 277.569 142.328C261.455 139.56 260.373 155.157 270.821 157.072C281.268 158.986 294.725 162.382 304.105 168.932C313.484 175.483 320.206 182.661 320.206 182.661Z" fill="#5E2222"/>
<path d="M165.886 182.661C168.523 166.847 192.408 145.095 208.523 142.328C224.637 139.56 225.718 155.157 215.271 157.072C204.823 158.986 191.367 162.382 181.987 168.932C172.608 175.483 165.886 182.661 165.886 182.661Z" fill="#5E2222"/>
<path d="M199.669 354.127C199.669 354.127 209.931 315.198 240.717 315.198C271.503 315.198 281.765 354.127 281.765 354.127C281.765 354.127 243.283 342.677 199.669 354.127Z" fill="#E0313A"/>
<path d="M284.629 357.337L281.299 356.348C280.918 356.235 242.718 345.171 200.084 356.363L196.839 357.214L197.833 353.441C197.943 353.027 200.58 343.195 207.135 333.249C215.905 319.941 227.517 312.907 240.717 312.907C253.918 312.907 265.53 319.941 274.3 333.249C280.855 343.195 283.493 353.027 283.602 353.441L284.629 357.337ZM240.718 317.488C228.611 317.488 218.356 323.703 210.238 335.961C206.474 341.645 204.057 347.392 202.742 351.021C237.322 342.841 268.441 348.611 278.687 351.002C277.37 347.373 274.955 341.636 271.197 335.961C263.079 323.703 252.825 317.488 240.718 317.488Z" fill="#890E0F"/>
<path d="M240.838 318.183C231.4 318.183 224.265 322.547 219.008 328.083C223.391 331.235 236.248 337.351 263.919 329.46C258.561 323.288 251.046 318.183 240.838 318.183Z" fill="white"/>
<path d="M220.159 370.89C220.742 368.685 221.803 366.666 223.112 364.885C224.43 363.108 226.026 361.6 227.769 360.386C231.271 357.97 235.347 356.76 239.4 356.775C243.452 356.777 247.527 358.008 251.019 360.445C252.758 361.668 254.348 363.185 255.658 364.972C256.96 366.762 258.011 368.789 258.582 371C255.443 368.334 252.364 366.522 249.147 365.365C245.947 364.202 242.668 363.667 239.386 363.643C236.104 363.641 232.82 364.155 229.615 365.301C226.391 366.438 223.304 368.237 220.159 370.89Z" fill="#5E2222"/>
<path d="M149 248.745C153.004 248.975 156.938 249.006 160.854 248.872C164.765 248.744 168.645 248.469 172.49 247.99C180.182 247.057 187.723 245.324 195.048 242.791C196.866 242.109 198.698 241.471 200.48 240.666L201.832 240.111C202.284 239.93 202.72 239.7 203.165 239.497L205.826 238.244C209.341 236.478 212.785 234.5 216.167 232.322C222.918 227.923 229.256 222.554 235.586 216.687C233.398 220.677 230.912 224.487 228.074 227.916C225.296 231.431 222.143 234.508 218.862 237.395L216.333 239.451C215.497 240.155 214.596 240.728 213.723 241.365C211.989 242.667 210.141 243.717 208.323 244.846C207.402 245.379 206.456 245.847 205.521 246.347C205.051 246.587 204.589 246.854 204.11 247.072L202.678 247.736C200.772 248.638 198.814 249.355 196.865 250.109C188.997 252.827 180.812 254.136 172.695 253.965C168.636 253.872 164.594 253.425 160.618 252.593C158.63 252.181 156.658 251.666 154.714 251.039C152.772 250.418 150.85 249.684 149 248.745Z" fill="#3D1C39"/>
<path d="M248.413 216.687C255.042 221.969 261.7 226.802 268.532 231.147C275.355 235.486 282.342 239.307 289.544 242.292C293.133 243.825 296.787 245.109 300.486 246.149C302.326 246.743 304.201 247.093 306.064 247.584L308.884 248.119C309.823 248.339 310.771 248.44 311.718 248.579C319.311 249.78 327.03 249.576 334.999 248.746C334.089 249.233 333.16 249.666 332.232 250.13L330.828 250.79C330.354 250.984 329.873 251.15 329.394 251.331C328.436 251.693 327.467 252.027 326.496 252.372L323.539 253.156C323.044 253.282 322.547 253.412 322.049 253.517L320.546 253.78C319.542 253.944 318.534 254.131 317.522 254.245C315.498 254.421 313.458 254.626 311.42 254.57C309.375 254.625 307.343 254.415 305.301 254.253C303.275 253.976 301.238 253.705 299.236 253.234C297.215 252.846 295.244 252.218 293.255 251.663C291.3 250.977 289.336 250.314 287.42 249.492C279.726 246.294 272.497 241.733 265.895 236.239C262.598 233.48 259.454 230.484 256.505 227.244C255.039 225.613 253.605 223.947 252.251 222.187C250.891 220.438 249.587 218.62 248.413 216.687Z" fill="#3D1C39"/>
<path d="M154.28 396.313L157.1 401.991C157.48 402.777 158.5 403.522 159.361 403.683L164.461 404.528C167.721 405.072 168.481 407.448 166.141 409.824L162.161 413.831C161.501 414.495 161.121 415.804 161.341 416.751L162.481 421.704C163.381 425.61 161.301 427.14 157.88 425.087L153.1 422.227C152.24 421.704 150.8 421.704 149.94 422.227L145.16 425.087C141.739 427.12 139.659 425.61 140.559 421.704L141.699 416.751C141.879 415.784 141.499 414.475 140.839 413.811L136.859 409.804C134.519 407.448 135.279 405.072 138.539 404.508L143.639 403.663C144.5 403.522 145.52 402.756 145.9 401.971L148.72 396.293C150.26 393.232 152.74 393.232 154.28 396.313Z" fill="#A3A3A3"/>
<path d="M199.28 396.313L202.1 401.991C202.48 402.777 203.5 403.522 204.361 403.683L209.461 404.528C212.721 405.072 213.481 407.448 211.141 409.824L207.161 413.831C206.501 414.495 206.121 415.804 206.341 416.751L207.481 421.704C208.381 425.61 206.301 427.14 202.88 425.087L198.1 422.227C197.24 421.704 195.8 421.704 194.94 422.227L190.16 425.087C186.739 427.12 184.659 425.61 185.559 421.704L186.699 416.751C186.879 415.784 186.499 414.475 185.839 413.811L181.859 409.804C179.519 407.448 180.279 405.072 183.539 404.508L188.639 403.663C189.5 403.522 190.52 402.756 190.9 401.971L193.72 396.293C195.26 393.232 197.74 393.232 199.28 396.313Z" fill="#A3A3A3"/>
<path d="M244.28 396.313L247.1 401.991C247.48 402.777 248.5 403.522 249.361 403.683L254.461 404.528C257.721 405.072 258.481 407.448 256.141 409.824L252.161 413.831C251.501 414.495 251.121 415.804 251.341 416.751L252.481 421.704C253.381 425.61 251.301 427.14 247.88 425.087L243.1 422.227C242.24 421.704 240.8 421.704 239.94 422.227L235.16 425.087C231.739 427.12 229.659 425.61 230.559 421.704L231.699 416.751C231.879 415.784 231.499 414.475 230.839 413.811L226.859 409.804C224.519 407.448 225.279 405.072 228.539 404.508L233.639 403.663C234.5 403.522 235.52 402.756 235.9 401.971L238.72 396.293C240.26 393.232 242.74 393.232 244.28 396.313Z" fill="#A3A3A3"/>
<path d="M289.28 396.313L292.1 401.991C292.48 402.777 293.5 403.522 294.361 403.683L299.461 404.528C302.721 405.072 303.481 407.448 301.141 409.824L297.161 413.831C296.501 414.495 296.121 415.804 296.341 416.751L297.481 421.704C298.381 425.61 296.301 427.14 292.88 425.087L288.1 422.227C287.24 421.704 285.8 421.704 284.94 422.227L280.16 425.087C276.739 427.12 274.659 425.61 275.559 421.704L276.699 416.751C276.879 415.784 276.499 414.475 275.839 413.811L271.859 409.804C269.519 407.448 270.279 405.072 273.539 404.508L278.639 403.663C279.5 403.522 280.52 402.756 280.9 401.971L283.72 396.293C285.26 393.232 287.74 393.232 289.28 396.313Z" fill="#A3A3A3"/>
<path d="M334.28 396.313L337.1 401.991C337.48 402.777 338.5 403.522 339.361 403.683L344.461 404.528C347.721 405.072 348.481 407.448 346.141 409.824L342.161 413.831C341.501 414.495 341.121 415.804 341.341 416.751L342.481 421.704C343.381 425.61 341.301 427.14 337.88 425.087L333.1 422.227C332.24 421.704 330.8 421.704 329.94 422.227L325.16 425.087C321.739 427.12 319.659 425.61 320.559 421.704L321.699 416.751C321.879 415.784 321.499 414.475 320.839 413.811L316.859 409.804C314.519 407.448 315.279 405.072 318.539 404.508L323.639 403.663C324.5 403.522 325.52 402.756 325.9 401.971L328.72 396.293C330.26 393.232 332.74 393.232 334.28 396.313Z" fill="#E6393E"/>
</g>
<defs>
<linearGradient id="paint0_linear_68935_218542" x1="-325.149" y1="106.774" x2="775.641" y2="106.774" gradientUnits="userSpaceOnUse">
<stop stop-color="#4776E6"/>
<stop offset="1" stop-color="#8E54E9"/>
</linearGradient>
<clipPath id="clip0_68935_218542">
<rect width="484" height="465" fill="white"/>
</clipPath>
</defs>
</svg>
