<svg width="484" height="465" viewBox="0 0 484 465" fill="none" xmlns="http://www.w3.org/2000/svg">
<g clip-path="url(#clip0_68935_218017)">
<path d="M238.341 464.947C631.277 469.554 915.445 172.033 703.246 -57.9026C473.361 -307.002 -30.6974 -320.876 -254.541 -69.1315C-467.843 170.757 -167.294 460.192 238.341 464.947Z" fill="url(#paint0_linear_68935_218017)"/>
<path d="M56.013 51V36.7H58.673V43.18L64.153 36.68H67.013L61.093 43.52L67.313 51H64.173L58.673 44.32V51H56.013ZM68.959 51V40.54H71.379V51H68.959ZM70.139 38.82C69.339 38.82 68.699 38.22 68.699 37.44C68.699 36.64 69.339 36.04 70.139 36.04C70.939 36.04 71.579 36.64 71.579 37.44C71.579 38.22 70.939 38.82 70.139 38.82ZM74.3287 51V40.54H76.7487V42.2C77.2487 41.18 78.4087 40.32 80.1287 40.32C82.2287 40.32 83.7087 41.54 83.7087 44.42V51H81.2887V44.64C81.2887 43.06 80.6487 42.34 79.2087 42.34C77.8487 42.34 76.7487 43.18 76.7487 44.84V51H74.3287ZM90.4166 51.2C87.7966 51.2 85.8166 49.34 85.8166 45.94V45.78C85.8166 42.44 87.7966 40.32 90.5166 40.32C92.2166 40.32 93.2766 41.1 93.8566 42.14V35.7H96.2766V51H93.8566V49.24C93.2966 50.28 91.9566 51.2 90.4166 51.2ZM91.0166 49.28C92.6966 49.28 93.9366 48.16 93.9366 45.82V45.66C93.9366 43.36 92.8766 42.22 91.1166 42.22C89.3366 42.22 88.2966 43.46 88.2966 45.72V45.88C88.2966 48.18 89.4566 49.28 91.0166 49.28ZM99.2129 51V35.7H101.633V51H99.2129ZM105.743 54.58L107.643 49.94L103.503 40.54H106.123L108.903 47.28L111.463 40.54H113.823L108.123 54.58H105.743ZM125.463 51.2C121.563 51.2 119.923 49.26 119.723 46.56H122.283C122.463 48 123.043 49.2 125.463 49.2C127.043 49.2 128.163 48.32 128.163 47C128.163 45.68 127.503 45.18 125.183 44.8C121.763 44.34 120.143 43.3 120.143 40.62C120.143 38.28 122.143 36.52 125.123 36.52C128.203 36.52 130.043 37.92 130.323 40.66H127.883C127.623 39.16 126.763 38.52 125.123 38.52C123.503 38.52 122.663 39.3 122.663 40.4C122.663 41.56 123.143 42.14 125.623 42.5C128.983 42.96 130.723 43.92 130.723 46.78C130.723 49.26 128.623 51.2 125.463 51.2ZM133.098 51V35.7H135.518V42.2C136.018 41.18 137.178 40.32 138.898 40.32C140.998 40.32 142.478 41.54 142.478 44.42V51H140.058V44.64C140.058 43.06 139.418 42.34 137.978 42.34C136.618 42.34 135.518 43.18 135.518 44.84V51H133.098ZM148.006 51.2C146.086 51.2 144.506 50.28 144.506 48.1C144.506 45.66 146.866 44.78 149.866 44.78H151.166V44.24C151.166 42.84 150.686 42.14 149.266 42.14C148.006 42.14 147.386 42.74 147.266 43.78H144.926C145.126 41.34 147.066 40.32 149.406 40.32C151.746 40.32 153.586 41.28 153.586 44.14V51H151.206V49.72C150.526 50.62 149.606 51.2 148.006 51.2ZM148.586 49.46C150.066 49.46 151.166 48.68 151.166 47.34V46.3H149.926C148.086 46.3 146.906 46.72 146.906 48C146.906 48.88 147.386 49.46 148.586 49.46ZM156.36 51V40.54H158.78V42.5C159.44 41.18 160.42 40.4 162.18 40.38V42.64C160.06 42.66 158.78 43.34 158.78 45.56V51H156.36ZM168.714 51.2C165.634 51.2 163.414 49.18 163.414 45.88V45.72C163.414 42.48 165.634 40.32 168.614 40.32C171.214 40.32 173.554 41.86 173.554 45.6V46.3H165.894C165.974 48.28 166.974 49.4 168.774 49.4C170.234 49.4 170.994 48.82 171.174 47.8H173.514C173.174 50 171.394 51.2 168.714 51.2ZM165.934 44.68H171.154C171.034 42.88 170.114 42.08 168.614 42.08C167.154 42.08 166.174 43.06 165.934 44.68ZM184.121 51V44.8L179.381 36.7H182.321L185.541 42.62L188.681 36.7H191.281L186.801 44.82V51H184.121ZM196.138 49.32C197.938 49.32 199.018 47.98 199.018 45.84V45.7C199.018 43.54 197.938 42.22 196.138 42.22C194.338 42.22 193.238 43.52 193.238 45.68V45.84C193.238 47.98 194.298 49.32 196.138 49.32ZM196.118 51.2C193.038 51.2 190.758 49.06 190.758 45.88V45.72C190.758 42.48 193.058 40.32 196.138 40.32C199.198 40.32 201.498 42.46 201.498 45.66V45.82C201.498 49.08 199.198 51.2 196.118 51.2ZM207.184 51.2C205.124 51.2 203.584 50.02 203.584 47.24V40.54H206.004V46.96C206.004 48.54 206.664 49.26 208.064 49.26C209.364 49.26 210.504 48.42 210.504 46.76V40.54H212.924V51H210.504V49.36C209.984 50.38 208.884 51.2 207.184 51.2ZM215.794 51V40.54H218.214V42.5C218.874 41.18 219.854 40.4 221.614 40.38V42.64C219.494 42.66 218.214 43.34 218.214 45.56V51H215.794ZM232.348 51L227.528 36.7H230.308L234.028 48.3L237.768 36.7H240.268L235.428 51H232.348ZM244.002 51.2C242.082 51.2 240.502 50.28 240.502 48.1C240.502 45.66 242.862 44.78 245.862 44.78H247.162V44.24C247.162 42.84 246.682 42.14 245.262 42.14C244.002 42.14 243.382 42.74 243.262 43.78H240.922C241.122 41.34 243.062 40.32 245.402 40.32C247.742 40.32 249.582 41.28 249.582 44.14V51H247.202V49.72C246.522 50.62 245.602 51.2 244.002 51.2ZM244.582 49.46C246.062 49.46 247.162 48.68 247.162 47.34V46.3H245.922C244.082 46.3 242.902 46.72 242.902 48C242.902 48.88 243.382 49.46 244.582 49.46ZM252.416 51V35.7H254.836V51H252.416ZM261.286 51.2C259.226 51.2 257.686 50.02 257.686 47.24V40.54H260.106V46.96C260.106 48.54 260.766 49.26 262.166 49.26C263.466 49.26 264.606 48.42 264.606 46.76V40.54H267.026V51H264.606V49.36C264.086 50.38 262.986 51.2 261.286 51.2ZM272.635 51.2C270.715 51.2 269.135 50.28 269.135 48.1C269.135 45.66 271.495 44.78 274.495 44.78H275.795V44.24C275.795 42.84 275.315 42.14 273.895 42.14C272.635 42.14 272.015 42.74 271.895 43.78H269.555C269.755 41.34 271.695 40.32 274.035 40.32C276.375 40.32 278.215 41.28 278.215 44.14V51H275.835V49.72C275.155 50.62 274.235 51.2 272.635 51.2ZM273.215 49.46C274.695 49.46 275.795 48.68 275.795 47.34V46.3H274.555C272.715 46.3 271.535 46.72 271.535 48C271.535 48.88 272.015 49.46 273.215 49.46ZM286.829 51.2C285.169 51.2 283.969 50.38 283.409 49.32V51H280.989V35.7H283.409V42.22C283.989 41.22 285.289 40.32 286.829 40.32C289.449 40.32 291.469 42.26 291.469 45.64V45.8C291.469 49.16 289.529 51.2 286.829 51.2ZM286.229 49.28C288.009 49.28 288.989 48.08 288.989 45.84V45.68C288.989 43.36 287.789 42.22 286.209 42.22C284.529 42.22 283.329 43.36 283.329 45.68V45.84C283.329 48.18 284.469 49.28 286.229 49.28ZM293.705 51V35.7H296.125V51H293.705ZM303.675 51.2C300.595 51.2 298.375 49.18 298.375 45.88V45.72C298.375 42.48 300.595 40.32 303.575 40.32C306.175 40.32 308.515 41.86 308.515 45.6V46.3H300.855C300.935 48.28 301.935 49.4 303.735 49.4C305.195 49.4 305.955 48.82 306.135 47.8H308.475C308.135 50 306.355 51.2 303.675 51.2ZM300.895 44.68H306.115C305.995 42.88 305.075 42.08 303.575 42.08C302.115 42.08 301.135 43.06 300.895 44.68ZM315.642 51V36.7H324.502V38.82H318.302V43.08H323.182V45.14H318.302V51H315.642ZM330.706 51.2C327.626 51.2 325.406 49.18 325.406 45.88V45.72C325.406 42.48 327.626 40.32 330.606 40.32C333.206 40.32 335.546 41.86 335.546 45.6V46.3H327.886C327.966 48.28 328.966 49.4 330.766 49.4C332.226 49.4 332.986 48.82 333.166 47.8H335.506C335.166 50 333.386 51.2 330.706 51.2ZM327.926 44.68H333.146C333.026 42.88 332.106 42.08 330.606 42.08C329.146 42.08 328.166 43.06 327.926 44.68ZM342.308 51.2C339.228 51.2 337.008 49.18 337.008 45.88V45.72C337.008 42.48 339.228 40.32 342.208 40.32C344.808 40.32 347.148 41.86 347.148 45.6V46.3H339.488C339.568 48.28 340.568 49.4 342.368 49.4C343.828 49.4 344.588 48.82 344.768 47.8H347.108C346.768 50 344.988 51.2 342.308 51.2ZM339.528 44.68H344.748C344.628 42.88 343.708 42.08 342.208 42.08C340.748 42.08 339.768 43.06 339.528 44.68ZM353.229 51.2C350.609 51.2 348.629 49.34 348.629 45.94V45.78C348.629 42.44 350.609 40.32 353.329 40.32C355.029 40.32 356.089 41.1 356.669 42.14V35.7H359.089V51H356.669V49.24C356.109 50.28 354.769 51.2 353.229 51.2ZM353.829 49.28C355.509 49.28 356.749 48.16 356.749 45.82V45.66C356.749 43.36 355.689 42.22 353.929 42.22C352.149 42.22 351.109 43.46 351.109 45.72V45.88C351.109 48.18 352.269 49.28 353.829 49.28ZM367.805 51.2C366.145 51.2 364.945 50.38 364.385 49.32V51H361.965V35.7H364.385V42.22C364.965 41.22 366.265 40.32 367.805 40.32C370.425 40.32 372.445 42.26 372.445 45.64V45.8C372.445 49.16 370.505 51.2 367.805 51.2ZM367.205 49.28C368.985 49.28 369.965 48.08 369.965 45.84V45.68C369.965 43.36 368.765 42.22 367.185 42.22C365.505 42.22 364.305 43.36 364.305 45.68V45.84C364.305 48.18 365.445 49.28 367.205 49.28ZM377.362 51.2C375.442 51.2 373.862 50.28 373.862 48.1C373.862 45.66 376.222 44.78 379.222 44.78H380.522V44.24C380.522 42.84 380.042 42.14 378.622 42.14C377.362 42.14 376.742 42.74 376.622 43.78H374.282C374.482 41.34 376.422 40.32 378.762 40.32C381.102 40.32 382.942 41.28 382.942 44.14V51H380.562V49.72C379.882 50.62 378.962 51.2 377.362 51.2ZM377.942 49.46C379.422 49.46 380.522 48.68 380.522 47.34V46.3H379.282C377.442 46.3 376.262 46.72 376.262 48C376.262 48.88 376.742 49.46 377.942 49.46ZM390.295 51.2C387.295 51.2 385.015 49.24 385.015 45.9V45.74C385.015 42.42 387.375 40.32 390.295 40.32C392.615 40.32 394.795 41.36 395.075 44.24H392.735C392.535 42.84 391.615 42.26 390.335 42.26C388.675 42.26 387.495 43.54 387.495 45.7V45.86C387.495 48.14 388.615 49.34 390.395 49.34C391.675 49.34 392.775 48.58 392.915 47.1H395.135C394.955 49.5 393.135 51.2 390.295 51.2ZM397.219 51V35.7H399.639V45.14L403.379 40.54H406.019L401.959 45.34L406.359 51H403.559L399.639 45.86V51H397.219ZM414.386 51.14C413.506 51.14 412.786 50.46 412.786 49.6C412.786 48.72 413.506 48.04 414.386 48.04C415.286 48.04 416.006 48.72 416.006 49.6C416.006 50.46 415.286 51.14 414.386 51.14ZM413.426 46.7L413.066 36.7H415.766L415.386 46.7H413.426ZM420.479 51.14C419.599 51.14 418.879 50.46 418.879 49.6C418.879 48.72 419.599 48.04 420.479 48.04C421.379 48.04 422.099 48.72 422.099 49.6C422.099 50.46 421.379 51.14 420.479 51.14ZM419.519 46.7L419.159 36.7H421.859L421.479 46.7H419.519ZM426.573 51.14C425.693 51.14 424.973 50.46 424.973 49.6C424.973 48.72 425.693 48.04 426.573 48.04C427.473 48.04 428.193 48.72 428.193 49.6C428.193 50.46 427.473 51.14 426.573 51.14ZM425.613 46.7L425.253 36.7H427.953L427.573 46.7H425.613Z" fill="white"/>
<path d="M212.14 121V106.7H214.8V112.78H221.22V106.7H223.9V121H221.22V114.92H214.8V121H212.14ZM229.602 121.2C227.682 121.2 226.102 120.28 226.102 118.1C226.102 115.66 228.462 114.78 231.462 114.78H232.762V114.24C232.762 112.84 232.282 112.14 230.862 112.14C229.602 112.14 228.982 112.74 228.862 113.78H226.522C226.722 111.34 228.662 110.32 231.002 110.32C233.342 110.32 235.182 111.28 235.182 114.14V121H232.802V119.72C232.122 120.62 231.202 121.2 229.602 121.2ZM230.182 119.46C231.662 119.46 232.762 118.68 232.762 117.34V116.3H231.522C229.682 116.3 228.502 116.72 228.502 118C228.502 118.88 228.982 119.46 230.182 119.46ZM237.956 124.58V110.54H240.376V112.22C240.956 111.22 242.256 110.32 243.796 110.32C246.416 110.32 248.436 112.26 248.436 115.64V115.8C248.436 119.16 246.496 121.2 243.796 121.2C242.136 121.2 240.936 120.38 240.376 119.36V124.58H237.956ZM243.196 119.28C244.976 119.28 245.956 118.08 245.956 115.84V115.68C245.956 113.36 244.756 112.22 243.176 112.22C241.496 112.22 240.296 113.36 240.296 115.68V115.84C240.296 118.18 241.436 119.28 243.196 119.28ZM250.612 124.58V110.54H253.032V112.22C253.612 111.22 254.912 110.32 256.452 110.32C259.072 110.32 261.092 112.26 261.092 115.64V115.8C261.092 119.16 259.152 121.2 256.452 121.2C254.792 121.2 253.592 120.38 253.032 119.36V124.58H250.612ZM255.852 119.28C257.632 119.28 258.612 118.08 258.612 115.84V115.68C258.612 113.36 257.412 112.22 255.832 112.22C254.152 112.22 252.952 113.36 252.952 115.68V115.84C252.952 118.18 254.092 119.28 255.852 119.28ZM264.135 124.58L266.035 119.94L261.895 110.54H264.515L267.295 117.28L269.855 110.54H272.215L266.515 124.58H264.135Z" fill="white"/>
<path d="M288.166 294.66C314.032 294.66 335 270.289 335 240.226C335 210.163 314.032 185.792 288.166 185.792C262.3 185.792 241.331 210.163 241.331 240.226C241.331 270.289 262.3 294.66 288.166 294.66Z" fill="#9B9A9A"/>
<path d="M333.209 236.19C334.036 208.054 314.714 184.495 290.051 183.569C265.388 182.643 244.724 204.701 243.897 232.837C243.07 260.973 262.393 284.532 287.056 285.458C311.718 286.383 332.382 264.325 333.209 236.19Z" fill="#DDDDDD"/>
<path d="M318.872 201.784C326.487 211.068 330.474 223.183 330.101 235.899C329.735 248.337 325.213 259.946 317.365 268.586C309.545 277.196 299.27 281.938 288.433 281.938C287.964 281.938 287.507 281.93 287.036 281.912C275.914 281.495 265.601 276.159 257.996 266.888C257.996 266.888 287.388 289.483 311.824 265.553C335.694 242.178 318.872 201.784 318.872 201.784Z" fill="#C6C6C6"/>
<path d="M290.053 183.552C265.389 182.626 244.725 204.686 243.898 232.823C243.777 236.924 244.087 240.927 244.778 244.778C251.929 257.141 264.052 265.49 278.02 266.014C300.907 266.873 320.081 246.403 320.848 220.295C321.15 210.042 318.566 200.445 313.933 192.517C307.127 187.155 298.937 183.885 290.053 183.552Z" fill="#EBEBEB"/>
<path d="M312.293 232.478C312.754 216.849 302.021 203.76 288.321 203.244C274.62 202.729 263.14 214.981 262.679 230.61C262.218 246.24 272.951 259.328 286.652 259.844C300.352 260.36 311.833 248.108 312.293 232.478Z" fill="#2E7BAB"/>
<path d="M303.257 232.114C303.549 222.186 296.731 213.872 288.027 213.545C279.324 213.219 272.032 221.003 271.74 230.931C271.449 240.86 278.267 249.173 286.97 249.5C295.674 249.826 302.966 242.043 303.257 232.114Z" fill="#310003"/>
<path opacity="0.44" d="M281.953 214.528C282.201 206.058 276.383 198.967 268.959 198.689C261.535 198.411 255.315 205.052 255.067 213.522C254.818 221.991 260.636 229.083 268.06 229.36C275.484 229.638 281.704 222.998 281.953 214.528Z" fill="white"/>
<path opacity="0.53" d="M306.231 259.127C309.926 259.127 312.921 255.743 312.921 251.567C312.921 247.392 309.926 244.007 306.231 244.007C302.536 244.007 299.54 247.392 299.54 251.567C299.54 255.743 302.536 259.127 306.231 259.127Z" fill="white"/>
<path d="M195.835 294.66C221.701 294.66 242.669 270.289 242.669 240.226C242.669 210.163 221.701 185.792 195.835 185.792C169.969 185.792 149 210.163 149 240.226C149 270.289 169.969 294.66 195.835 294.66Z" fill="#9B9A9A"/>
<path d="M240.876 236.184C241.703 208.048 222.381 184.489 197.718 183.563C173.055 182.637 152.391 204.695 151.564 232.831C150.737 260.967 170.06 284.526 194.723 285.452C219.385 286.377 240.049 264.319 240.876 236.184Z" fill="#DDDDDD"/>
<path d="M226.541 201.784C234.156 211.068 238.143 223.183 237.77 235.899C237.404 248.337 232.881 259.946 225.034 268.586C217.214 277.196 206.939 281.938 196.102 281.938C195.633 281.938 195.176 281.93 194.705 281.912C183.583 281.495 173.27 276.159 165.665 266.888C165.665 266.888 195.057 289.483 219.493 265.553C243.362 242.178 226.541 201.784 226.541 201.784Z" fill="#C6C6C6"/>
<path d="M197.722 183.552C173.058 182.626 152.393 204.686 151.566 232.823C151.446 236.924 151.756 240.927 152.447 244.778C159.598 257.141 171.721 265.49 185.689 266.014C208.576 266.873 227.75 246.403 228.517 220.295C228.819 210.042 226.235 200.445 221.602 192.517C214.796 187.155 206.606 183.885 197.722 183.552Z" fill="#EBEBEB"/>
<path d="M219.958 232.473C220.419 216.844 209.686 203.755 195.986 203.24C182.285 202.724 170.805 214.976 170.344 230.605C169.883 246.235 180.616 259.323 194.317 259.839C208.017 260.355 219.498 248.103 219.958 232.473Z" fill="#2E7BAB"/>
<path d="M210.923 232.119C211.214 222.19 204.396 213.877 195.692 213.55C186.989 213.224 179.697 221.007 179.405 230.936C179.114 240.864 185.932 249.178 194.636 249.505C203.339 249.831 210.631 242.047 210.923 232.119Z" fill="#310003"/>
<path opacity="0.44" d="M189.62 214.533C189.868 206.063 184.05 198.972 176.626 198.694C169.202 198.416 162.982 205.057 162.734 213.527C162.485 221.996 168.303 229.088 175.727 229.365C183.151 229.643 189.371 223.002 189.62 214.533Z" fill="white"/>
<path opacity="0.53" d="M213.9 259.126C217.595 259.126 220.59 255.742 220.59 251.566C220.59 247.391 217.595 244.006 213.9 244.006C210.204 244.006 207.209 247.391 207.209 251.566C207.209 255.742 210.204 259.126 213.9 259.126Z" fill="white"/>
<path d="M214.734 151.969C214.734 151.969 200.582 136.347 180.624 144.215C160.667 152.082 161.999 177.681 161.999 177.681C161.999 177.681 172.389 146.46 214.734 151.969Z" fill="#5E2222"/>
<path d="M176.438 312.97C176.438 312.97 191.79 342.357 242.608 342.383C293.427 342.408 308.803 310.365 308.803 310.365C308.803 310.365 294.605 351.757 242.604 351.731C190.603 351.704 176.438 312.97 176.438 312.97Z" fill="#5E2222"/>
<path d="M228.42 359.736C228.42 359.736 231.71 366.034 242.599 366.039C253.489 366.045 256.784 359.179 256.784 359.179C256.784 359.179 253.74 371.005 242.598 371C231.454 370.994 228.42 359.736 228.42 359.736Z" fill="#5E2222"/>
<path d="M166.615 314.597C168.337 314.507 169.899 314.232 171.387 313.733C172.873 313.242 174.271 312.545 175.579 311.675C176.886 310.8 178.103 309.756 179.203 308.528C180.31 307.298 181.28 305.889 182.188 304.232C182.235 306.193 181.623 308.164 180.65 309.845C179.672 311.531 178.325 312.95 176.779 313.975C175.233 315.002 173.483 315.646 171.704 315.795C169.932 315.941 168.111 315.591 166.615 314.597Z" fill="#60290D"/>
<path d="M318.083 313.347C316.586 314.34 314.765 314.688 312.993 314.541C311.214 314.39 309.464 313.744 307.92 312.715C306.375 311.688 305.029 310.268 304.051 308.581C303.08 306.899 302.47 304.928 302.518 302.967C303.425 304.624 304.394 306.034 305.5 307.265C306.599 308.495 307.815 309.54 309.121 310.416C310.429 311.288 311.827 311.985 313.312 312.478C314.8 312.979 316.361 313.255 318.083 313.347Z" fill="#60290D"/>
<path d="M272.376 151.969C272.376 151.969 286.528 136.347 306.486 144.215C326.444 152.082 325.112 177.681 325.112 177.681C325.112 177.681 314.722 146.46 272.376 151.969Z" fill="#5E2222"/>
<path d="M154.28 396.313L157.1 401.991C157.48 402.777 158.5 403.522 159.361 403.683L164.461 404.528C167.721 405.072 168.481 407.448 166.141 409.824L162.161 413.831C161.501 414.495 161.121 415.804 161.341 416.751L162.481 421.704C163.381 425.61 161.301 427.14 157.88 425.087L153.1 422.227C152.24 421.704 150.8 421.704 149.94 422.227L145.16 425.087C141.739 427.12 139.659 425.61 140.559 421.704L141.699 416.751C141.879 415.784 141.499 414.475 140.839 413.811L136.859 409.804C134.519 407.448 135.279 405.072 138.539 404.508L143.639 403.663C144.5 403.522 145.52 402.756 145.9 401.971L148.72 396.293C150.26 393.232 152.74 393.232 154.28 396.313Z" fill="#A3A3A3"/>
<path d="M199.28 396.313L202.1 401.991C202.48 402.777 203.5 403.522 204.361 403.683L209.461 404.528C212.721 405.072 213.481 407.448 211.141 409.824L207.161 413.831C206.501 414.495 206.121 415.804 206.341 416.751L207.481 421.704C208.381 425.61 206.301 427.14 202.88 425.087L198.1 422.227C197.24 421.704 195.8 421.704 194.94 422.227L190.16 425.087C186.739 427.12 184.659 425.61 185.559 421.704L186.699 416.751C186.879 415.784 186.499 414.475 185.839 413.811L181.859 409.804C179.519 407.448 180.279 405.072 183.539 404.508L188.639 403.663C189.5 403.522 190.52 402.756 190.9 401.971L193.72 396.293C195.26 393.232 197.74 393.232 199.28 396.313Z" fill="#FFCE00"/>
<path d="M244.28 396.313L247.1 401.991C247.48 402.777 248.5 403.522 249.361 403.683L254.461 404.528C257.721 405.072 258.481 407.448 256.141 409.824L252.161 413.831C251.501 414.495 251.121 415.804 251.341 416.751L252.481 421.704C253.381 425.61 251.301 427.14 247.88 425.087L243.1 422.227C242.24 421.704 240.8 421.704 239.94 422.227L235.16 425.087C231.739 427.12 229.659 425.61 230.559 421.704L231.699 416.751C231.879 415.784 231.499 414.475 230.839 413.811L226.859 409.804C224.519 407.448 225.279 405.072 228.539 404.508L233.639 403.663C234.5 403.522 235.52 402.756 235.9 401.971L238.72 396.293C240.26 393.232 242.74 393.232 244.28 396.313Z" fill="#FFCE00"/>
<path d="M289.28 396.313L292.1 401.991C292.48 402.777 293.5 403.522 294.361 403.683L299.461 404.528C302.721 405.072 303.481 407.448 301.141 409.824L297.161 413.831C296.501 414.495 296.121 415.804 296.341 416.751L297.481 421.704C298.381 425.61 296.301 427.14 292.88 425.087L288.1 422.227C287.24 421.704 285.8 421.704 284.94 422.227L280.16 425.087C276.739 427.12 274.659 425.61 275.559 421.704L276.699 416.751C276.879 415.784 276.499 414.475 275.839 413.811L271.859 409.804C269.519 407.448 270.279 405.072 273.539 404.508L278.639 403.663C279.5 403.522 280.52 402.756 280.9 401.971L283.72 396.293C285.26 393.232 287.74 393.232 289.28 396.313Z" fill="#FFCE00"/>
<path d="M334.28 396.313L337.1 401.991C337.48 402.777 338.5 403.522 339.361 403.683L344.461 404.528C347.721 405.072 348.481 407.448 346.141 409.824L342.161 413.831C341.501 414.495 341.121 415.804 341.341 416.751L342.481 421.704C343.381 425.61 341.301 427.14 337.88 425.087L333.1 422.227C332.24 421.704 330.8 421.704 329.94 422.227L325.16 425.087C321.739 427.12 319.659 425.61 320.559 421.704L321.699 416.751C321.879 415.784 321.499 414.475 320.839 413.811L316.859 409.804C314.519 407.448 315.279 405.072 318.539 404.508L323.639 403.663C324.5 403.522 325.52 402.756 325.9 401.971L328.72 396.293C330.26 393.232 332.74 393.232 334.28 396.313Z" fill="#FFCE00"/>
</g>
<defs>
<linearGradient id="paint0_linear_68935_218017" x1="-325.149" y1="106.774" x2="775.641" y2="106.774" gradientUnits="userSpaceOnUse">
<stop stop-color="#4776E6"/>
<stop offset="1" stop-color="#8E54E9"/>
</linearGradient>
<clipPath id="clip0_68935_218017">
<rect width="484" height="465" fill="white"/>
</clipPath>
</defs>
</svg>
