<svg width="484" height="465" viewBox="0 0 484 465" fill="none" xmlns="http://www.w3.org/2000/svg">
<g clip-path="url(#clip0_68935_218196)">
<path d="M238.341 464.947C631.277 469.554 915.445 172.033 703.246 -57.9026C473.361 -307.002 -30.6974 -320.876 -254.541 -69.1315C-467.843 170.757 -167.294 460.192 238.341 464.947Z" fill="url(#paint0_linear_68935_218196)"/>
<path d="M56.013 51V36.7H58.673V43.18L64.153 36.68H67.013L61.093 43.52L67.313 51H64.173L58.673 44.32V51H56.013ZM68.959 51V40.54H71.379V51H68.959ZM70.139 38.82C69.339 38.82 68.699 38.22 68.699 37.44C68.699 36.64 69.339 36.04 70.139 36.04C70.939 36.04 71.579 36.64 71.579 37.44C71.579 38.22 70.939 38.82 70.139 38.82ZM74.3287 51V40.54H76.7487V42.2C77.2487 41.18 78.4087 40.32 80.1287 40.32C82.2287 40.32 83.7087 41.54 83.7087 44.42V51H81.2887V44.64C81.2887 43.06 80.6487 42.34 79.2087 42.34C77.8487 42.34 76.7487 43.18 76.7487 44.84V51H74.3287ZM90.4166 51.2C87.7966 51.2 85.8166 49.34 85.8166 45.94V45.78C85.8166 42.44 87.7966 40.32 90.5166 40.32C92.2166 40.32 93.2766 41.1 93.8566 42.14V35.7H96.2766V51H93.8566V49.24C93.2966 50.28 91.9566 51.2 90.4166 51.2ZM91.0166 49.28C92.6966 49.28 93.9366 48.16 93.9366 45.82V45.66C93.9366 43.36 92.8766 42.22 91.1166 42.22C89.3366 42.22 88.2966 43.46 88.2966 45.72V45.88C88.2966 48.18 89.4566 49.28 91.0166 49.28ZM99.2129 51V35.7H101.633V51H99.2129ZM105.743 54.58L107.643 49.94L103.503 40.54H106.123L108.903 47.28L111.463 40.54H113.823L108.123 54.58H105.743ZM125.463 51.2C121.563 51.2 119.923 49.26 119.723 46.56H122.283C122.463 48 123.043 49.2 125.463 49.2C127.043 49.2 128.163 48.32 128.163 47C128.163 45.68 127.503 45.18 125.183 44.8C121.763 44.34 120.143 43.3 120.143 40.62C120.143 38.28 122.143 36.52 125.123 36.52C128.203 36.52 130.043 37.92 130.323 40.66H127.883C127.623 39.16 126.763 38.52 125.123 38.52C123.503 38.52 122.663 39.3 122.663 40.4C122.663 41.56 123.143 42.14 125.623 42.5C128.983 42.96 130.723 43.92 130.723 46.78C130.723 49.26 128.623 51.2 125.463 51.2ZM133.098 51V35.7H135.518V42.2C136.018 41.18 137.178 40.32 138.898 40.32C140.998 40.32 142.478 41.54 142.478 44.42V51H140.058V44.64C140.058 43.06 139.418 42.34 137.978 42.34C136.618 42.34 135.518 43.18 135.518 44.84V51H133.098ZM148.006 51.2C146.086 51.2 144.506 50.28 144.506 48.1C144.506 45.66 146.866 44.78 149.866 44.78H151.166V44.24C151.166 42.84 150.686 42.14 149.266 42.14C148.006 42.14 147.386 42.74 147.266 43.78H144.926C145.126 41.34 147.066 40.32 149.406 40.32C151.746 40.32 153.586 41.28 153.586 44.14V51H151.206V49.72C150.526 50.62 149.606 51.2 148.006 51.2ZM148.586 49.46C150.066 49.46 151.166 48.68 151.166 47.34V46.3H149.926C148.086 46.3 146.906 46.72 146.906 48C146.906 48.88 147.386 49.46 148.586 49.46ZM156.36 51V40.54H158.78V42.5C159.44 41.18 160.42 40.4 162.18 40.38V42.64C160.06 42.66 158.78 43.34 158.78 45.56V51H156.36ZM168.714 51.2C165.634 51.2 163.414 49.18 163.414 45.88V45.72C163.414 42.48 165.634 40.32 168.614 40.32C171.214 40.32 173.554 41.86 173.554 45.6V46.3H165.894C165.974 48.28 166.974 49.4 168.774 49.4C170.234 49.4 170.994 48.82 171.174 47.8H173.514C173.174 50 171.394 51.2 168.714 51.2ZM165.934 44.68H171.154C171.034 42.88 170.114 42.08 168.614 42.08C167.154 42.08 166.174 43.06 165.934 44.68ZM184.121 51V44.8L179.381 36.7H182.321L185.541 42.62L188.681 36.7H191.281L186.801 44.82V51H184.121ZM196.138 49.32C197.938 49.32 199.018 47.98 199.018 45.84V45.7C199.018 43.54 197.938 42.22 196.138 42.22C194.338 42.22 193.238 43.52 193.238 45.68V45.84C193.238 47.98 194.298 49.32 196.138 49.32ZM196.118 51.2C193.038 51.2 190.758 49.06 190.758 45.88V45.72C190.758 42.48 193.058 40.32 196.138 40.32C199.198 40.32 201.498 42.46 201.498 45.66V45.82C201.498 49.08 199.198 51.2 196.118 51.2ZM207.184 51.2C205.124 51.2 203.584 50.02 203.584 47.24V40.54H206.004V46.96C206.004 48.54 206.664 49.26 208.064 49.26C209.364 49.26 210.504 48.42 210.504 46.76V40.54H212.924V51H210.504V49.36C209.984 50.38 208.884 51.2 207.184 51.2ZM215.794 51V40.54H218.214V42.5C218.874 41.18 219.854 40.4 221.614 40.38V42.64C219.494 42.66 218.214 43.34 218.214 45.56V51H215.794ZM232.348 51L227.528 36.7H230.308L234.028 48.3L237.768 36.7H240.268L235.428 51H232.348ZM244.002 51.2C242.082 51.2 240.502 50.28 240.502 48.1C240.502 45.66 242.862 44.78 245.862 44.78H247.162V44.24C247.162 42.84 246.682 42.14 245.262 42.14C244.002 42.14 243.382 42.74 243.262 43.78H240.922C241.122 41.34 243.062 40.32 245.402 40.32C247.742 40.32 249.582 41.28 249.582 44.14V51H247.202V49.72C246.522 50.62 245.602 51.2 244.002 51.2ZM244.582 49.46C246.062 49.46 247.162 48.68 247.162 47.34V46.3H245.922C244.082 46.3 242.902 46.72 242.902 48C242.902 48.88 243.382 49.46 244.582 49.46ZM252.416 51V35.7H254.836V51H252.416ZM261.286 51.2C259.226 51.2 257.686 50.02 257.686 47.24V40.54H260.106V46.96C260.106 48.54 260.766 49.26 262.166 49.26C263.466 49.26 264.606 48.42 264.606 46.76V40.54H267.026V51H264.606V49.36C264.086 50.38 262.986 51.2 261.286 51.2ZM272.635 51.2C270.715 51.2 269.135 50.28 269.135 48.1C269.135 45.66 271.495 44.78 274.495 44.78H275.795V44.24C275.795 42.84 275.315 42.14 273.895 42.14C272.635 42.14 272.015 42.74 271.895 43.78H269.555C269.755 41.34 271.695 40.32 274.035 40.32C276.375 40.32 278.215 41.28 278.215 44.14V51H275.835V49.72C275.155 50.62 274.235 51.2 272.635 51.2ZM273.215 49.46C274.695 49.46 275.795 48.68 275.795 47.34V46.3H274.555C272.715 46.3 271.535 46.72 271.535 48C271.535 48.88 272.015 49.46 273.215 49.46ZM286.829 51.2C285.169 51.2 283.969 50.38 283.409 49.32V51H280.989V35.7H283.409V42.22C283.989 41.22 285.289 40.32 286.829 40.32C289.449 40.32 291.469 42.26 291.469 45.64V45.8C291.469 49.16 289.529 51.2 286.829 51.2ZM286.229 49.28C288.009 49.28 288.989 48.08 288.989 45.84V45.68C288.989 43.36 287.789 42.22 286.209 42.22C284.529 42.22 283.329 43.36 283.329 45.68V45.84C283.329 48.18 284.469 49.28 286.229 49.28ZM293.705 51V35.7H296.125V51H293.705ZM303.675 51.2C300.595 51.2 298.375 49.18 298.375 45.88V45.72C298.375 42.48 300.595 40.32 303.575 40.32C306.175 40.32 308.515 41.86 308.515 45.6V46.3H300.855C300.935 48.28 301.935 49.4 303.735 49.4C305.195 49.4 305.955 48.82 306.135 47.8H308.475C308.135 50 306.355 51.2 303.675 51.2ZM300.895 44.68H306.115C305.995 42.88 305.075 42.08 303.575 42.08C302.115 42.08 301.135 43.06 300.895 44.68ZM315.642 51V36.7H324.502V38.82H318.302V43.08H323.182V45.14H318.302V51H315.642ZM330.706 51.2C327.626 51.2 325.406 49.18 325.406 45.88V45.72C325.406 42.48 327.626 40.32 330.606 40.32C333.206 40.32 335.546 41.86 335.546 45.6V46.3H327.886C327.966 48.28 328.966 49.4 330.766 49.4C332.226 49.4 332.986 48.82 333.166 47.8H335.506C335.166 50 333.386 51.2 330.706 51.2ZM327.926 44.68H333.146C333.026 42.88 332.106 42.08 330.606 42.08C329.146 42.08 328.166 43.06 327.926 44.68ZM342.308 51.2C339.228 51.2 337.008 49.18 337.008 45.88V45.72C337.008 42.48 339.228 40.32 342.208 40.32C344.808 40.32 347.148 41.86 347.148 45.6V46.3H339.488C339.568 48.28 340.568 49.4 342.368 49.4C343.828 49.4 344.588 48.82 344.768 47.8H347.108C346.768 50 344.988 51.2 342.308 51.2ZM339.528 44.68H344.748C344.628 42.88 343.708 42.08 342.208 42.08C340.748 42.08 339.768 43.06 339.528 44.68ZM353.229 51.2C350.609 51.2 348.629 49.34 348.629 45.94V45.78C348.629 42.44 350.609 40.32 353.329 40.32C355.029 40.32 356.089 41.1 356.669 42.14V35.7H359.089V51H356.669V49.24C356.109 50.28 354.769 51.2 353.229 51.2ZM353.829 49.28C355.509 49.28 356.749 48.16 356.749 45.82V45.66C356.749 43.36 355.689 42.22 353.929 42.22C352.149 42.22 351.109 43.46 351.109 45.72V45.88C351.109 48.18 352.269 49.28 353.829 49.28ZM367.805 51.2C366.145 51.2 364.945 50.38 364.385 49.32V51H361.965V35.7H364.385V42.22C364.965 41.22 366.265 40.32 367.805 40.32C370.425 40.32 372.445 42.26 372.445 45.64V45.8C372.445 49.16 370.505 51.2 367.805 51.2ZM367.205 49.28C368.985 49.28 369.965 48.08 369.965 45.84V45.68C369.965 43.36 368.765 42.22 367.185 42.22C365.505 42.22 364.305 43.36 364.305 45.68V45.84C364.305 48.18 365.445 49.28 367.205 49.28ZM377.362 51.2C375.442 51.2 373.862 50.28 373.862 48.1C373.862 45.66 376.222 44.78 379.222 44.78H380.522V44.24C380.522 42.84 380.042 42.14 378.622 42.14C377.362 42.14 376.742 42.74 376.622 43.78H374.282C374.482 41.34 376.422 40.32 378.762 40.32C381.102 40.32 382.942 41.28 382.942 44.14V51H380.562V49.72C379.882 50.62 378.962 51.2 377.362 51.2ZM377.942 49.46C379.422 49.46 380.522 48.68 380.522 47.34V46.3H379.282C377.442 46.3 376.262 46.72 376.262 48C376.262 48.88 376.742 49.46 377.942 49.46ZM390.295 51.2C387.295 51.2 385.015 49.24 385.015 45.9V45.74C385.015 42.42 387.375 40.32 390.295 40.32C392.615 40.32 394.795 41.36 395.075 44.24H392.735C392.535 42.84 391.615 42.26 390.335 42.26C388.675 42.26 387.495 43.54 387.495 45.7V45.86C387.495 48.14 388.615 49.34 390.395 49.34C391.675 49.34 392.775 48.58 392.915 47.1H395.135C394.955 49.5 393.135 51.2 390.295 51.2ZM397.219 51V35.7H399.639V45.14L403.379 40.54H406.019L401.959 45.34L406.359 51H403.559L399.639 45.86V51H397.219ZM414.386 51.14C413.506 51.14 412.786 50.46 412.786 49.6C412.786 48.72 413.506 48.04 414.386 48.04C415.286 48.04 416.006 48.72 416.006 49.6C416.006 50.46 415.286 51.14 414.386 51.14ZM413.426 46.7L413.066 36.7H415.766L415.386 46.7H413.426ZM420.479 51.14C419.599 51.14 418.879 50.46 418.879 49.6C418.879 48.72 419.599 48.04 420.479 48.04C421.379 48.04 422.099 48.72 422.099 49.6C422.099 50.46 421.379 51.14 420.479 51.14ZM419.519 46.7L419.159 36.7H421.859L421.479 46.7H419.519ZM426.573 51.14C425.693 51.14 424.973 50.46 424.973 49.6C424.973 48.72 425.693 48.04 426.573 48.04C427.473 48.04 428.193 48.72 428.193 49.6C428.193 50.46 427.473 51.14 426.573 51.14ZM425.613 46.7L425.253 36.7H427.953L427.573 46.7H425.613Z" fill="white"/>
<path d="M208.64 121V106.7H211.82L217.84 117.04V106.7H220.26V121H217.5L211.06 110.04V121H208.64ZM227.925 119.32C229.725 119.32 230.805 117.98 230.805 115.84V115.7C230.805 113.54 229.725 112.22 227.925 112.22C226.125 112.22 225.025 113.52 225.025 115.68V115.84C225.025 117.98 226.085 119.32 227.925 119.32ZM227.905 121.2C224.825 121.2 222.545 119.06 222.545 115.88V115.72C222.545 112.48 224.845 110.32 227.925 110.32C230.985 110.32 233.285 112.46 233.285 115.66V115.82C233.285 119.08 230.985 121.2 227.905 121.2ZM235.471 121V110.54H237.891V112.5C238.551 111.18 239.531 110.4 241.291 110.38V112.64C239.171 112.66 237.891 113.34 237.891 115.56V121H235.471ZM243.42 121V110.54H245.84V112.14C246.34 111.16 247.48 110.32 249.02 110.32C250.38 110.32 251.46 110.9 251.98 112.2C252.78 110.9 254.22 110.32 255.52 110.32C257.44 110.32 259 111.5 259 114.38V121H256.58V114.54C256.58 113 255.92 112.34 254.72 112.34C253.52 112.34 252.42 113.14 252.42 114.74V121H250V114.54C250 113 249.32 112.34 248.14 112.34C246.94 112.34 245.84 113.14 245.84 114.74V121H243.42ZM264.52 121.2C262.6 121.2 261.02 120.28 261.02 118.1C261.02 115.66 263.38 114.78 266.38 114.78H267.68V114.24C267.68 112.84 267.2 112.14 265.78 112.14C264.52 112.14 263.9 112.74 263.78 113.78H261.44C261.64 111.34 263.58 110.32 265.92 110.32C268.26 110.32 270.1 111.28 270.1 114.14V121H267.72V119.72C267.04 120.62 266.12 121.2 264.52 121.2ZM265.1 119.46C266.58 119.46 267.68 118.68 267.68 117.34V116.3H266.44C264.6 116.3 263.42 116.72 263.42 118C263.42 118.88 263.9 119.46 265.1 119.46ZM272.934 121V105.7H275.354V121H272.934Z" fill="white"/>
<path d="M286.995 359.99C284.151 360.148 281.418 358.959 279.007 357.168C276.6 355.345 274.518 352.832 272.92 349.908C271.319 346.986 270.205 343.636 269.718 340.156C269.255 336.683 269.359 333.045 270.508 329.767C271.809 332.926 272.869 335.688 274.05 338.311C275.208 340.93 276.42 343.384 277.716 345.772C279.014 348.158 280.4 350.465 281.926 352.766C283.446 355.099 285.116 357.334 286.995 359.99Z" fill="#3D1C39"/>
<path d="M210.24 349.705C225.851 362.684 241.545 367.329 258.8 360.543C264.018 358.795 272.74 352.978 277.466 349.633C262.58 373.122 236.037 378.934 216.7 358.536C214.449 356.156 211.814 352.778 210.24 349.705Z" fill="#3D1C39"/>
<path d="M197.981 357.243C200.557 356.188 202.457 354.9 204.144 353.331C205.82 351.784 207.261 350.011 208.544 348.064C209.817 346.107 210.93 343.997 211.823 341.636C212.729 339.259 213.381 336.675 213.728 333.293C215.729 335.663 216.513 339.433 216.271 342.974C216.03 346.549 214.835 349.98 213.026 352.723C211.217 355.467 208.764 357.585 206.018 358.555C203.298 359.517 200.211 359.261 197.981 357.243Z" fill="#3D1C39"/>
<path d="M197.088 313.352C221.479 313.352 241.251 287.246 241.251 255.042C241.251 222.838 221.479 196.731 197.088 196.731C172.697 196.731 152.925 222.838 152.925 255.042C152.925 287.246 172.697 313.352 197.088 313.352Z" fill="#878787"/>
<path d="M243.548 248.591C244.397 216.439 224.555 189.518 199.229 188.46C173.903 187.402 152.684 212.608 151.835 244.76C150.985 276.912 170.828 303.833 196.154 304.891C221.48 305.949 242.699 280.742 243.548 248.591Z" fill="#DDDDDD"/>
<path d="M199.186 188.426C173.862 187.368 152.644 212.574 151.795 244.724C151.671 249.41 151.99 253.984 152.698 258.384C160.042 272.51 172.489 282.05 186.831 282.648C210.331 283.629 230.019 260.241 230.807 230.409C231.116 218.694 228.463 207.728 223.706 198.67C216.718 192.543 208.308 188.807 199.186 188.426Z" fill="#EBEBEB"/>
<path d="M229.522 209.26C237.341 219.867 241.435 233.711 241.051 248.24C240.676 262.452 236.032 275.716 227.975 285.589C219.945 295.427 209.395 300.846 198.267 300.846C197.785 300.846 197.316 300.836 196.834 300.815C185.413 300.338 174.824 294.241 167.016 283.648C167.016 283.648 197.195 309.466 222.285 282.123C246.794 255.413 229.522 209.26 229.522 209.26Z" fill="#C6C6C6"/>
<path d="M222.813 221.592C223.23 205.799 212.164 192.52 198.097 191.932C184.029 191.344 172.287 203.671 171.87 219.464C171.452 235.258 182.518 248.537 196.586 249.125C210.653 249.712 222.395 237.386 222.813 221.592Z" fill="#2E7BAB"/>
<path d="M213.52 221.204C213.785 211.172 206.756 202.737 197.82 202.364C188.885 201.991 181.427 209.82 181.161 219.852C180.896 229.883 187.925 238.318 196.861 238.691C205.796 239.065 213.254 231.235 213.52 221.204Z" fill="#310003"/>
<path opacity="0.44" d="M186.537 226.701C187.908 218.108 183.649 209.788 177.023 208.117C170.398 206.445 163.916 212.056 162.546 220.648C161.175 229.241 165.434 237.561 172.059 239.232C178.685 240.903 185.167 235.293 186.537 226.701Z" fill="white"/>
<path opacity="0.53" d="M208.767 258.928C212.561 258.928 215.637 255.061 215.637 250.29C215.637 245.519 212.561 241.651 208.767 241.651C204.973 241.651 201.897 245.519 201.897 250.29C201.897 255.061 204.973 258.928 208.767 258.928Z" fill="white"/>
<path d="M287.083 313.351C311.474 313.351 331.247 287.245 331.247 255.041C331.247 222.837 311.474 196.73 287.083 196.73C262.693 196.73 242.92 222.837 242.92 255.041C242.92 287.245 262.693 313.351 287.083 313.351Z" fill="#878787"/>
<path d="M333.462 248.567C334.311 216.419 314.471 189.5 289.147 188.442C263.824 187.384 242.607 212.588 241.758 244.737C240.908 276.885 260.748 303.804 286.072 304.862C311.395 305.919 332.612 280.716 333.462 248.567Z" fill="#DDDDDD"/>
<path d="M289.182 188.426C263.857 187.368 242.639 212.574 241.79 244.724C241.666 249.41 241.985 253.984 242.693 258.384C250.037 272.51 262.484 282.05 276.826 282.648C300.326 283.629 320.014 260.241 320.802 230.409C321.111 218.694 318.459 207.728 313.701 198.67C306.713 192.543 298.303 188.807 289.182 188.426Z" fill="#EBEBEB"/>
<path d="M319.518 209.259C327.336 219.866 331.43 233.71 331.047 248.239C330.671 262.451 326.027 275.715 317.97 285.588C309.94 295.426 299.39 300.845 288.263 300.845C287.781 300.845 287.312 300.835 286.829 300.814C275.409 300.337 264.819 294.241 257.011 283.647C257.011 283.647 287.19 309.465 312.28 282.122C336.789 255.412 319.518 209.259 319.518 209.259Z" fill="#C6C6C6"/>
<path d="M312.808 221.59C313.225 205.797 302.159 192.518 288.092 191.93C274.024 191.342 262.282 203.669 261.865 219.462C261.448 235.256 272.513 248.535 286.581 249.123C300.648 249.71 312.391 237.384 312.808 221.59Z" fill="#2E7BAB"/>
<path d="M303.517 221.208C303.782 211.177 296.753 202.742 287.817 202.369C278.882 201.996 271.424 209.825 271.159 219.857C270.894 229.888 277.922 238.323 286.858 238.696C295.793 239.07 303.252 231.24 303.517 221.208Z" fill="#310003"/>
<path opacity="0.44" d="M276.532 226.696C277.902 218.103 273.643 209.783 267.018 208.112C260.392 206.441 253.91 212.051 252.54 220.643C251.169 229.236 255.428 237.556 262.054 239.227C268.679 240.899 275.161 235.288 276.532 226.696Z" fill="white"/>
<path opacity="0.53" d="M298.762 258.928C302.557 258.928 305.632 255.061 305.632 250.29C305.632 245.519 302.557 241.651 298.762 241.651C294.968 241.651 291.893 245.519 291.893 250.29C291.893 255.061 294.968 258.928 298.762 258.928Z" fill="white"/>
<path d="M223.194 153.402C223.194 153.402 205.622 133.76 184.145 146.036C162.668 158.312 149 197.595 149 197.595C149 197.595 170.477 168.133 190.002 160.768C209.527 153.402 223.194 153.402 223.194 153.402Z" fill="#5E2222"/>
<path d="M256.17 153.402C256.17 153.402 273.742 133.76 295.219 146.036C316.697 158.312 330.364 197.595 330.364 197.595C330.364 197.595 308.887 168.133 289.362 160.768C269.837 153.402 256.17 153.402 256.17 153.402Z" fill="#5E2222"/>
<path d="M154.28 396.313L157.1 401.991C157.48 402.777 158.5 403.522 159.361 403.683L164.461 404.528C167.721 405.072 168.481 407.448 166.141 409.824L162.161 413.831C161.501 414.495 161.121 415.804 161.341 416.751L162.481 421.704C163.381 425.61 161.301 427.14 157.88 425.087L153.1 422.227C152.24 421.704 150.8 421.704 149.94 422.227L145.16 425.087C141.739 427.12 139.659 425.61 140.559 421.704L141.699 416.751C141.879 415.784 141.499 414.475 140.839 413.811L136.859 409.804C134.519 407.448 135.279 405.072 138.539 404.508L143.639 403.663C144.5 403.522 145.52 402.756 145.9 401.971L148.72 396.293C150.26 393.232 152.74 393.232 154.28 396.313Z" fill="#A3A3A3"/>
<path d="M199.28 396.313L202.1 401.991C202.48 402.777 203.5 403.522 204.361 403.683L209.461 404.528C212.721 405.072 213.481 407.448 211.141 409.824L207.161 413.831C206.501 414.495 206.121 415.804 206.341 416.751L207.481 421.704C208.381 425.61 206.301 427.14 202.88 425.087L198.1 422.227C197.24 421.704 195.8 421.704 194.94 422.227L190.16 425.087C186.739 427.12 184.659 425.61 185.559 421.704L186.699 416.751C186.879 415.784 186.499 414.475 185.839 413.811L181.859 409.804C179.519 407.448 180.279 405.072 183.539 404.508L188.639 403.663C189.5 403.522 190.52 402.756 190.9 401.971L193.72 396.293C195.26 393.232 197.74 393.232 199.28 396.313Z" fill="#A3A3A3"/>
<path d="M244.28 396.313L247.1 401.991C247.48 402.777 248.5 403.522 249.361 403.683L254.461 404.528C257.721 405.072 258.481 407.448 256.141 409.824L252.161 413.831C251.501 414.495 251.121 415.804 251.341 416.751L252.481 421.704C253.381 425.61 251.301 427.14 247.88 425.087L243.1 422.227C242.24 421.704 240.8 421.704 239.94 422.227L235.16 425.087C231.739 427.12 229.659 425.61 230.559 421.704L231.699 416.751C231.879 415.784 231.499 414.475 230.839 413.811L226.859 409.804C224.519 407.448 225.279 405.072 228.539 404.508L233.639 403.663C234.5 403.522 235.52 402.756 235.9 401.971L238.72 396.293C240.26 393.232 242.74 393.232 244.28 396.313Z" fill="#FFC068"/>
<path d="M289.28 396.313L292.1 401.991C292.48 402.777 293.5 403.522 294.361 403.683L299.461 404.528C302.721 405.072 303.481 407.448 301.141 409.824L297.161 413.831C296.501 414.495 296.121 415.804 296.341 416.751L297.481 421.704C298.381 425.61 296.301 427.14 292.88 425.087L288.1 422.227C287.24 421.704 285.8 421.704 284.94 422.227L280.16 425.087C276.739 427.12 274.659 425.61 275.559 421.704L276.699 416.751C276.879 415.784 276.499 414.475 275.839 413.811L271.859 409.804C269.519 407.448 270.279 405.072 273.539 404.508L278.639 403.663C279.5 403.522 280.52 402.756 280.9 401.971L283.72 396.293C285.26 393.232 287.74 393.232 289.28 396.313Z" fill="#FFC068"/>
<path d="M334.28 396.313L337.1 401.991C337.48 402.777 338.5 403.522 339.361 403.683L344.461 404.528C347.721 405.072 348.481 407.448 346.141 409.824L342.161 413.831C341.501 414.495 341.121 415.804 341.341 416.751L342.481 421.704C343.381 425.61 341.301 427.14 337.88 425.087L333.1 422.227C332.24 421.704 330.8 421.704 329.94 422.227L325.16 425.087C321.739 427.12 319.659 425.61 320.559 421.704L321.699 416.751C321.879 415.784 321.499 414.475 320.839 413.811L316.859 409.804C314.519 407.448 315.279 405.072 318.539 404.508L323.639 403.663C324.5 403.522 325.52 402.756 325.9 401.971L328.72 396.293C330.26 393.232 332.74 393.232 334.28 396.313Z" fill="#FFC068"/>
</g>
<defs>
<linearGradient id="paint0_linear_68935_218196" x1="-325.149" y1="106.774" x2="775.641" y2="106.774" gradientUnits="userSpaceOnUse">
<stop stop-color="#4776E6"/>
<stop offset="1" stop-color="#8E54E9"/>
</linearGradient>
<clipPath id="clip0_68935_218196">
<rect width="484" height="465" fill="white"/>
</clipPath>
</defs>
</svg>
