<svg width="484" height="485" viewBox="0 0 484 485" fill="none" xmlns="http://www.w3.org/2000/svg">
<path d="M238.341 484.947C631.277 489.554 915.445 192.033 703.246 -37.9026C473.361 -287.002 -30.6974 -300.876 -254.541 -49.1315C-467.843 190.757 -167.294 480.192 238.341 484.947Z" fill="url(#paint0_linear_68935_217840)"/>
<path d="M53.6302 71V56.7H56.2902V63.18L61.7702 56.68H64.6302L58.7102 63.52L64.9302 71H61.7902L56.2902 64.32V71H53.6302ZM66.5762 71V60.54H68.9962V71H66.5762ZM67.7562 58.82C66.9562 58.82 66.3162 58.22 66.3162 57.44C66.3162 56.64 66.9562 56.04 67.7562 56.04C68.5562 56.04 69.1962 56.64 69.1962 57.44C69.1962 58.22 68.5562 58.82 67.7562 58.82ZM71.9459 71V60.54H74.3659V62.2C74.8659 61.18 76.0259 60.32 77.7459 60.32C79.8459 60.32 81.3259 61.54 81.3259 64.42V71H78.9059V64.64C78.9059 63.06 78.2659 62.34 76.8259 62.34C75.4659 62.34 74.3659 63.18 74.3659 64.84V71H71.9459ZM88.0338 71.2C85.4138 71.2 83.4338 69.34 83.4338 65.94V65.78C83.4338 62.44 85.4138 60.32 88.1338 60.32C89.8338 60.32 90.8938 61.1 91.4738 62.14V55.7H93.8938V71H91.4738V69.24C90.9138 70.28 89.5738 71.2 88.0338 71.2ZM88.6338 69.28C90.3138 69.28 91.5538 68.16 91.5538 65.82V65.66C91.5538 63.36 90.4938 62.22 88.7338 62.22C86.9538 62.22 85.9138 63.46 85.9138 65.72V65.88C85.9138 68.18 87.0738 69.28 88.6338 69.28ZM96.8301 71V55.7H99.2501V71H96.8301ZM103.36 74.58L105.26 69.94L101.12 60.54H103.74L106.52 67.28L109.08 60.54H111.44L105.74 74.58H103.36ZM123.08 71.2C119.18 71.2 117.54 69.26 117.34 66.56H119.9C120.08 68 120.66 69.2 123.08 69.2C124.66 69.2 125.78 68.32 125.78 67C125.78 65.68 125.12 65.18 122.8 64.8C119.38 64.34 117.76 63.3 117.76 60.62C117.76 58.28 119.76 56.52 122.74 56.52C125.82 56.52 127.66 57.92 127.94 60.66H125.5C125.24 59.16 124.38 58.52 122.74 58.52C121.12 58.52 120.28 59.3 120.28 60.4C120.28 61.56 120.76 62.14 123.24 62.5C126.6 62.96 128.34 63.92 128.34 66.78C128.34 69.26 126.24 71.2 123.08 71.2ZM130.715 71V55.7H133.135V62.2C133.635 61.18 134.795 60.32 136.515 60.32C138.615 60.32 140.095 61.54 140.095 64.42V71H137.675V64.64C137.675 63.06 137.035 62.34 135.595 62.34C134.235 62.34 133.135 63.18 133.135 64.84V71H130.715ZM145.623 71.2C143.703 71.2 142.123 70.28 142.123 68.1C142.123 65.66 144.483 64.78 147.483 64.78H148.783V64.24C148.783 62.84 148.303 62.14 146.883 62.14C145.623 62.14 145.003 62.74 144.883 63.78H142.543C142.743 61.34 144.683 60.32 147.023 60.32C149.363 60.32 151.203 61.28 151.203 64.14V71H148.823V69.72C148.143 70.62 147.223 71.2 145.623 71.2ZM146.203 69.46C147.683 69.46 148.783 68.68 148.783 67.34V66.3H147.543C145.703 66.3 144.523 66.72 144.523 68C144.523 68.88 145.003 69.46 146.203 69.46ZM153.977 71V60.54H156.397V62.5C157.057 61.18 158.037 60.4 159.797 60.38V62.64C157.677 62.66 156.397 63.34 156.397 65.56V71H153.977ZM166.331 71.2C163.251 71.2 161.031 69.18 161.031 65.88V65.72C161.031 62.48 163.251 60.32 166.231 60.32C168.831 60.32 171.171 61.86 171.171 65.6V66.3H163.511C163.591 68.28 164.591 69.4 166.391 69.4C167.851 69.4 168.611 68.82 168.791 67.8H171.131C170.791 70 169.011 71.2 166.331 71.2ZM163.551 64.68H168.771C168.651 62.88 167.731 62.08 166.231 62.08C164.771 62.08 163.791 63.06 163.551 64.68ZM181.738 71V64.8L176.998 56.7H179.938L183.158 62.62L186.298 56.7H188.898L184.418 64.82V71H181.738ZM193.755 69.32C195.555 69.32 196.635 67.98 196.635 65.84V65.7C196.635 63.54 195.555 62.22 193.755 62.22C191.955 62.22 190.855 63.52 190.855 65.68V65.84C190.855 67.98 191.915 69.32 193.755 69.32ZM193.735 71.2C190.655 71.2 188.375 69.06 188.375 65.88V65.72C188.375 62.48 190.675 60.32 193.755 60.32C196.815 60.32 199.115 62.46 199.115 65.66V65.82C199.115 69.08 196.815 71.2 193.735 71.2ZM204.801 71.2C202.741 71.2 201.201 70.02 201.201 67.24V60.54H203.621V66.96C203.621 68.54 204.281 69.26 205.681 69.26C206.981 69.26 208.121 68.42 208.121 66.76V60.54H210.541V71H208.121V69.36C207.601 70.38 206.501 71.2 204.801 71.2ZM213.411 71V60.54H215.831V62.5C216.491 61.18 217.471 60.4 219.231 60.38V62.64C217.111 62.66 215.831 63.34 215.831 65.56V71H213.411ZM234.731 71L229.911 56.7H232.691L236.411 68.3L240.151 56.7H242.651L237.811 71H234.731ZM246.385 71.2C244.465 71.2 242.885 70.28 242.885 68.1C242.885 65.66 245.245 64.78 248.245 64.78H249.545V64.24C249.545 62.84 249.065 62.14 247.645 62.14C246.385 62.14 245.765 62.74 245.645 63.78H243.305C243.505 61.34 245.445 60.32 247.785 60.32C250.125 60.32 251.965 61.28 251.965 64.14V71H249.585V69.72C248.905 70.62 247.985 71.2 246.385 71.2ZM246.965 69.46C248.445 69.46 249.545 68.68 249.545 67.34V66.3H248.305C246.465 66.3 245.285 66.72 245.285 68C245.285 68.88 245.765 69.46 246.965 69.46ZM254.799 71V55.7H257.219V71H254.799ZM263.669 71.2C261.609 71.2 260.069 70.02 260.069 67.24V60.54H262.489V66.96C262.489 68.54 263.149 69.26 264.549 69.26C265.849 69.26 266.989 68.42 266.989 66.76V60.54H269.409V71H266.989V69.36C266.469 70.38 265.369 71.2 263.669 71.2ZM275.018 71.2C273.098 71.2 271.518 70.28 271.518 68.1C271.518 65.66 273.878 64.78 276.878 64.78H278.178V64.24C278.178 62.84 277.698 62.14 276.278 62.14C275.018 62.14 274.398 62.74 274.278 63.78H271.938C272.138 61.34 274.078 60.32 276.418 60.32C278.758 60.32 280.598 61.28 280.598 64.14V71H278.218V69.72C277.538 70.62 276.618 71.2 275.018 71.2ZM275.598 69.46C277.078 69.46 278.178 68.68 278.178 67.34V66.3H276.938C275.098 66.3 273.918 66.72 273.918 68C273.918 68.88 274.398 69.46 275.598 69.46ZM289.212 71.2C287.552 71.2 286.352 70.38 285.792 69.32V71H283.372V55.7H285.792V62.22C286.372 61.22 287.672 60.32 289.212 60.32C291.832 60.32 293.852 62.26 293.852 65.64V65.8C293.852 69.16 291.912 71.2 289.212 71.2ZM288.612 69.28C290.392 69.28 291.372 68.08 291.372 65.84V65.68C291.372 63.36 290.172 62.22 288.592 62.22C286.912 62.22 285.712 63.36 285.712 65.68V65.84C285.712 68.18 286.852 69.28 288.612 69.28ZM296.088 71V55.7H298.508V71H296.088ZM306.058 71.2C302.978 71.2 300.758 69.18 300.758 65.88V65.72C300.758 62.48 302.978 60.32 305.958 60.32C308.558 60.32 310.898 61.86 310.898 65.6V66.3H303.238C303.318 68.28 304.318 69.4 306.118 69.4C307.578 69.4 308.338 68.82 308.518 67.8H310.858C310.518 70 308.738 71.2 306.058 71.2ZM303.278 64.68H308.498C308.378 62.88 307.458 62.08 305.958 62.08C304.498 62.08 303.518 63.06 303.278 64.68ZM318.025 71V56.7H326.885V58.82H320.685V63.08H325.565V65.14H320.685V71H318.025ZM333.089 71.2C330.009 71.2 327.789 69.18 327.789 65.88V65.72C327.789 62.48 330.009 60.32 332.989 60.32C335.589 60.32 337.929 61.86 337.929 65.6V66.3H330.269C330.349 68.28 331.349 69.4 333.149 69.4C334.609 69.4 335.369 68.82 335.549 67.8H337.889C337.549 70 335.769 71.2 333.089 71.2ZM330.309 64.68H335.529C335.409 62.88 334.489 62.08 332.989 62.08C331.529 62.08 330.549 63.06 330.309 64.68ZM344.69 71.2C341.61 71.2 339.39 69.18 339.39 65.88V65.72C339.39 62.48 341.61 60.32 344.59 60.32C347.19 60.32 349.53 61.86 349.53 65.6V66.3H341.87C341.95 68.28 342.95 69.4 344.75 69.4C346.21 69.4 346.97 68.82 347.15 67.8H349.49C349.15 70 347.37 71.2 344.69 71.2ZM341.91 64.68H347.13C347.01 62.88 346.09 62.08 344.59 62.08C343.13 62.08 342.15 63.06 341.91 64.68ZM355.612 71.2C352.992 71.2 351.012 69.34 351.012 65.94V65.78C351.012 62.44 352.992 60.32 355.712 60.32C357.412 60.32 358.472 61.1 359.052 62.14V55.7H361.472V71H359.052V69.24C358.492 70.28 357.152 71.2 355.612 71.2ZM356.212 69.28C357.892 69.28 359.132 68.16 359.132 65.82V65.66C359.132 63.36 358.072 62.22 356.312 62.22C354.532 62.22 353.492 63.46 353.492 65.72V65.88C353.492 68.18 354.652 69.28 356.212 69.28ZM370.188 71.2C368.528 71.2 367.328 70.38 366.768 69.32V71H364.348V55.7H366.768V62.22C367.348 61.22 368.648 60.32 370.188 60.32C372.808 60.32 374.828 62.26 374.828 65.64V65.8C374.828 69.16 372.888 71.2 370.188 71.2ZM369.588 69.28C371.368 69.28 372.348 68.08 372.348 65.84V65.68C372.348 63.36 371.148 62.22 369.568 62.22C367.888 62.22 366.688 63.36 366.688 65.68V65.84C366.688 68.18 367.828 69.28 369.588 69.28ZM379.744 71.2C377.824 71.2 376.244 70.28 376.244 68.1C376.244 65.66 378.604 64.78 381.604 64.78H382.904V64.24C382.904 62.84 382.424 62.14 381.004 62.14C379.744 62.14 379.124 62.74 379.004 63.78H376.664C376.864 61.34 378.804 60.32 381.144 60.32C383.484 60.32 385.324 61.28 385.324 64.14V71H382.944V69.72C382.264 70.62 381.344 71.2 379.744 71.2ZM380.324 69.46C381.804 69.46 382.904 68.68 382.904 67.34V66.3H381.664C379.824 66.3 378.644 66.72 378.644 68C378.644 68.88 379.124 69.46 380.324 69.46ZM392.678 71.2C389.678 71.2 387.398 69.24 387.398 65.9V65.74C387.398 62.42 389.758 60.32 392.678 60.32C394.998 60.32 397.178 61.36 397.458 64.24H395.118C394.918 62.84 393.998 62.26 392.718 62.26C391.058 62.26 389.878 63.54 389.878 65.7V65.86C389.878 68.14 390.998 69.34 392.778 69.34C394.058 69.34 395.158 68.58 395.298 67.1H397.518C397.338 69.5 395.518 71.2 392.678 71.2ZM399.602 71V55.7H402.022V65.14L405.762 60.54H408.402L404.342 65.34L408.742 71H405.942L402.022 65.86V71H399.602ZM416.769 71.14C415.889 71.14 415.169 70.46 415.169 69.6C415.169 68.72 415.889 68.04 416.769 68.04C417.669 68.04 418.389 68.72 418.389 69.6C418.389 70.46 417.669 71.14 416.769 71.14ZM415.809 66.7L415.449 56.7H418.149L417.769 66.7H415.809ZM422.862 71.14C421.982 71.14 421.262 70.46 421.262 69.6C421.262 68.72 421.982 68.04 422.862 68.04C423.762 68.04 424.482 68.72 424.482 69.6C424.482 70.46 423.762 71.14 422.862 71.14ZM421.902 66.7L421.542 56.7H424.242L423.862 66.7H421.902ZM428.956 71.14C428.076 71.14 427.356 70.46 427.356 69.6C427.356 68.72 428.076 68.04 428.956 68.04C429.856 68.04 430.576 68.72 430.576 69.6C430.576 70.46 429.856 71.14 428.956 71.14ZM427.996 66.7L427.636 56.7H430.336L429.956 66.7H427.996Z" fill="white"/>
<path d="M192.28 141L187.46 126.7H190.24L193.96 138.3L197.7 126.7H200.2L195.36 141H192.28ZM205.384 141.2C202.304 141.2 200.084 139.18 200.084 135.88V135.72C200.084 132.48 202.304 130.32 205.284 130.32C207.884 130.32 210.224 131.86 210.224 135.6V136.3H202.564C202.644 138.28 203.644 139.4 205.444 139.4C206.904 139.4 207.664 138.82 207.844 137.8H210.184C209.844 140 208.064 141.2 205.384 141.2ZM202.604 134.68H207.824C207.704 132.88 206.784 132.08 205.284 132.08C203.824 132.08 202.844 133.06 202.604 134.68ZM212.385 141V130.54H214.805V132.5C215.465 131.18 216.445 130.4 218.205 130.38V132.64C216.085 132.66 214.805 133.34 214.805 135.56V141H212.385ZM221.592 144.58L223.492 139.94L219.352 130.54H221.972L224.752 137.28L227.312 130.54H229.672L223.972 144.58H221.592ZM236.453 141V126.7H239.113V132.78H245.533V126.7H248.213V141H245.533V134.92H239.113V141H236.453ZM253.914 141.2C251.994 141.2 250.414 140.28 250.414 138.1C250.414 135.66 252.774 134.78 255.774 134.78H257.074V134.24C257.074 132.84 256.594 132.14 255.174 132.14C253.914 132.14 253.294 132.74 253.174 133.78H250.834C251.034 131.34 252.974 130.32 255.314 130.32C257.654 130.32 259.494 131.28 259.494 134.14V141H257.114V139.72C256.434 140.62 255.514 141.2 253.914 141.2ZM254.494 139.46C255.974 139.46 257.074 138.68 257.074 137.34V136.3H255.834C253.994 136.3 252.814 136.72 252.814 138C252.814 138.88 253.294 139.46 254.494 139.46ZM262.268 144.58V130.54H264.688V132.22C265.268 131.22 266.568 130.32 268.108 130.32C270.728 130.32 272.748 132.26 272.748 135.64V135.8C272.748 139.16 270.808 141.2 268.108 141.2C266.448 141.2 265.248 140.38 264.688 139.36V144.58H262.268ZM267.508 139.28C269.288 139.28 270.268 138.08 270.268 135.84V135.68C270.268 133.36 269.068 132.22 267.488 132.22C265.808 132.22 264.608 133.36 264.608 135.68V135.84C264.608 138.18 265.748 139.28 267.508 139.28ZM274.924 144.58V130.54H277.344V132.22C277.924 131.22 279.224 130.32 280.764 130.32C283.384 130.32 285.404 132.26 285.404 135.64V135.8C285.404 139.16 283.464 141.2 280.764 141.2C279.104 141.2 277.904 140.38 277.344 139.36V144.58H274.924ZM280.164 139.28C281.944 139.28 282.924 138.08 282.924 135.84V135.68C282.924 133.36 281.724 132.22 280.144 132.22C278.464 132.22 277.264 133.36 277.264 135.68V135.84C277.264 138.18 278.404 139.28 280.164 139.28ZM288.448 144.58L290.348 139.94L286.208 130.54H288.828L291.608 137.28L294.168 130.54H296.528L290.828 144.58H288.448Z" fill="white"/>
<path d="M181.058 329.408C181.058 329.408 194.535 344.821 231.156 351.32C278.385 359.701 302.664 324.662 302.664 324.662C302.664 324.662 295.908 388.057 250.647 390.829C207.269 393.485 204.64 364.81 181.058 329.408Z" fill="#890E0F"/>
<path d="M246.007 354.503C243.106 354.578 240.073 354.538 236.899 354.363C186.124 351.581 177.16 324.883 176.803 323.747L181.623 322.348C181.643 322.409 183.709 328.549 191.481 334.922C198.721 340.858 212.53 348.219 237.2 349.571C284.588 352.171 299.414 323.93 299.558 323.645L304.093 325.72C303.927 326.048 299.913 333.834 289.548 341.261C281.229 347.222 267.219 353.954 246.007 354.503Z" fill="#5E2222"/>
<path d="M292.472 320.124C295.069 319.556 297.733 319.876 300.219 320.6C302.714 321.338 305.069 322.562 307.089 324.184C309.113 325.792 310.855 327.758 312.024 330.002C312.667 331.089 313.074 332.292 313.433 333.477C313.63 334.061 313.705 334.693 313.779 335.313C313.852 335.933 313.909 336.549 313.9 337.175C312.868 336.328 312.12 335.418 311.256 334.602C310.391 333.79 309.657 332.944 308.801 332.202C307.223 330.629 305.557 329.237 303.868 327.879C302.181 326.516 300.402 325.241 298.511 323.995C296.621 322.728 294.656 321.511 292.472 320.124Z" fill="#5E2222"/>
<path d="M171.011 330.468C170.835 328.381 171.618 326.408 172.722 324.708C173.853 323.007 175.39 321.545 177.163 320.451C178.073 319.947 178.98 319.419 179.977 319.098C180.473 318.934 180.955 318.744 181.461 318.618C181.968 318.5 182.48 318.404 182.992 318.319C183.499 318.22 184.015 318.17 184.539 318.167C185.058 318.149 185.577 318.153 186.092 318.17C186.608 318.192 187.131 318.289 187.646 318.392C188.162 318.497 188.671 318.614 189.178 318.795C188.324 319.487 187.479 319.962 186.668 320.463C186.265 320.722 185.868 320.968 185.471 321.192C185.274 321.311 185.074 321.412 184.876 321.518C184.686 321.64 184.498 321.767 184.306 321.876C183.925 322.106 183.546 322.326 183.162 322.523C182.794 322.756 182.426 322.974 182.059 323.19C181.877 323.303 181.687 323.395 181.5 323.496L180.969 323.838C180.611 324.057 180.237 324.252 179.888 324.48C178.463 325.355 177.077 326.261 175.638 327.234C174.187 328.214 172.726 329.233 171.011 330.468Z" fill="#5E2222"/>
<path d="M289.155 365.274C283.358 364.388 269.277 362.718 253.32 364.351C235.183 366.207 219.854 378.797 216.081 382.129C224.103 388.494 234.577 391.813 250.647 390.829C269.261 389.689 281.358 378.295 289.155 365.274Z" fill="url(#paint1_linear_68935_217840)"/>
<path d="M197.846 307.89C223.777 307.89 244.798 285.948 244.798 258.882C244.798 231.816 223.777 209.874 197.846 209.874C171.915 209.874 150.895 231.816 150.895 258.882C150.895 285.948 171.915 307.89 197.846 307.89Z" fill="#878787"/>
<path d="M241.757 254.889C242.604 229.381 222.809 208.022 197.543 207.183C172.277 206.344 151.108 226.342 150.261 251.85C149.413 277.358 169.209 298.717 194.474 299.556C219.74 300.395 240.909 280.397 241.757 254.889Z" fill="#DDDDDD"/>
<path d="M197.541 207.158C172.273 206.319 151.104 226.319 150.257 251.828C150.133 255.546 150.451 259.176 151.158 262.667C158.485 273.875 170.904 281.444 185.214 281.919C208.659 282.698 228.303 264.14 229.089 240.47C229.397 231.175 226.751 222.474 222.005 215.287C215.032 210.425 206.641 207.46 197.541 207.158Z" fill="#EBEBEB"/>
<path d="M203.289 250.022C204.392 235.993 195.212 223.828 182.784 222.851C170.356 221.873 159.387 232.454 158.284 246.483C157.181 260.512 166.361 272.677 178.789 273.654C191.216 274.632 202.185 264.051 203.289 250.022Z" fill="#2E7BAB"/>
<path d="M196.673 249.908C197.373 240.997 191.542 233.269 183.648 232.649C175.754 232.028 168.787 238.748 168.086 247.659C167.385 256.571 173.217 264.298 181.111 264.919C189.004 265.539 195.972 258.819 196.673 249.908Z" fill="#310003"/>
<path opacity="0.44" d="M191.195 229.822C192.563 223.004 188.313 216.402 181.703 215.076C175.093 213.75 168.625 218.202 167.258 225.02C165.89 231.837 170.14 238.439 176.75 239.765C183.36 241.091 189.827 236.639 191.195 229.822Z" fill="white"/>
<path d="M227.807 223.688C235.608 232.104 239.692 243.088 239.31 254.617C238.936 265.893 234.302 276.418 226.263 284.251C218.252 292.057 207.726 296.356 196.623 296.356C196.143 296.356 195.675 296.348 195.193 296.333C183.799 295.954 173.233 291.117 165.442 282.711C165.442 282.711 195.553 303.197 220.586 281.501C245.039 260.309 227.807 223.688 227.807 223.688Z" fill="#C6C6C6"/>
<path opacity="0.53" d="M191.335 275.675C195.12 275.675 198.189 272.606 198.189 268.821C198.189 265.036 195.12 261.967 191.335 261.967C187.549 261.967 184.48 265.036 184.48 268.821C184.48 272.606 187.549 275.675 191.335 275.675Z" fill="white"/>
<path d="M288.322 307.89C314.252 307.89 335.273 285.948 335.273 258.882C335.273 231.816 314.252 209.874 288.322 209.874C262.391 209.874 241.37 231.816 241.37 258.882C241.37 285.948 262.391 307.89 288.322 307.89Z" fill="#878787"/>
<path d="M332.239 254.895C333.086 229.387 313.291 208.028 288.025 207.188C262.76 206.349 241.591 226.347 240.743 251.855C239.896 277.363 259.691 298.722 284.957 299.561C310.223 300.401 331.392 280.403 332.239 254.895Z" fill="#DDDDDD"/>
<path d="M288.016 207.158C262.749 206.319 241.579 226.319 240.732 251.828C240.609 255.546 240.927 259.176 241.634 262.667C248.96 273.875 261.379 281.444 275.689 281.919C299.135 282.698 318.779 264.14 319.564 240.47C319.873 231.175 317.227 222.474 312.48 215.287C305.508 210.425 297.117 207.46 288.016 207.158Z" fill="#EBEBEB"/>
<path d="M293.758 250.022C294.862 235.993 285.681 223.828 273.254 222.851C260.826 221.873 249.857 232.454 248.754 246.483C247.65 260.512 256.831 272.677 269.258 273.654C281.686 274.632 292.655 264.051 293.758 250.022Z" fill="#2E7BAB"/>
<path d="M287.145 249.909C287.846 240.998 282.015 233.27 274.121 232.65C266.227 232.029 259.26 238.749 258.559 247.661C257.858 256.572 263.689 264.299 271.583 264.919C279.477 265.54 286.445 258.82 287.145 249.909Z" fill="#310003"/>
<path opacity="0.44" d="M281.669 229.818C283.036 223 278.786 216.398 272.176 215.072C265.566 213.746 259.099 218.198 257.731 225.016C256.364 231.833 260.613 238.435 267.224 239.761C273.834 241.087 280.301 236.635 281.669 229.818Z" fill="white"/>
<path d="M318.283 223.688C326.083 232.104 330.168 243.088 329.785 254.616C329.411 265.893 324.777 276.417 316.738 284.25C308.727 292.056 298.201 296.356 287.099 296.356C286.618 296.356 286.15 296.348 285.668 296.332C274.274 295.954 263.708 291.116 255.918 282.711C255.918 282.711 286.029 303.196 311.062 281.501C335.515 260.308 318.283 223.688 318.283 223.688Z" fill="#C6C6C6"/>
<path opacity="0.53" d="M281.81 275.675C285.596 275.675 288.664 272.606 288.664 268.821C288.664 265.036 285.596 261.967 281.81 261.967C278.025 261.967 274.956 265.036 274.956 268.821C274.956 272.606 278.025 275.675 281.81 275.675Z" fill="white"/>
<path d="M314.72 200.61C311.901 186.41 286.376 166.877 269.155 164.392C251.934 161.907 250.778 175.912 261.944 177.632C273.109 179.351 287.49 182.4 297.513 188.282C307.537 194.164 314.72 200.61 314.72 200.61Z" fill="#5E2222"/>
<path d="M230.359 198.513C227.54 184.313 202.015 164.78 184.794 162.295C167.573 159.809 166.417 173.815 177.582 175.534C188.747 177.253 203.128 180.302 213.152 186.184C223.175 192.067 230.359 198.513 230.359 198.513Z" fill="#5E2222"/>
<path d="M154.28 416.313L157.1 421.991C157.48 422.777 158.5 423.522 159.361 423.683L164.461 424.528C167.721 425.072 168.481 427.448 166.141 429.824L162.161 433.831C161.501 434.495 161.121 435.804 161.341 436.751L162.481 441.704C163.381 445.61 161.301 447.14 157.88 445.087L153.1 442.227C152.24 441.704 150.8 441.704 149.94 442.227L145.16 445.087C141.739 447.12 139.659 445.61 140.559 441.704L141.699 436.751C141.879 435.784 141.499 434.475 140.839 433.811L136.859 429.804C134.519 427.448 135.279 425.072 138.539 424.508L143.639 423.663C144.5 423.522 145.52 422.756 145.9 421.971L148.72 416.293C150.26 413.232 152.74 413.232 154.28 416.313Z" fill="#06C270"/>
<path d="M199.28 416.313L202.1 421.991C202.48 422.777 203.5 423.522 204.361 423.683L209.461 424.528C212.721 425.072 213.481 427.448 211.141 429.824L207.161 433.831C206.501 434.495 206.121 435.804 206.341 436.751L207.481 441.704C208.381 445.61 206.301 447.14 202.88 445.087L198.1 442.227C197.24 441.704 195.8 441.704 194.94 442.227L190.16 445.087C186.739 447.12 184.659 445.61 185.559 441.704L186.699 436.751C186.879 435.784 186.499 434.475 185.839 433.811L181.859 429.804C179.519 427.448 180.279 425.072 183.539 424.508L188.639 423.663C189.5 423.522 190.52 422.756 190.9 421.971L193.72 416.293C195.26 413.232 197.74 413.232 199.28 416.313Z" fill="#06C270"/>
<path d="M244.28 416.313L247.1 421.991C247.48 422.777 248.5 423.522 249.361 423.683L254.461 424.528C257.721 425.072 258.481 427.448 256.141 429.824L252.161 433.831C251.501 434.495 251.121 435.804 251.341 436.751L252.481 441.704C253.381 445.61 251.301 447.14 247.88 445.087L243.1 442.227C242.24 441.704 240.8 441.704 239.94 442.227L235.16 445.087C231.739 447.12 229.659 445.61 230.559 441.704L231.699 436.751C231.879 435.784 231.499 434.475 230.839 433.811L226.859 429.804C224.519 427.448 225.279 425.072 228.539 424.508L233.639 423.663C234.5 423.522 235.52 422.756 235.9 421.971L238.72 416.293C240.26 413.232 242.74 413.232 244.28 416.313Z" fill="#06C270"/>
<path d="M289.28 416.313L292.1 421.991C292.48 422.777 293.5 423.522 294.361 423.683L299.461 424.528C302.721 425.072 303.481 427.448 301.141 429.824L297.161 433.831C296.501 434.495 296.121 435.804 296.341 436.751L297.481 441.704C298.381 445.61 296.301 447.14 292.88 445.087L288.1 442.227C287.24 441.704 285.8 441.704 284.94 442.227L280.16 445.087C276.739 447.12 274.659 445.61 275.559 441.704L276.699 436.751C276.879 435.784 276.499 434.475 275.839 433.811L271.859 429.804C269.519 427.448 270.279 425.072 273.539 424.508L278.639 423.663C279.5 423.522 280.52 422.756 280.9 421.971L283.72 416.293C285.26 413.232 287.74 413.232 289.28 416.313Z" fill="#06C270"/>
<path d="M334.28 416.313L337.1 421.991C337.48 422.777 338.5 423.522 339.361 423.683L344.461 424.528C347.721 425.072 348.481 427.448 346.141 429.824L342.161 433.831C341.501 434.495 341.121 435.804 341.341 436.751L342.481 441.704C343.381 445.61 341.301 447.14 337.88 445.087L333.1 442.227C332.24 441.704 330.8 441.704 329.94 442.227L325.16 445.087C321.739 447.12 319.659 445.61 320.559 441.704L321.699 436.751C321.879 435.784 321.499 434.475 320.839 433.811L316.859 429.804C314.519 427.448 315.279 425.072 318.539 424.508L323.639 423.663C324.5 423.522 325.52 422.756 325.9 421.971L328.72 416.293C330.26 413.232 332.74 413.232 334.28 416.313Z" fill="#06C270"/>
<defs>
<linearGradient id="paint0_linear_68935_217840" x1="-325.149" y1="126.774" x2="775.641" y2="126.774" gradientUnits="userSpaceOnUse">
<stop stop-color="#4776E6"/>
<stop offset="1" stop-color="#8E54E9"/>
</linearGradient>
<linearGradient id="paint1_linear_68935_217840" x1="216.081" y1="377.331" x2="289.155" y2="377.331" gradientUnits="userSpaceOnUse">
<stop stop-color="#FF4C8B"/>
<stop offset="0.0035" stop-color="#FF4F8B"/>
<stop offset="0.0469" stop-color="#FD6A90"/>
<stop offset="0.094" stop-color="#FC7F94"/>
<stop offset="0.1465" stop-color="#FB8E97"/>
<stop offset="0.2084" stop-color="#FA9699"/>
<stop offset="0.3027" stop-color="#FA9999"/>
<stop offset="1" stop-color="#FF3163"/>
</linearGradient>
</defs>
</svg>
