<svg width="20" height="20" viewBox="0 0 20 20" fill="none" xmlns="http://www.w3.org/2000/svg">
<path d="M7.5 18.3333H12.5C16.6667 18.3333 18.3333 16.6666 18.3333 12.5V7.49996C18.3333 3.33329 16.6667 1.66663 12.5 1.66663H7.5C3.33334 1.66663 1.66667 3.33329 1.66667 7.49996V12.5C1.66667 16.6666 3.33334 18.3333 7.5 18.3333Z" stroke="#3F41D1" stroke-width="1.5" stroke-linecap="round" stroke-linejoin="round"/>
<path d="M12.9167 8.125C13.607 8.125 14.1667 7.56536 14.1667 6.875C14.1667 6.18464 13.607 5.625 12.9167 5.625C12.2263 5.625 11.6667 6.18464 11.6667 6.875C11.6667 7.56536 12.2263 8.125 12.9167 8.125Z" stroke="#3F41D1" stroke-width="1.5" stroke-miterlimit="10" stroke-linecap="round" stroke-linejoin="round"/>
<path d="M7.08333 8.125C7.77368 8.125 8.33333 7.56536 8.33333 6.875C8.33333 6.18464 7.77368 5.625 7.08333 5.625C6.39297 5.625 5.83333 6.18464 5.83333 6.875C5.83333 7.56536 6.39297 8.125 7.08333 8.125Z" stroke="#3F41D1" stroke-width="1.5" stroke-miterlimit="10" stroke-linecap="round" stroke-linejoin="round"/>
<path d="M7 11.0834H13C13.4167 11.0834 13.75 11.4167 13.75 11.8334C13.75 13.9084 12.075 15.5834 10 15.5834C7.925 15.5834 6.25 13.9084 6.25 11.8334C6.25 11.4167 6.58333 11.0834 7 11.0834Z" stroke="#3F41D1" stroke-width="1.5" stroke-miterlimit="10" stroke-linecap="round" stroke-linejoin="round"/>
</svg>
