<svg width="20" height="20" viewBox="0 0 20 20" fill="none" xmlns="http://www.w3.org/2000/svg">
<path d="M11.6667 1.66663C13.3333 1.66663 14.1667 2.50829 14.1667 4.19163V10.0666C14.1667 11.725 12.9917 12.3666 11.55 11.5L10.45 10.8333C10.2 10.6833 9.79999 10.6833 9.54999 10.8333L8.45 11.5C7.00833 12.3666 5.83333 11.725 5.83333 10.0666V4.19163C5.83333 2.50829 6.66666 1.66663 8.33333 1.66663H11.6667Z" stroke="#3F41D1" stroke-width="1.5" stroke-linecap="round" stroke-linejoin="round"/>
<path d="M5.68334 4.1583C2.84167 4.6333 1.66667 6.3833 1.66667 9.91663V12.4416C1.66667 16.65 3.33334 18.3333 7.5 18.3333H12.5C16.6667 18.3333 18.3333 16.65 18.3333 12.4416V9.91663C18.3333 6.32497 17.1167 4.56663 14.1667 4.1333" stroke="#3F41D1" stroke-width="1.5" stroke-linecap="round" stroke-linejoin="round"/>
</svg>
