<svg width="20" height="20" viewBox="0 0 20 20" fill="none" xmlns="http://www.w3.org/2000/svg">
<g clip-path="url(#clip0_82352_147343)">
<path d="M18.175 3.28335C16.8917 6.48335 13.675 10.8334 10.9833 12.9917L9.34167 14.3084C9.13334 14.4584 8.92501 14.5917 8.69167 14.6834C8.69167 14.5334 8.68334 14.3667 8.65834 14.2084C8.56667 13.5084 8.25001 12.8584 7.69167 12.3C7.12501 11.7334 6.43334 11.4 5.72501 11.3084C5.55834 11.3 5.39167 11.2834 5.22501 11.3C5.31667 11.0417 5.45834 10.8 5.63334 10.6L6.93334 8.95835C9.08334 6.26669 13.45 3.03335 16.6417 1.75835C17.1333 1.57502 17.6083 1.70835 17.9083 2.01669C18.225 2.32502 18.375 2.80002 18.175 3.28335Z" stroke="#3F41D1" stroke-width="1.5" stroke-linecap="round" stroke-linejoin="round"/>
<path d="M8.69167 14.6833C8.69167 15.6 8.34167 16.475 7.68334 17.1416C7.175 17.65 6.48334 18 5.65834 18.1083L3.60834 18.3333C2.49167 18.4583 1.53334 17.5083 1.66667 16.375L1.89167 14.325C2.09167 12.5 3.61667 11.3333 5.23334 11.3C5.4 11.2916 5.575 11.3 5.73334 11.3083C6.44167 11.4 7.13334 11.725 7.7 12.3C8.25834 12.8583 8.575 13.5083 8.66667 14.2083C8.675 14.3666 8.69167 14.525 8.69167 14.6833Z" stroke="#3F41D1" stroke-width="1.5" stroke-linecap="round" stroke-linejoin="round"/>
<path d="M11.8667 12.0584C11.8667 9.88337 10.1 8.1167 7.925 8.1167" stroke="#3F41D1" stroke-width="1.5" stroke-linecap="round" stroke-linejoin="round"/>
<path d="M16.7667 10.6083L17.3833 11.2166C18.625 12.4583 18.625 13.6833 17.3833 14.9249L14.9167 17.3916C13.6917 18.6166 12.45 18.6166 11.225 17.3916" stroke="#3F41D1" stroke-width="1.5" stroke-linecap="round"/>
<path d="M2.59166 8.7583C1.36666 7.51663 1.36666 6.29163 2.59166 5.04997L5.05833 2.5833C6.28333 1.3583 7.525 1.3583 8.75 2.5833L9.36666 3.19997" stroke="#3F41D1" stroke-width="1.5" stroke-linecap="round"/>
<path d="M9.37501 3.20837L6.29167 6.29171" stroke="#3F41D1" stroke-width="1.5" stroke-linecap="round"/>
<path d="M16.7667 10.6083L14.3 13.0666" stroke="#3F41D1" stroke-width="1.5" stroke-linecap="round"/>
</g>
<defs>
<clipPath id="clip0_82352_147343">
<rect width="20" height="20" fill="white"/>
</clipPath>
</defs>
</svg>
