<svg width="15" height="15" viewBox="0 0 15 15" fill="none" xmlns="http://www.w3.org/2000/svg">
<path d="M6.52539 1.76758H5.35872C2.44206 1.76758 1.27539 2.93424 1.27539 5.85091V9.35091C1.27539 12.2676 2.44206 13.4342 5.35872 13.4342H8.85872C11.7754 13.4342 12.9421 12.2676 12.9421 9.35091V8.18424" stroke="#666666" stroke-linecap="round" stroke-linejoin="round"/>
<path d="M9.46548 2.36264L4.86882 6.95931C4.69382 7.13431 4.51882 7.47848 4.48382 7.72931L4.23298 9.48514C4.13965 10.121 4.58882 10.5643 5.22465 10.4768L6.98048 10.226C7.22548 10.191 7.56965 10.016 7.75048 9.84098L12.3471 5.24431C13.1405 4.45098 13.5138 3.52931 12.3471 2.36264C11.1805 1.19598 10.2588 1.56931 9.46548 2.36264Z" stroke="#666666" stroke-miterlimit="10" stroke-linecap="round" stroke-linejoin="round"/>
<path d="M8.80664 3.02148C9.19747 4.41565 10.2883 5.50648 11.6883 5.90315" stroke="#666666" stroke-miterlimit="10" stroke-linecap="round" stroke-linejoin="round"/>
</svg>
