<svg width="20" height="20" viewBox="0 0 20 20" fill="none" xmlns="http://www.w3.org/2000/svg">
<mask id="path-1-inside-1_83103_68316" fill="white">
<path d="M8.70888 6.23821C7.355 6.23821 6.07477 7.03068 5.07872 7.93192V7.77741C5.07872 6.92875 4.38818 6.23821 3.53919 6.23821C2.69054 6.23821 2 6.92875 2 7.77741V17.5079C2 17.7796 2.22012 18 2.49207 18H4.58665C4.8586 18 5.07872 17.7796 5.07872 17.5079V17.1966H8.70888C8.9805 17.1966 9.20095 16.9765 9.20095 16.7045V6.73028C9.20095 6.45833 8.9805 6.23821 8.70888 6.23821ZM4.09458 17.0159H2.98414V7.77741C2.98414 7.47134 3.23313 7.22235 3.53919 7.22235C3.84559 7.22235 4.09458 7.47134 4.09458 7.77741V17.0159ZM6.09041 16.2125H5.07872V9.32513C5.29392 9.08533 5.64624 8.72054 6.09041 8.36068V16.2125ZM8.21681 16.2125H7.07455V7.69343C7.3342 7.54181 7.7876 7.34898 8.21681 7.26894V16.2125ZM16.6821 6.23821C15.8331 6.23821 15.1425 6.92875 15.1425 7.77741V7.93192C14.147 7.03117 12.8667 6.23821 11.5124 6.23821C11.2407 6.23821 11.0203 6.45833 11.0203 6.73028V16.7045C11.0203 16.9765 11.2407 17.1966 11.5124 17.1966H15.1425V17.5079C15.1425 17.7796 15.3627 18 15.6346 18H17.7292C18.0011 18 18.2213 17.7796 18.2213 17.5079V7.77741C18.2213 6.92875 17.5307 6.23821 16.6821 6.23821ZM13.1467 16.2125H12.0044V7.26894C12.4459 7.35128 12.9061 7.55296 13.1467 7.69343V16.2125ZM15.1425 16.2125H14.1308V8.361C14.574 8.72054 14.927 9.08566 15.1425 9.32579V16.2125ZM17.2371 17.0159H16.1267V7.77741C16.1267 7.47134 16.3757 7.22235 16.6821 7.22235C16.9881 7.22235 17.2371 7.47134 17.2371 7.77741V17.0159ZM5.20721 5.43752C5.39938 5.62969 5.71093 5.62969 5.9031 5.43752C6.09527 5.24538 6.09527 4.9338 5.9031 4.74163L5.44439 4.28293H7.40559C7.67734 4.28293 7.89766 4.06261 7.89766 3.79086C7.89766 3.5191 7.67734 3.29879 7.40559 3.29879H5.44436L5.9031 2.84005C6.09527 2.64791 6.09527 2.33633 5.9031 2.14416C5.71096 1.95202 5.39938 1.95202 5.20721 2.14416L3.90848 3.44293C3.71631 3.63507 3.71631 3.94665 3.90848 4.13881L5.20721 5.43752ZM12.7143 4.28289H14.6755L14.2168 4.74163C14.0246 4.93377 14.0246 5.24535 14.2168 5.43752C14.409 5.62969 14.7205 5.62969 14.9127 5.43752L16.2114 4.13878C16.4036 3.94665 16.4036 3.63507 16.2114 3.4429L14.9127 2.14413C14.7205 1.95192 14.409 1.95199 14.2168 2.14413C14.0246 2.33626 14.0246 2.64784 14.2168 2.84001L14.6755 3.29875H12.7143C12.4425 3.29875 12.2222 3.51907 12.2222 3.79082C12.2222 4.06258 12.4425 4.28289 12.7143 4.28289Z"/>
</mask>
<path d="M8.70888 6.23821C7.355 6.23821 6.07477 7.03068 5.07872 7.93192V7.77741C5.07872 6.92875 4.38818 6.23821 3.53919 6.23821C2.69054 6.23821 2 6.92875 2 7.77741V17.5079C2 17.7796 2.22012 18 2.49207 18H4.58665C4.8586 18 5.07872 17.7796 5.07872 17.5079V17.1966H8.70888C8.9805 17.1966 9.20095 16.9765 9.20095 16.7045V6.73028C9.20095 6.45833 8.9805 6.23821 8.70888 6.23821ZM4.09458 17.0159H2.98414V7.77741C2.98414 7.47134 3.23313 7.22235 3.53919 7.22235C3.84559 7.22235 4.09458 7.47134 4.09458 7.77741V17.0159ZM6.09041 16.2125H5.07872V9.32513C5.29392 9.08533 5.64624 8.72054 6.09041 8.36068V16.2125ZM8.21681 16.2125H7.07455V7.69343C7.3342 7.54181 7.7876 7.34898 8.21681 7.26894V16.2125ZM16.6821 6.23821C15.8331 6.23821 15.1425 6.92875 15.1425 7.77741V7.93192C14.147 7.03117 12.8667 6.23821 11.5124 6.23821C11.2407 6.23821 11.0203 6.45833 11.0203 6.73028V16.7045C11.0203 16.9765 11.2407 17.1966 11.5124 17.1966H15.1425V17.5079C15.1425 17.7796 15.3627 18 15.6346 18H17.7292C18.0011 18 18.2213 17.7796 18.2213 17.5079V7.77741C18.2213 6.92875 17.5307 6.23821 16.6821 6.23821ZM13.1467 16.2125H12.0044V7.26894C12.4459 7.35128 12.9061 7.55296 13.1467 7.69343V16.2125ZM15.1425 16.2125H14.1308V8.361C14.574 8.72054 14.927 9.08566 15.1425 9.32579V16.2125ZM17.2371 17.0159H16.1267V7.77741C16.1267 7.47134 16.3757 7.22235 16.6821 7.22235C16.9881 7.22235 17.2371 7.47134 17.2371 7.77741V17.0159ZM5.20721 5.43752C5.39938 5.62969 5.71093 5.62969 5.9031 5.43752C6.09527 5.24538 6.09527 4.9338 5.9031 4.74163L5.44439 4.28293H7.40559C7.67734 4.28293 7.89766 4.06261 7.89766 3.79086C7.89766 3.5191 7.67734 3.29879 7.40559 3.29879H5.44436L5.9031 2.84005C6.09527 2.64791 6.09527 2.33633 5.9031 2.14416C5.71096 1.95202 5.39938 1.95202 5.20721 2.14416L3.90848 3.44293C3.71631 3.63507 3.71631 3.94665 3.90848 4.13881L5.20721 5.43752ZM12.7143 4.28289H14.6755L14.2168 4.74163C14.0246 4.93377 14.0246 5.24535 14.2168 5.43752C14.409 5.62969 14.7205 5.62969 14.9127 5.43752L16.2114 4.13878C16.4036 3.94665 16.4036 3.63507 16.2114 3.4429L14.9127 2.14413C14.7205 1.95192 14.409 1.95199 14.2168 2.14413C14.0246 2.33626 14.0246 2.64784 14.2168 2.84001L14.6755 3.29875H12.7143C12.4425 3.29875 12.2222 3.51907 12.2222 3.79082C12.2222 4.06258 12.4425 4.28289 12.7143 4.28289Z" fill="#666666"/>
<path d="M5.07872 7.93192H4.04329V10.2652L5.77343 8.69971L5.07872 7.93192ZM5.07872 17.1966V16.1612H4.04329V17.1966H5.07872ZM4.09458 17.0159V18.0513H5.13001V17.0159H4.09458ZM2.98414 17.0159H1.94871V18.0513H2.98414V17.0159ZM6.09041 16.2125V17.2479H7.12584V16.2125H6.09041ZM5.07872 16.2125H4.04329V17.2479H5.07872V16.2125ZM5.07872 9.32513L4.30809 8.63357L4.04329 8.92866V9.32513H5.07872ZM6.09041 8.36068H7.12584V6.18916L5.4386 7.55616L6.09041 8.36068ZM8.21681 16.2125V17.2479H9.25224V16.2125H8.21681ZM7.07455 16.2125H6.03912V17.2479H7.07455V16.2125ZM7.07455 7.69343L6.55242 6.79929L6.03912 7.09903V7.69343H7.07455ZM8.21681 7.26894H9.25224V6.02256L8.02699 6.25106L8.21681 7.26894ZM15.1425 7.93192L14.4478 8.6997L16.178 10.2652V7.93192H15.1425ZM15.1425 17.1966H16.178V16.1612H15.1425V17.1966ZM13.1467 16.2125V17.2479H14.1821V16.2125H13.1467ZM12.0044 16.2125H10.969V17.2479H12.0044V16.2125ZM12.0044 7.26894L12.1943 6.25106L10.969 6.02254V7.26894H12.0044ZM13.1467 7.69343H14.1821V7.09902L13.6688 6.79928L13.1467 7.69343ZM15.1425 16.2125V17.2479H16.178V16.2125H15.1425ZM14.1308 16.2125H13.0954V17.2479H14.1308V16.2125ZM14.1308 8.361L14.7832 7.5569L13.0954 6.1877V8.361H14.1308ZM15.1425 9.32579H16.178V8.92927L15.9131 8.63417L15.1425 9.32579ZM17.2371 17.0159V18.0513H18.2725V17.0159H17.2371ZM16.1267 17.0159H15.0912V18.0513H16.1267V17.0159ZM5.20721 5.43752L5.93937 4.70536L5.93936 4.70535L5.20721 5.43752ZM5.9031 5.43752L5.171 4.7053L5.17094 4.70536L5.9031 5.43752ZM5.44439 4.28293V3.24749H2.94464L4.71223 5.01509L5.44439 4.28293ZM5.44436 3.29879L4.7122 2.56663L2.94461 4.33422H5.44436V3.29879ZM5.9031 2.84005L5.171 2.10782L5.17094 2.10789L5.9031 2.84005ZM5.20721 2.14416L4.47512 1.41194L4.47504 1.41201L5.20721 2.14416ZM3.90848 3.44293L4.64057 4.17515L4.64065 4.17508L3.90848 3.44293ZM3.90848 4.13881L3.17632 4.87098L3.17633 4.87098L3.90848 4.13881ZM14.6755 4.28289L15.4077 5.01503L17.1751 3.24746H14.6755V4.28289ZM14.2168 4.74163L14.9489 5.47386L14.949 5.47377L14.2168 4.74163ZM14.9127 5.43752L14.1805 4.70536L14.1805 4.70536L14.9127 5.43752ZM16.2114 4.13878L15.4793 3.40656L15.4792 3.40662L16.2114 4.13878ZM16.2114 3.4429L15.4792 4.17505L15.4792 4.17506L16.2114 3.4429ZM14.9127 2.14413L14.1804 2.87616L14.1805 2.87628L14.9127 2.14413ZM14.2168 2.84001L13.4846 3.57217L13.4846 3.57217L14.2168 2.84001ZM14.6755 3.29875V4.33418H17.1753L15.4077 2.56659L14.6755 3.29875ZM8.70888 5.20278C6.96871 5.20278 5.44539 6.20378 4.38401 7.16413L5.77343 8.69971C6.70415 7.85758 7.74129 7.27365 8.70888 7.27365V5.20278ZM6.11415 7.93192V7.77741H4.04329V7.93192H6.11415ZM6.11415 7.77741C6.11415 6.35676 4.95989 5.20278 3.53919 5.20278V7.27365C3.81647 7.27365 4.04329 7.50075 4.04329 7.77741H6.11415ZM3.53919 5.20278C2.11868 5.20278 0.964569 6.3569 0.964569 7.77741H3.03543C3.03543 7.50061 3.26239 7.27365 3.53919 7.27365V5.20278ZM0.964569 7.77741V17.5079H3.03543V7.77741H0.964569ZM0.964569 17.5079C0.964569 18.351 1.64782 19.0354 2.49207 19.0354V16.9646C2.79242 16.9646 3.03543 17.2081 3.03543 17.5079H0.964569ZM2.49207 19.0354H4.58665V16.9646H2.49207V19.0354ZM4.58665 19.0354C5.4309 19.0354 6.11415 18.351 6.11415 17.5079H4.04329C4.04329 17.2081 4.2863 16.9646 4.58665 16.9646V19.0354ZM6.11415 17.5079V17.1966H4.04329V17.5079H6.11415ZM5.07872 18.232H8.70888V16.1612H5.07872V18.232ZM8.70888 18.232C9.55191 18.232 10.2364 17.5488 10.2364 16.7045H8.16552C8.16552 16.4042 8.4091 16.1612 8.70888 16.1612V18.232ZM10.2364 16.7045V6.73028H8.16552V16.7045H10.2364ZM10.2364 6.73028C10.2364 5.88603 9.55191 5.20278 8.70888 5.20278V7.27365C8.4091 7.27365 8.16552 7.03064 8.16552 6.73028H10.2364ZM4.09458 15.9804H2.98414V18.0513H4.09458V15.9804ZM4.01957 17.0159V7.77741H1.94871V17.0159H4.01957ZM4.01957 7.77741C4.01957 8.04319 3.80498 8.25779 3.53919 8.25779V6.18692C2.66127 6.18692 1.94871 6.89949 1.94871 7.77741H4.01957ZM3.53919 8.25779C3.27413 8.25779 3.05915 8.04359 3.05915 7.77741H5.13001C5.13001 6.89909 4.41705 6.18692 3.53919 6.18692V8.25779ZM3.05915 7.77741V17.0159H5.13001V7.77741H3.05915ZM6.09041 15.177H5.07872V17.2479H6.09041V15.177ZM6.11415 16.2125V9.32513H4.04329V16.2125H6.11415ZM5.84934 10.0167C6.04026 9.80395 6.35281 9.48071 6.74223 9.1652L5.4386 7.55616C4.93967 7.96038 4.54757 8.36672 4.30809 8.63357L5.84934 10.0167ZM5.05498 8.36068V16.2125H7.12584V8.36068H5.05498ZM8.21681 15.177H7.07455V17.2479H8.21681V15.177ZM8.10998 16.2125V7.69343H6.03912V16.2125H8.10998ZM7.59669 8.58757C7.76942 8.48671 8.11132 8.34189 8.40663 8.28682L8.02699 6.25106C7.46387 6.35607 6.89898 6.59691 6.55242 6.79929L7.59669 8.58757ZM7.18138 7.26894V16.2125H9.25224V7.26894H7.18138ZM16.6821 5.20278C15.2614 5.20278 14.1071 6.35676 14.1071 7.77741H16.178C16.178 7.50075 16.4048 7.27365 16.6821 7.27365V5.20278ZM14.1071 7.77741V7.93192H16.178V7.77741H14.1071ZM15.8372 7.16414C14.7765 6.20436 13.253 5.20278 11.5124 5.20278V7.27365C12.4803 7.27365 13.5176 7.85798 14.4478 8.6997L15.8372 7.16414ZM11.5124 5.20278C10.6693 5.20278 9.98487 5.88603 9.98487 6.73028H12.0557C12.0557 7.03064 11.8121 7.27365 11.5124 7.27365V5.20278ZM9.98487 6.73028V16.7045H12.0557V6.73028H9.98487ZM9.98487 16.7045C9.98487 17.5488 10.6693 18.232 11.5124 18.232V16.1612C11.8121 16.1612 12.0557 16.4042 12.0557 16.7045H9.98487ZM11.5124 18.232H15.1425V16.1612H11.5124V18.232ZM14.1071 17.1966V17.5079H16.178V17.1966H14.1071ZM14.1071 17.5079C14.1071 18.351 14.7903 19.0354 15.6346 19.0354V16.9646C15.935 16.9646 16.178 17.2081 16.178 17.5079H14.1071ZM15.6346 19.0354H17.7292V16.9646H15.6346V19.0354ZM17.7292 19.0354C18.5734 19.0354 19.2567 18.351 19.2567 17.5079H17.1858C17.1858 17.2081 17.4288 16.9646 17.7292 16.9646V19.0354ZM19.2567 17.5079V7.77741H17.1858V17.5079H19.2567ZM19.2567 7.77741C19.2567 6.3569 18.1026 5.20278 16.6821 5.20278V7.27365C16.9589 7.27365 17.1858 7.50061 17.1858 7.77741H19.2567ZM13.1467 15.177H12.0044V17.2479H13.1467V15.177ZM13.0399 16.2125V7.26894H10.969V16.2125H13.0399ZM11.8146 8.28682C11.9551 8.31302 12.1165 8.36223 12.2741 8.4238C12.4322 8.48561 12.5577 8.54855 12.6246 8.58758L13.6688 6.79928C13.3458 6.61064 12.7739 6.35916 12.1943 6.25106L11.8146 8.28682ZM12.1113 7.69343V16.2125H14.1821V7.69343H12.1113ZM15.1425 15.177H14.1308V17.2479H15.1425V15.177ZM15.1663 16.2125V8.361H13.0954V16.2125H15.1663ZM13.4785 9.16511C13.8674 9.48062 14.1808 9.80447 14.372 10.0174L15.9131 8.63417C15.6732 8.36685 15.2806 7.96047 14.7832 7.5569L13.4785 9.16511ZM14.1071 9.32579V16.2125H16.178V9.32579H14.1071ZM17.2371 15.9804H16.1267V18.0513H17.2371V15.9804ZM17.1621 17.0159V7.77741H15.0912V17.0159H17.1621ZM17.1621 7.77741C17.1621 8.04359 16.9471 8.25779 16.6821 8.25779V6.18692C15.8042 6.18692 15.0912 6.89909 15.0912 7.77741H17.1621ZM16.6821 8.25779C16.4163 8.25779 16.2017 8.0432 16.2017 7.77741H18.2725C18.2725 6.89949 17.56 6.18692 16.6821 6.18692V8.25779ZM16.2017 7.77741V17.0159H18.2725V7.77741H16.2017ZM4.47505 6.16968C5.07158 6.76621 6.03873 6.76621 6.63526 6.16968L5.17094 4.70536C5.38313 4.49317 5.72718 4.49317 5.93937 4.70536L4.47505 6.16968ZM6.6352 6.16974C7.23185 5.5732 7.23176 4.60597 6.63526 4.00947L5.17094 5.47379C4.95878 5.26164 4.95869 4.91757 5.171 4.7053L6.6352 6.16974ZM6.63526 4.00947L6.17655 3.55077L4.71223 5.01509L5.17094 5.47379L6.63526 4.00947ZM5.44439 5.31836H7.40559V3.24749H5.44439V5.31836ZM7.40559 5.31836C8.24919 5.31836 8.93309 4.63446 8.93309 3.79086H6.86222C6.86222 3.49076 7.10549 3.24749 7.40559 3.24749V5.31836ZM8.93309 3.79086C8.93309 2.94725 8.24919 2.26335 7.40559 2.26335V4.33422C7.10549 4.33422 6.86222 4.09095 6.86222 3.79086H8.93309ZM7.40559 2.26335H5.44436V4.33422H7.40559V2.26335ZM6.17652 4.03095L6.63526 3.57221L5.17094 2.10789L4.7122 2.56663L6.17652 4.03095ZM6.6352 3.57227C7.23185 2.97572 7.23176 2.0085 6.63526 1.412L5.17094 2.87632C4.95878 2.66416 4.95869 2.3201 5.171 2.10782L6.6352 3.57227ZM6.63526 1.412C6.03873 0.815467 5.0716 0.815557 4.47512 1.41194L5.93931 2.87638C5.72717 3.08849 5.3832 3.08858 5.17094 2.87632L6.63526 1.412ZM4.47504 1.41201L3.17631 2.71078L4.64065 4.17508L5.93938 2.87631L4.47504 1.41201ZM3.17638 2.71071C2.57973 3.30725 2.57982 4.27448 3.17632 4.87098L4.64064 3.40665C4.85279 3.61881 4.85288 3.96288 4.64057 4.17515L3.17638 2.71071ZM3.17633 4.87098L4.47506 6.16969L5.93936 4.70535L4.64063 3.40665L3.17633 4.87098ZM12.7143 5.31832H14.6755V3.24746H12.7143V5.31832ZM13.9433 3.55076L13.4846 4.0095L14.949 5.47377L15.4077 5.01503L13.9433 3.55076ZM13.4847 4.00941C12.888 4.60596 12.8881 5.57318 13.4846 6.16968L14.9489 4.70536C15.1611 4.91752 15.1612 5.26158 14.9489 5.47386L13.4847 4.00941ZM13.4846 6.16968C14.0812 6.76621 15.0483 6.76621 15.6448 6.16968L14.1805 4.70536C14.3927 4.49317 14.7368 4.49317 14.9489 4.70536L13.4846 6.16968ZM15.6448 6.16968L16.9436 4.87094L15.4792 3.40662L14.1805 4.70536L15.6448 6.16968ZM16.9435 4.87101C17.5402 4.27446 17.5401 3.30723 16.9436 2.71074L15.4792 4.17506C15.2671 3.9629 15.267 3.61883 15.4793 3.40656L16.9435 4.87101ZM16.9436 2.71075L15.6448 1.41198L14.1805 2.87628L15.4792 4.17505L16.9436 2.71075ZM15.645 1.41209C15.0482 0.815168 14.081 0.815683 13.4847 1.4119L14.9489 2.87635C14.7369 3.0883 14.3928 3.08868 14.1804 2.87616L15.645 1.41209ZM13.4847 1.4119C12.888 2.00845 12.8881 2.97568 13.4846 3.57217L14.9489 2.10785C15.1611 2.32001 15.1612 2.66408 14.9489 2.87635L13.4847 1.4119ZM13.4846 3.57217L13.9434 4.03091L15.4077 2.56659L14.9489 2.10785L13.4846 3.57217ZM14.6755 2.26332H12.7143V4.33418H14.6755V2.26332ZM12.7143 2.26332C11.8707 2.26332 11.1868 2.94722 11.1868 3.79082H13.2577C13.2577 4.09092 13.0144 4.33418 12.7143 4.33418V2.26332ZM11.1868 3.79082C11.1868 4.63443 11.8707 5.31832 12.7143 5.31832V3.24746C13.0144 3.24746 13.2577 3.49072 13.2577 3.79082H11.1868Z" fill="#3F41D1" mask="url(#path-1-inside-1_83103_68316)"/>
</svg>
