<svg width="20" height="20" viewBox="0 0 20 20" fill="none" xmlns="http://www.w3.org/2000/svg">
<path d="M8.70888 6.23821C7.355 6.23821 6.07477 7.03068 5.07872 7.93192V7.77741C5.07872 6.92875 4.38818 6.23821 3.53919 6.23821C2.69054 6.23821 2 6.92875 2 7.77741V17.5079C2 17.7796 2.22012 18 2.49207 18H4.58665C4.8586 18 5.07872 17.7796 5.07872 17.5079V17.1966H8.70888C8.9805 17.1966 9.20095 16.9765 9.20095 16.7045V6.73028C9.20095 6.45833 8.9805 6.23821 8.70888 6.23821ZM4.09458 17.0159H2.98414V7.77741C2.98414 7.47134 3.23313 7.22235 3.53919 7.22235C3.84559 7.22235 4.09458 7.47134 4.09458 7.77741V17.0159ZM6.09041 16.2125H5.07872V9.32513C5.29392 9.08533 5.64624 8.72054 6.09041 8.36068V16.2125ZM8.21681 16.2125H7.07455V7.69343C7.3342 7.54181 7.7876 7.34898 8.21681 7.26894V16.2125ZM16.6821 6.23821C15.8331 6.23821 15.1425 6.92875 15.1425 7.77741V7.93192C14.147 7.03117 12.8667 6.23821 11.5124 6.23821C11.2407 6.23821 11.0203 6.45833 11.0203 6.73028V16.7045C11.0203 16.9765 11.2407 17.1966 11.5124 17.1966H15.1425V17.5079C15.1425 17.7796 15.3627 18 15.6346 18H17.7292C18.0011 18 18.2213 17.7796 18.2213 17.5079V7.77741C18.2213 6.92875 17.5307 6.23821 16.6821 6.23821ZM13.1467 16.2125H12.0044V7.26894C12.4459 7.35128 12.9061 7.55296 13.1467 7.69343V16.2125ZM15.1425 16.2125H14.1308V8.361C14.574 8.72054 14.927 9.08566 15.1425 9.32579V16.2125ZM17.2371 17.0159H16.1267V7.77741C16.1267 7.47134 16.3757 7.22235 16.6821 7.22235C16.9881 7.22235 17.2371 7.47134 17.2371 7.77741V17.0159ZM5.20721 5.43752C5.39938 5.62969 5.71093 5.62969 5.9031 5.43752C6.09527 5.24538 6.09527 4.9338 5.9031 4.74163L5.44439 4.28293H7.40559C7.67734 4.28293 7.89766 4.06261 7.89766 3.79086C7.89766 3.5191 7.67734 3.29879 7.40559 3.29879H5.44436L5.9031 2.84005C6.09527 2.64791 6.09527 2.33633 5.9031 2.14416C5.71096 1.95202 5.39938 1.95202 5.20721 2.14416L3.90848 3.44293C3.71631 3.63507 3.71631 3.94665 3.90848 4.13881L5.20721 5.43752ZM12.7143 4.28289H14.6755L14.2168 4.74163C14.0246 4.93377 14.0246 5.24535 14.2168 5.43752C14.409 5.62969 14.7205 5.62969 14.9127 5.43752L16.2114 4.13878C16.4036 3.94665 16.4036 3.63507 16.2114 3.4429L14.9127 2.14413C14.7205 1.95192 14.409 1.95199 14.2168 2.14413C14.0246 2.33626 14.0246 2.64784 14.2168 2.84001L14.6755 3.29875H12.7143C12.4425 3.29875 12.2222 3.51907 12.2222 3.79082C12.2222 4.06258 12.4425 4.28289 12.7143 4.28289Z" fill="#3F41D1"/>
</svg>
