<svg width="50" height="50" viewBox="0 0 50 50" fill="none" xmlns="http://www.w3.org/2000/svg">
<rect width="50" height="50" rx="25" fill="#F2F2F2"/>
<mask id="mask0_82236_4154" style="mask-type:alpha" maskUnits="userSpaceOnUse" x="13" y="13" width="24" height="24">
<rect x="13" y="13" width="24" height="24" fill="#D9D9D9"/>
</mask>
<g mask="url(#mask0_82236_4154)">
<path d="M24 30H26V24H24V30ZM25 22C25.2833 22 25.5208 21.9042 25.7125 21.7125C25.9042 21.5208 26 21.2833 26 21C26 20.7167 25.9042 20.4792 25.7125 20.2875C25.5208 20.0958 25.2833 20 25 20C24.7167 20 24.4792 20.0958 24.2875 20.2875C24.0958 20.4792 24 20.7167 24 21C24 21.2833 24.0958 21.5208 24.2875 21.7125C24.4792 21.9042 24.7167 22 25 22ZM25 35C23.6167 35 22.3167 34.7375 21.1 34.2125C19.8833 33.6875 18.825 32.975 17.925 32.075C17.025 31.175 16.3125 30.1167 15.7875 28.9C15.2625 27.6833 15 26.3833 15 25C15 23.6167 15.2625 22.3167 15.7875 21.1C16.3125 19.8833 17.025 18.825 17.925 17.925C18.825 17.025 19.8833 16.3125 21.1 15.7875C22.3167 15.2625 23.6167 15 25 15C26.3833 15 27.6833 15.2625 28.9 15.7875C30.1167 16.3125 31.175 17.025 32.075 17.925C32.975 18.825 33.6875 19.8833 34.2125 21.1C34.7375 22.3167 35 23.6167 35 25C35 26.3833 34.7375 27.6833 34.2125 28.9C33.6875 30.1167 32.975 31.175 32.075 32.075C31.175 32.975 30.1167 33.6875 28.9 34.2125C27.6833 34.7375 26.3833 35 25 35Z" fill="#3635C9"/>
</g>
</svg>
