<svg width="32" height="32" viewBox="0 0 32 32" fill="none" xmlns="http://www.w3.org/2000/svg">
<g clip-path="url(#clip0_80948_6506)">
<rect width="32" height="32" rx="16" fill="#EBEBFA"/>
<path d="M18.7933 9.3335H13.2066C10.7799 9.3335 9.33325 10.7802 9.33325 13.2068V18.7868C9.33325 21.2202 10.7799 22.6668 13.2066 22.6668H18.7866C21.2133 22.6668 22.6599 21.2202 22.6599 18.7935V13.2068C22.6666 10.7802 21.2199 9.3335 18.7933 9.3335ZM18.4999 18.5002H13.4999C13.2266 18.5002 12.9999 18.2735 12.9999 18.0002C12.9999 17.7268 13.2266 17.5002 13.4999 17.5002H18.4999C18.7733 17.5002 18.9999 17.7268 18.9999 18.0002C18.9999 18.2735 18.7733 18.5002 18.4999 18.5002ZM18.4999 14.5002H13.4999C13.2266 14.5002 12.9999 14.2735 12.9999 14.0002C12.9999 13.7268 13.2266 13.5002 13.4999 13.5002H18.4999C18.7733 13.5002 18.9999 13.7268 18.9999 14.0002C18.9999 14.2735 18.7733 14.5002 18.4999 14.5002Z" fill="#3F41D1"/>
</g>
<defs>
<clipPath id="clip0_80948_6506">
<rect width="32" height="32" rx="16" fill="white"/>
</clipPath>
</defs>
</svg>
