<svg width="20" height="21" viewBox="0 0 20 21" fill="none" xmlns="http://www.w3.org/2000/svg">
<path d="M14.1417 10.7084V14.4584C14.1417 17.5834 12.8917 18.8334 9.76667 18.8334H6.01667C2.89167 18.8334 1.64167 17.5834 1.64167 14.4584V10.7084C1.64167 7.58337 2.89167 6.33337 6.01667 6.33337H9.76667C12.8917 6.33337 14.1417 7.58337 14.1417 10.7084Z" stroke="#3F41D1" stroke-width="1.5" stroke-linecap="round" stroke-linejoin="round"/>
<path d="M18.3083 6.74996C18.3083 9.14163 16.4833 11.1 14.1417 11.3083V10.7083C14.1417 7.58329 12.8917 6.33329 9.76667 6.33329H9.16667C9.375 3.99163 11.3333 2.16663 13.725 2.16663C16.05 2.16663 17.9667 3.89163 18.2583 6.14163C18.2917 6.33329 18.3083 6.54163 18.3083 6.74996Z" stroke="#3F41D1" stroke-width="1.5" stroke-linecap="round" stroke-linejoin="round"/>
</svg>
