<svg width="20" height="20" viewBox="0 0 20 20" fill="none" xmlns="http://www.w3.org/2000/svg">
<path d="M15 15.7167H14.3667C13.7 15.7167 13.0667 15.975 12.6 16.4417L11.175 17.85C10.525 18.4917 9.46668 18.4917 8.81668 17.85L7.39166 16.4417C6.925 15.975 6.28333 15.7167 5.625 15.7167H5C3.61667 15.7167 2.5 14.6084 2.5 13.2417V4.14169C2.5 2.77502 3.61667 1.66669 5 1.66669H15C16.3833 1.66669 17.5 2.77502 17.5 4.14169V13.2334C17.5 14.6 16.3833 15.7167 15 15.7167Z" stroke="#3F41D1" stroke-width="1.5" stroke-miterlimit="10" stroke-linecap="round" stroke-linejoin="round"/>
<path d="M10.0583 7.45831C10.025 7.45831 9.97498 7.45831 9.93331 7.45831C9.05831 7.42498 8.36664 6.71665 8.36664 5.83331C8.36664 4.93331 9.09165 4.20831 9.99165 4.20831C10.8916 4.20831 11.6167 4.94165 11.6167 5.83331C11.625 6.71665 10.9333 7.43331 10.0583 7.45831Z" stroke="#3F41D1" stroke-width="1.5" stroke-linecap="round" stroke-linejoin="round"/>
<path d="M7.70833 9.96667C6.59999 10.7083 6.59999 11.9167 7.70833 12.6583C8.96666 13.5 11.0333 13.5 12.2917 12.6583C13.4 11.9167 13.4 10.7083 12.2917 9.96667C11.0333 9.13334 8.97499 9.13334 7.70833 9.96667Z" stroke="#3F41D1" stroke-width="1.5" stroke-linecap="round" stroke-linejoin="round"/>
</svg>
