<svg width="40" height="40" viewBox="0 0 40 40" fill="none" xmlns="http://www.w3.org/2000/svg">
<g clip-path="url(#clip0_74442_27007)">
<rect width="40" height="40" rx="20" fill="#EBEBFA"/>
<path d="M11.5 26V15C11.5 11 12.5 10 16.5 10H23.5C27.5 10 28.5 11 28.5 15V25C28.5 25.14 28.5 25.28 28.49 25.42" stroke="#3F41D1" stroke-width="1.5" stroke-linecap="round" stroke-linejoin="round"/>
<path d="M14.35 23H28.5V26.5C28.5 28.43 26.93 30 25 30H15C13.07 30 11.5 28.43 11.5 26.5V25.85C11.5 24.28 12.78 23 14.35 23Z" stroke="#3F41D1" stroke-width="1.5" stroke-linecap="round" stroke-linejoin="round"/>
<path d="M16 15H24" stroke="#3F41D1" stroke-width="1.5" stroke-linecap="round" stroke-linejoin="round"/>
<path d="M16 18.5H21" stroke="#3F41D1" stroke-width="1.5" stroke-linecap="round" stroke-linejoin="round"/>
</g>
<defs>
<clipPath id="clip0_74442_27007">
<rect width="40" height="40" rx="20" fill="white"/>
</clipPath>
</defs>
</svg>
