<svg width="20" height="20" viewBox="0 0 20 20" fill="none" xmlns="http://www.w3.org/2000/svg">
<path d="M7.49999 18.3334H12.5C16.6667 18.3334 18.3333 16.6667 18.3333 12.5V7.50002C18.3333 3.33335 16.6667 1.66669 12.5 1.66669H7.49999C3.33332 1.66669 1.66666 3.33335 1.66666 7.50002V12.5C1.66666 16.6667 3.33332 18.3334 7.49999 18.3334Z" stroke="#3F41D1" stroke-width="1.5" stroke-linecap="round" stroke-linejoin="round"/>
<path d="M15.3167 12.725V6.31668C15.3167 5.67501 14.8 5.20835 14.1667 5.25835H14.1333C13.0167 5.35002 11.325 5.92503 10.375 6.51669L10.2833 6.57503C10.1333 6.6667 9.87497 6.6667 9.71663 6.57503L9.58332 6.49169C8.64166 5.90003 6.94999 5.34168 5.83332 5.25001C5.19999 5.20001 4.68332 5.67503 4.68332 6.30836V12.725C4.68332 13.2333 5.09997 13.7167 5.60831 13.775L5.7583 13.8C6.9083 13.95 8.69168 14.5417 9.70834 15.1L9.73332 15.1084C9.87498 15.1917 10.1083 15.1917 10.2416 15.1084C11.2583 14.5417 13.05 13.9584 14.2083 13.8L14.3833 13.775C14.9 13.7167 15.3167 13.2417 15.3167 12.725Z" stroke="#3F41D1" stroke-width="1.5" stroke-linecap="round" stroke-linejoin="round"/>
<path d="M10 6.75V14.7167" stroke="#3F41D1" stroke-width="1.5" stroke-linecap="round" stroke-linejoin="round"/>
</svg>
