<svg width="20" height="20" viewBox="0 0 20 20" fill="none" xmlns="http://www.w3.org/2000/svg">
<path d="M18.4583 8.33334C18.4583 8.36349 18.446 8.39477 18.4204 8.42042C18.3948 8.44606 18.3635 8.45834 18.3333 8.45834C17.2572 8.45834 16.375 9.34053 16.375 10.4167C16.375 11.4928 17.2572 12.375 18.3333 12.375C18.3635 12.375 18.3948 12.3873 18.4204 12.4129C18.446 12.4386 18.4583 12.4699 18.4583 12.5C18.4583 14.3203 18.1735 15.334 17.5871 15.9204C17.0006 16.5069 15.9869 16.7917 14.1667 16.7917H9.45832V15.4167C9.45832 14.7989 8.95113 14.2917 8.33332 14.2917C7.71551 14.2917 7.20832 14.7989 7.20832 15.4167V16.7917H5.83332C4.01304 16.7917 2.99937 16.5069 2.41292 15.9204C1.82647 15.334 1.54166 14.3203 1.54166 12.5V12.0833C1.54166 12.0532 1.55394 12.0219 1.57958 11.9963C1.60523 11.9706 1.63651 11.9583 1.66666 11.9583C2.7428 11.9583 3.62499 11.0762 3.62499 10C3.62499 8.92387 2.7428 8.04168 1.66666 8.04168C1.63651 8.04168 1.60523 8.02939 1.57958 8.00375C1.55394 7.9781 1.54166 7.94682 1.54166 7.91668V7.50001C1.54166 5.67973 1.82647 4.66605 2.41292 4.07961C2.99937 3.49316 4.01304 3.20834 5.83332 3.20834H7.20832V4.58334C7.20832 5.20115 7.71551 5.70834 8.33332 5.70834C8.95113 5.70834 9.45832 5.20115 9.45832 4.58334V3.20834H14.1667C15.9869 3.20834 17.0006 3.49316 17.5871 4.07961C18.1735 4.66605 18.4583 5.67973 18.4583 7.50001V8.33334ZM8.33332 12.9333C8.95113 12.9333 9.45832 12.4262 9.45832 11.8083V8.19168C9.45832 7.57387 8.95113 7.06668 8.33332 7.06668C7.71551 7.06668 7.20832 7.57387 7.20832 8.19168V11.8083C7.20832 12.4262 7.71551 12.9333 8.33332 12.9333Z" fill="#4B4DD4" stroke="#4B4DD4"/>
</svg>
