<svg width="32" height="32" viewBox="0 0 32 32" fill="none" xmlns="http://www.w3.org/2000/svg">
<g clip-path="url(#clip0_80899_6817)">
<rect width="32" height="32" rx="16" fill="#EBEBFA"/>
<path d="M18.7933 9.3335H13.2066C10.7799 9.3335 9.33325 10.7802 9.33325 13.2068V18.7935C9.33325 20.6668 10.1933 21.9535 11.7066 22.4402C12.1466 22.5935 12.6533 22.6668 13.2066 22.6668H18.7933C19.3466 22.6668 19.8533 22.5935 20.2933 22.4402C21.8066 21.9535 22.6666 20.6668 22.6666 18.7935V13.2068C22.6666 10.7802 21.2199 9.3335 18.7933 9.3335ZM21.6666 18.7935C21.6666 20.2202 21.1066 21.1202 19.9799 21.4935C19.3333 20.2202 17.7999 19.3135 15.9999 19.3135C14.1999 19.3135 12.6733 20.2135 12.0199 21.4935H12.0133C10.8999 21.1335 10.3333 20.2268 10.3333 18.8002V13.2068C10.3333 11.3268 11.3266 10.3335 13.2066 10.3335H18.7933C20.6733 10.3335 21.6666 11.3268 21.6666 13.2068V18.7935Z" fill="#3F41D1"/>
<path d="M15.9999 13.3335C14.6799 13.3335 13.6133 14.4002 13.6133 15.7202C13.6133 17.0402 14.6799 18.1135 15.9999 18.1135C17.3199 18.1135 18.3866 17.0402 18.3866 15.7202C18.3866 14.4002 17.3199 13.3335 15.9999 13.3335Z" fill="#3F41D1"/>
</g>
<defs>
<clipPath id="clip0_80899_6817">
<rect width="32" height="32" rx="16" fill="white"/>
</clipPath>
</defs>
</svg>
