<svg width="14" height="14" viewBox="0 0 14 14" fill="none" xmlns="http://www.w3.org/2000/svg">
<path d="M10.5 11.002H10.0567C9.58999 11.002 9.14666 11.1828 8.82 11.5095L7.82248 12.4953C7.36748 12.9445 6.62668 12.9445 6.17168 12.4953L5.17416 11.5095C4.8475 11.1828 4.39833 11.002 3.9375 11.002H3.5C2.53167 11.002 1.75 10.2262 1.75 9.26952V2.90533C1.75 1.94867 2.53167 1.17285 3.5 1.17285H10.5C11.4683 1.17285 12.25 1.94867 12.25 2.90533V9.26952C12.25 10.2204 11.4683 11.002 10.5 11.002Z" stroke="#666666" stroke-miterlimit="10" stroke-linecap="round" stroke-linejoin="round"/>
<path d="M6.9998 5.83355C7.75045 5.83355 8.35898 5.22502 8.35898 4.47438C8.35898 3.72373 7.75045 3.11523 6.9998 3.11523C6.24915 3.11523 5.64062 3.72373 5.64062 4.47438C5.64062 5.22502 6.24915 5.83355 6.9998 5.83355Z" stroke="#666666" stroke-linecap="round" stroke-linejoin="round"/>
<path d="M9.33268 9.13504C9.33268 8.08504 8.28852 7.2334 6.99935 7.2334C5.71018 7.2334 4.66602 8.08504 4.66602 9.13504" stroke="#666666" stroke-linecap="round" stroke-linejoin="round"/>
</svg>
