<svg width="32" height="32" viewBox="0 0 32 32" fill="none" xmlns="http://www.w3.org/2000/svg">
<path d="M18 10.2V14C15.21 14.05 14.05 15.21 14 18H10.2C7.2 18 6 16.8 6 13.8V10.2C6 7.19995 7.2 6 10.2 6H13.8C16.8 6 18 7.19995 18 10.2Z" stroke="#3F41D1" stroke-width="1.5" stroke-linecap="round" stroke-linejoin="round"/>
<path d="M10.9599 9.86996C10.4299 9.50996 9.72995 9.50998 9.19995 9.88998" stroke="#3F41D1" stroke-width="1.5" stroke-miterlimit="10" stroke-linecap="round" stroke-linejoin="round"/>
<path d="M14.9599 9.86996C14.4299 9.50996 13.73 9.50998 13.2 9.88998" stroke="#3F41D1" stroke-width="1.5" stroke-miterlimit="10" stroke-linecap="round" stroke-linejoin="round"/>
<path d="M12.16 15.42H9.84005C9.54005 15.42 9.30005 15.18 9.30005 14.88C9.30005 13.39 10.51 12.1801 12 12.1801C12.64 12.1801 13.23 12.4 13.69 12.77" stroke="#3F41D1" stroke-width="1.5" stroke-miterlimit="10" stroke-linecap="round" stroke-linejoin="round"/>
<path d="M26 18.2V21.8C26 24.8 24.8 26 21.8 26H18.2C15.2 26 14 24.8 14 21.8V18C14.05 15.21 15.21 14.05 18 14H21.8C24.8 14 26 15.2 26 18.2Z" stroke="#3F41D1" stroke-width="1.5" stroke-linecap="round" stroke-linejoin="round"/>
<path d="M18.9599 17.62C18.4299 17.98 17.73 17.98 17.2 17.6" stroke="#3F41D1" stroke-width="1.5" stroke-miterlimit="10" stroke-linecap="round" stroke-linejoin="round"/>
<path d="M22.9599 17.62C22.4299 17.98 21.73 17.98 21.2 17.6" stroke="#3F41D1" stroke-width="1.5" stroke-miterlimit="10" stroke-linecap="round" stroke-linejoin="round"/>
<path d="M17.84 20.1801H22.16C22.46 20.1801 22.7001 20.42 22.7001 20.72C22.7001 22.21 21.49 23.42 20 23.42C18.51 23.42 17.3 22.21 17.3 20.72C17.3 20.42 17.54 20.1801 17.84 20.1801Z" stroke="#3F41D1" stroke-width="1.5" stroke-miterlimit="10" stroke-linecap="round" stroke-linejoin="round"/>
<rect x="16" y="2" width="16" height="16" rx="8" fill="#E697AB"/>
<path d="M21.3724 7.961C21.4164 7.279 21.6767 6.74733 22.1534 6.366C22.6374 5.98467 23.2534 5.794 24.0014 5.794C24.5147 5.794 24.9584 5.88567 25.3324 6.069C25.7064 6.25233 25.9887 6.50167 26.1794 6.817C26.37 7.13233 26.4654 7.488 26.4654 7.884C26.4654 8.33867 26.3444 8.72733 26.1024 9.05C25.8604 9.37267 25.5707 9.589 25.2334 9.699V9.743C25.666 9.875 26.0034 10.117 26.2454 10.469C26.4874 10.8137 26.6084 11.2573 26.6084 11.8C26.6084 12.2327 26.5094 12.6177 26.3114 12.955C26.1134 13.2923 25.82 13.56 25.4314 13.758C25.0427 13.9487 24.577 14.044 24.0344 14.044C23.2424 14.044 22.5897 13.8423 22.0764 13.439C21.5704 13.0283 21.299 12.4417 21.2624 11.679H22.4724C22.5017 12.0677 22.652 12.3867 22.9234 12.636C23.1947 12.878 23.5614 12.999 24.0234 12.999C24.4707 12.999 24.8154 12.878 25.0574 12.636C25.2994 12.3867 25.4204 12.0677 25.4204 11.679C25.4204 11.1657 25.2554 10.8027 24.9254 10.59C24.6027 10.37 24.104 10.26 23.4294 10.26H23.1434V9.226H23.4404C24.0344 9.21867 24.4854 9.11967 24.7934 8.929C25.1087 8.73833 25.2664 8.43767 25.2664 8.027C25.2664 7.675 25.1527 7.39633 24.9254 7.191C24.698 6.97833 24.3754 6.872 23.9574 6.872C23.5467 6.872 23.2277 6.97833 23.0004 7.191C22.773 7.39633 22.6374 7.653 22.5934 7.961H21.3724Z" fill="#310000"/>
</svg>
