<svg width="16" height="16" viewBox="0 0 16 16" fill="none" xmlns="http://www.w3.org/2000/svg">
<path d="M14.16 5.20527V5.20665V10.7933C14.16 11.9072 13.8299 12.7363 13.2798 13.2864C12.7297 13.8366 11.9006 14.1666 10.7867 14.1666H5.20671C4.09282 14.1666 3.26388 13.8366 2.71382 13.2858C2.16368 12.735 1.83337 11.9042 1.83337 10.7866V5.20665C1.83337 4.09275 2.16347 3.26366 2.71359 2.71353C3.26372 2.16341 4.09281 1.83331 5.20671 1.83331H10.7934C11.9074 1.83331 12.7363 2.16345 13.2854 2.71331C13.8345 3.26307 14.1631 4.09169 14.16 5.20527ZM5.50004 11H10.5C11.0495 11 11.5 10.5495 11.5 9.99998C11.5 9.45051 11.0495 8.99998 10.5 8.99998H5.50004C4.95057 8.99998 4.50004 9.4505 4.50004 9.99998C4.50004 10.5495 4.95057 11 5.50004 11ZM5.50004 6.99998H10.5C11.0495 6.99998 11.5 6.54946 11.5 5.99998C11.5 5.4505 11.0495 4.99998 10.5 4.99998H5.50004C4.95057 4.99998 4.50004 5.4505 4.50004 5.99998C4.50004 6.54946 4.95056 6.99998 5.50004 6.99998Z" fill="#4B4DD4" stroke="#4B4DD4"/>
</svg>
