<svg width="24" height="24" viewBox="0 0 24 24" fill="none" xmlns="http://www.w3.org/2000/svg">
<path d="M22.25 12C22.25 16.6456 19.1232 20.7204 14.636 21.9103C14.5908 21.9174 14.5631 21.92 14.55 21.92C14.4374 21.92 14.3347 21.8442 14.3042 21.7353C14.2701 21.5914 14.354 21.4575 14.4826 21.4221L14.35 20.94L14.4774 21.4235C18.7575 20.2955 21.74 16.4165 21.74 11.99C21.74 6.61386 17.3661 2.24 11.99 2.24C7.45081 2.24 4.48504 4.8932 3.11264 6.47197L2.39285 7.3H3.49H6.43C6.56386 7.3 6.68 7.41614 6.68 7.55C6.68 7.70583 6.56239 7.81 6.44 7.81H2.01C1.99092 7.81 1.97022 7.80767 1.94707 7.80185C1.90518 7.78689 1.87411 7.76991 1.85062 7.75313L1.84406 7.74845L1.83735 7.74398C1.8211 7.73314 1.80521 7.71724 1.79133 7.69448C1.76415 7.63875 1.75392 7.60738 1.75 7.58829V7.58823V7.58808V7.58793V7.58779V7.58764V7.58749V7.58734V7.5872V7.58705V7.5869V7.58675V7.58661V7.58646V7.58631V7.58616V7.58602V7.58587V7.58572V7.58558V7.58543V7.58528V7.58513V7.58499V7.58484V7.58469V7.58455V7.5844V7.58425V7.58411V7.58396V7.58381V7.58367V7.58352V7.58337V7.58322V7.58308V7.58293V7.58279V7.58264V7.58249V7.58235V7.5822V7.58205V7.58191V7.58176V7.58161V7.58147V7.58132V7.58117V7.58103V7.58088V7.58073V7.58059V7.58044V7.58029V7.58015V7.58V7.57985V7.57971V7.57956V7.57941V7.57927V7.57912V7.57898V7.57883V7.57868V7.57854V7.57839V7.57824V7.5781V7.57795V7.5778V7.57766V7.57751V7.57736V7.57722V7.57707V7.57692V7.57678V7.57663V7.57648V7.57634V7.57619V7.57604V7.5759V7.57575V7.5756V7.57546V7.57531V7.57516V7.57501V7.57487V7.57472V7.57457V7.57443V7.57428V7.57413V7.57398V7.57384V7.57369V7.57354V7.5734V7.57325V7.5731V7.57295V7.57281V7.57266V7.57251V7.57236V7.57222V7.57207V7.57192V7.57177V7.57162V7.57148V7.57133V7.57118V7.57103V7.57088V7.57073V7.57059V7.57044V7.57029V7.57014V7.56999V7.56984V7.5697V7.56955V7.5694V7.56925V7.5691V7.56895V7.5688V7.56865V7.5685V7.56836V7.56821V7.56806V7.56791V7.56776V7.56761V7.56746V7.56731V7.56716V7.56701V7.56686V7.56671V7.56656V7.56641V7.56626V7.56611V7.56596V7.56581V7.56566V7.56551V7.56535V7.5652V7.56505V7.5649V7.56475V7.5646V7.56445V7.5643V7.56414V7.56399V7.56384V7.56369V7.56354V7.56339V7.56323V7.56308V7.56293V7.56278V7.56262V7.56247V7.56232V7.56217V7.56201V7.56186V7.56171V7.56155V7.5614V7.56125V7.56109V7.56094V7.56078V7.56063V7.56048V7.56032V7.56017V7.56001V7.55986V7.5597V7.55955V7.55939V7.55924V7.55908V7.55893V7.55877V7.55862V7.55846V7.55831V7.55815V7.55799V7.55784V7.55768V7.55753V7.55737V7.55721V7.55705V7.5569V7.55674V7.55658V7.55643V7.55627V7.55611V7.55595V7.55579V7.55564V7.55548V7.55532V7.55516V7.555V7.55484V7.55468V7.55453V7.55437V7.55421V7.55405V7.55389V7.55373V7.55357V7.55341V7.55325V7.55309V7.55293V7.55276V7.5526V7.55244V7.55228V7.55212V7.55196V7.5518V7.55163V7.55147V7.55131V7.55115V7.55098V7.55082V7.55066V7.55049V7.55033V7.55017V7.55V7.54984V7.54968V7.54951V7.54935V7.54918V7.54902V7.54885V7.54869V7.54852V7.54836V7.54819V7.54803V7.54786V7.54769V7.54753V7.54736V7.54719V7.54703V7.54686V7.54669V7.54652V7.54636V7.54619V7.54602V7.54585V7.54568V7.54551V7.54534V7.54518V7.54501V7.54484V7.54467V7.5445V7.54433V7.54416V7.54398V7.54381V7.54364V7.54347V7.5433V7.54313V7.54296V7.54278V7.54261V7.54244V7.54227V7.54209V7.54192V7.54175V7.54157V7.5414V7.54123V7.54105V7.54088V7.5407V7.54053V7.54035V7.54018V7.54V3C1.75 2.86614 1.86614 2.75 2 2.75C2.13386 2.75 2.25 2.86614 2.25 3V5.39V6.66041L3.11588 5.73079C4.69275 4.03782 7.63971 1.75 12 1.75C17.6539 1.75 22.25 6.34614 22.25 12Z" stroke="#3F41D1"/>
<path d="M8.64 20.62L8.45617 21.085C9.36587 21.4446 10.3254 21.655 11.2921 21.7286L11.311 21.73H11.3238C11.4341 21.7402 11.54 21.8394 11.54 21.99V21.9901V21.9901V21.9902V21.9902V21.9903V21.9904V21.9904V21.9905V21.9905V21.9906V21.9907V21.9907V21.9908V21.9908V21.9909V21.991V21.991V21.9911V21.9912V21.9912V21.9913V21.9913V21.9914V21.9915V21.9915V21.9916V21.9917V21.9917V21.9918V21.9919V21.9919V21.992V21.9921V21.9921V21.9922V21.9923V21.9923V21.9924V21.9924V21.9925V21.9926V21.9927V21.9927V21.9928V21.9929V21.9929V21.993V21.9931V21.9931V21.9932V21.9933V21.9933V21.9934V21.9935V21.9935V21.9936V21.9937V21.9938V21.9938V21.9939V21.994V21.994V21.9941V21.9942V21.9943V21.9943V21.9944V21.9945V21.9945V21.9946V21.9947V21.9948V21.9948V21.9949V21.995V21.995V21.9951V21.9952V21.9953V21.9953V21.9954V21.9955V21.9956V21.9956V21.9957V21.9958V21.9959V21.9959V21.996V21.9961V21.9962V21.9962V21.9963V21.9964V21.9965V21.9965V21.9966V21.9967V21.9968V21.9969V21.9969V21.997V21.9971V21.9972V21.9972V21.9973V21.9974V21.9975V21.9976V21.9976V21.9977V21.9978V21.9979V21.9979V21.998V21.9981V21.9982V21.9983V21.9983V21.9984V21.9985V21.9986V21.9987V21.9987V21.9988V21.9989V21.999V21.9991V21.9991V21.9992V21.9993V21.9994V21.9995V21.9995V21.9996V21.9997V21.9998V21.9999V22V22V22.0001V22.0002V22.0003V22.0004V22.0004V22.0005V22.0006V22.0007V22.0008V22.0009V22.0009V22.001V22.0011V22.0012V22.0013V22.0014V22.0014V22.0015V22.0016V22.0017V22.0018V22.0019V22.0019V22.002V22.0021V22.0022V22.0023V22.0024V22.0025V22.0025V22.0026V22.0027V22.0028V22.0029V22.003V22.003V22.0031V22.0032V22.0033V22.0034V22.0035V22.0036V22.0036V22.0037V22.0038V22.0039V22.004V22.0041V22.0042V22.0042V22.0043V22.0044V22.0045V22.0046V22.0047V22.0048V22.0048V22.0049V22.005V22.0051V22.0052V22.0053V22.0054V22.0055V22.0055V22.0056C11.5249 22.1181 11.4348 22.2071 11.3312 22.2262L11.2526 22.2211C10.2358 22.1545 9.23596 21.9263 8.28167 21.5542L8.28168 21.5542L8.27733 21.5525C8.19192 21.5201 8.12 21.4236 8.12 21.31C8.12 21.2923 8.12435 21.2638 8.1366 21.2298C8.19038 21.0998 8.34374 21.0406 8.45642 21.0851L8.64 20.62ZM8.64 20.62C8.26 20.47 7.82 20.67 7.67 21.05L12.04 21.99C12.04 21.59 11.74 21.25 11.34 21.23H11.33C10.41 21.16 9.5 20.96 8.64 20.62ZM3.54243 17.7873L3.54243 17.7873L3.5411 17.7854C3.49894 17.7245 3.49 17.682 3.49 17.65C3.49 17.5638 3.52927 17.4914 3.59735 17.446L3.59741 17.4461L3.6059 17.4402C3.71077 17.3671 3.88258 17.4053 3.94397 17.4973L3.94393 17.4974L3.94814 17.5035C4.50376 18.3107 5.16614 19.027 5.93587 19.6291C5.9983 19.6822 6.03 19.7535 6.03 19.82C6.03 19.8928 6.00896 19.9502 5.97684 19.9911L5.97532 19.993C5.93732 20.0419 5.86794 20.08 5.78 20.08C5.71452 20.08 5.6655 20.0631 5.62004 20.0277C4.82043 19.3897 4.12468 18.6368 3.54243 17.7873ZM2.21017 15.0406L2.21026 15.0406L2.20749 15.0317C1.90264 14.0504 1.75 13.0305 1.75 12C1.75 11.8661 1.86614 11.75 2 11.75C2.13386 11.75 2.25 11.8661 2.25 12C2.25 12.978 2.39689 13.9452 2.68007 14.8704C2.6851 14.8894 2.69 14.921 2.69 14.96C2.69 15.0634 2.6302 15.1514 2.53023 15.1893C2.49353 15.1976 2.46814 15.2 2.44 15.2C2.32106 15.2 2.23503 15.1262 2.21017 15.0406Z" stroke="#3F41D1"/>
<path d="M15.5 12C15.5 13.933 13.933 15.5 12 15.5C10.067 15.5 8.5 13.933 8.5 12C8.5 10.067 10.067 8.5 12 8.5C13.933 8.5 15.5 10.067 15.5 12Z" stroke="#3F41D1"/>
</svg>
