<svg width="32" height="32" viewBox="0 0 32 32" fill="none" xmlns="http://www.w3.org/2000/svg">
<path d="M26.25 16C26.25 20.6456 23.1232 24.7204 18.636 25.9103C18.5908 25.9174 18.5631 25.92 18.55 25.92C18.4374 25.92 18.3347 25.8442 18.3042 25.7353C18.2701 25.5914 18.354 25.4575 18.4826 25.4221L18.35 24.94L18.4774 25.4235C22.7575 24.2955 25.74 20.4165 25.74 15.99C25.74 10.6139 21.3661 6.24 15.99 6.24C11.4508 6.24 8.48504 8.8932 7.11264 10.472L6.39285 11.3H7.49H10.43C10.5639 11.3 10.68 11.4161 10.68 11.55C10.68 11.7058 10.5624 11.81 10.44 11.81H6.01C5.99092 11.81 5.97022 11.8077 5.94707 11.8018C5.90518 11.7869 5.87411 11.7699 5.85062 11.7531L5.84406 11.7484L5.83735 11.744C5.8211 11.7331 5.80521 11.7172 5.79133 11.6945C5.76415 11.6388 5.75392 11.6074 5.75 11.5883V11.5882V11.5881V11.5879V11.5878V11.5876V11.5875V11.5873V11.5872V11.587V11.5869V11.5868V11.5866V11.5865V11.5863V11.5862V11.586V11.5859V11.5857V11.5856V11.5854V11.5853V11.5851V11.585V11.5848V11.5847V11.5845V11.5844V11.5843V11.5841V11.584V11.5838V11.5837V11.5835V11.5834V11.5832V11.5831V11.5829V11.5828V11.5826V11.5825V11.5823V11.5822V11.5821V11.5819V11.5818V11.5816V11.5815V11.5813V11.5812V11.581V11.5809V11.5807V11.5806V11.5804V11.5803V11.5801V11.58V11.5799V11.5797V11.5796V11.5794V11.5793V11.5791V11.579V11.5788V11.5787V11.5785V11.5784V11.5782V11.5781V11.5779V11.5778V11.5777V11.5775V11.5774V11.5772V11.5771V11.5769V11.5768V11.5766V11.5765V11.5763V11.5762V11.576V11.5759V11.5757V11.5756V11.5755V11.5753V11.5752V11.575V11.5749V11.5747V11.5746V11.5744V11.5743V11.5741V11.574V11.5738V11.5737V11.5735V11.5734V11.5732V11.5731V11.573V11.5728V11.5727V11.5725V11.5724V11.5722V11.5721V11.5719V11.5718V11.5716V11.5715V11.5713V11.5712V11.571V11.5709V11.5707V11.5706V11.5704V11.5703V11.5701V11.57V11.5698V11.5697V11.5695V11.5694V11.5692V11.5691V11.569V11.5688V11.5687V11.5685V11.5684V11.5682V11.5681V11.5679V11.5678V11.5676V11.5675V11.5673V11.5672V11.567V11.5669V11.5667V11.5666V11.5664V11.5663V11.5661V11.566V11.5658V11.5657V11.5655V11.5654V11.5652V11.5651V11.5649V11.5648V11.5646V11.5644V11.5643V11.5641V11.564V11.5638V11.5637V11.5635V11.5634V11.5632V11.5631V11.5629V11.5628V11.5626V11.5625V11.5623V11.5622V11.562V11.5619V11.5617V11.5616V11.5614V11.5612V11.5611V11.5609V11.5608V11.5606V11.5605V11.5603V11.5602V11.56V11.5599V11.5597V11.5595V11.5594V11.5592V11.5591V11.5589V11.5588V11.5586V11.5585V11.5583V11.5582V11.558V11.5578V11.5577V11.5575V11.5574V11.5572V11.5571V11.5569V11.5567V11.5566V11.5564V11.5563V11.5561V11.556V11.5558V11.5556V11.5555V11.5553V11.5552V11.555V11.5548V11.5547V11.5545V11.5544V11.5542V11.554V11.5539V11.5537V11.5536V11.5534V11.5532V11.5531V11.5529V11.5528V11.5526V11.5524V11.5523V11.5521V11.552V11.5518V11.5516V11.5515V11.5513V11.5511V11.551V11.5508V11.5507V11.5505V11.5503V11.5502V11.55V11.5498V11.5497V11.5495V11.5493V11.5492V11.549V11.5489V11.5487V11.5485V11.5484V11.5482V11.548V11.5479V11.5477V11.5475V11.5474V11.5472V11.547V11.5469V11.5467V11.5465V11.5464V11.5462V11.546V11.5459V11.5457V11.5455V11.5453V11.5452V11.545V11.5448V11.5447V11.5445V11.5443V11.5442V11.544V11.5438V11.5436V11.5435V11.5433V11.5431V11.543V11.5428V11.5426V11.5424V11.5423V11.5421V11.5419V11.5417V11.5416V11.5414V11.5412V11.5411V11.5409V11.5407V11.5405V11.5404V11.5402V11.54V7C5.75 6.86614 5.86614 6.75 6 6.75C6.13386 6.75 6.25 6.86614 6.25 7V9.39V10.6604L7.11588 9.73079C8.69275 8.03782 11.6397 5.75 16 5.75C21.6539 5.75 26.25 10.3461 26.25 16Z" stroke="#3F41D1"/>
<path d="M12.64 24.62L12.4562 25.085C13.3659 25.4446 14.3254 25.655 15.2921 25.7286L15.311 25.73H15.3238C15.4341 25.7402 15.54 25.8394 15.54 25.99V25.9901V25.9901V25.9902V25.9902V25.9903V25.9904V25.9904V25.9905V25.9905V25.9906V25.9907V25.9907V25.9908V25.9908V25.9909V25.991V25.991V25.9911V25.9912V25.9912V25.9913V25.9913V25.9914V25.9915V25.9915V25.9916V25.9917V25.9917V25.9918V25.9919V25.9919V25.992V25.9921V25.9921V25.9922V25.9923V25.9923V25.9924V25.9924V25.9925V25.9926V25.9927V25.9927V25.9928V25.9929V25.9929V25.993V25.9931V25.9931V25.9932V25.9933V25.9933V25.9934V25.9935V25.9935V25.9936V25.9937V25.9938V25.9938V25.9939V25.994V25.994V25.9941V25.9942V25.9943V25.9943V25.9944V25.9945V25.9945V25.9946V25.9947V25.9948V25.9948V25.9949V25.995V25.995V25.9951V25.9952V25.9953V25.9953V25.9954V25.9955V25.9956V25.9956V25.9957V25.9958V25.9959V25.9959V25.996V25.9961V25.9962V25.9962V25.9963V25.9964V25.9965V25.9965V25.9966V25.9967V25.9968V25.9969V25.9969V25.997V25.9971V25.9972V25.9972V25.9973V25.9974V25.9975V25.9976V25.9976V25.9977V25.9978V25.9979V25.9979V25.998V25.9981V25.9982V25.9983V25.9983V25.9984V25.9985V25.9986V25.9987V25.9987V25.9988V25.9989V25.999V25.9991V25.9991V25.9992V25.9993V25.9994V25.9995V25.9995V25.9996V25.9997V25.9998V25.9999V26V26V26.0001V26.0002V26.0003V26.0004V26.0004V26.0005V26.0006V26.0007V26.0008V26.0009V26.0009V26.001V26.0011V26.0012V26.0013V26.0014V26.0014V26.0015V26.0016V26.0017V26.0018V26.0019V26.0019V26.002V26.0021V26.0022V26.0023V26.0024V26.0025V26.0025V26.0026V26.0027V26.0028V26.0029V26.003V26.003V26.0031V26.0032V26.0033V26.0034V26.0035V26.0036V26.0036V26.0037V26.0038V26.0039V26.004V26.0041V26.0042V26.0042V26.0043V26.0044V26.0045V26.0046V26.0047V26.0048V26.0048V26.0049V26.005V26.0051V26.0052V26.0053V26.0054V26.0055V26.0055V26.0056C15.5249 26.1181 15.4348 26.2071 15.3312 26.2262L15.2526 26.2211C14.2358 26.1545 13.236 25.9263 12.2817 25.5542L12.2817 25.5542L12.2773 25.5525C12.1919 25.5201 12.12 25.4236 12.12 25.31C12.12 25.2923 12.1244 25.2638 12.1366 25.2298C12.1904 25.0998 12.3437 25.0406 12.4564 25.0851L12.64 24.62ZM12.64 24.62C12.26 24.47 11.82 24.67 11.67 25.05L16.04 25.99C16.04 25.59 15.74 25.25 15.34 25.23H15.33C14.41 25.16 13.5 24.96 12.64 24.62ZM7.54243 21.7873L7.54243 21.7873L7.5411 21.7854C7.49894 21.7245 7.49 21.682 7.49 21.65C7.49 21.5638 7.52927 21.4914 7.59735 21.446L7.59741 21.4461L7.6059 21.4402C7.71077 21.3671 7.88258 21.4053 7.94397 21.4973L7.94393 21.4974L7.94814 21.5035C8.50376 22.3107 9.16614 23.027 9.93587 23.6291C9.9983 23.6822 10.03 23.7535 10.03 23.82C10.03 23.8928 10.009 23.9502 9.97684 23.9911L9.97532 23.993C9.93732 24.0419 9.86794 24.08 9.78 24.08C9.71452 24.08 9.6655 24.0631 9.62004 24.0277C8.82043 23.3897 8.12468 22.6368 7.54243 21.7873ZM6.21017 19.0406L6.21026 19.0406L6.20749 19.0317C5.90264 18.0504 5.75 17.0305 5.75 16C5.75 15.8661 5.86614 15.75 6 15.75C6.13386 15.75 6.25 15.8661 6.25 16C6.25 16.978 6.39689 17.9452 6.68007 18.8704C6.6851 18.8894 6.69 18.921 6.69 18.96C6.69 19.0634 6.6302 19.1514 6.53023 19.1893C6.49353 19.1976 6.46814 19.2 6.44 19.2C6.32106 19.2 6.23503 19.1262 6.21017 19.0406Z" stroke="#3F41D1"/>
<path d="M19.5 16C19.5 17.933 17.933 19.5 16 19.5C14.067 19.5 12.5 17.933 12.5 16C12.5 14.067 14.067 12.5 16 12.5C17.933 12.5 19.5 14.067 19.5 16Z" stroke="#3F41D1"/>
<rect x="16" y="2" width="16" height="16" rx="8" fill="#E697AB"/>
<path d="M21.3724 7.961C21.4164 7.279 21.6767 6.74733 22.1534 6.366C22.6374 5.98467 23.2534 5.794 24.0014 5.794C24.5147 5.794 24.9584 5.88567 25.3324 6.069C25.7064 6.25233 25.9887 6.50167 26.1794 6.817C26.37 7.13233 26.4654 7.488 26.4654 7.884C26.4654 8.33867 26.3444 8.72733 26.1024 9.05C25.8604 9.37267 25.5707 9.589 25.2334 9.699V9.743C25.666 9.875 26.0034 10.117 26.2454 10.469C26.4874 10.8137 26.6084 11.2573 26.6084 11.8C26.6084 12.2327 26.5094 12.6177 26.3114 12.955C26.1134 13.2923 25.82 13.56 25.4314 13.758C25.0427 13.9487 24.577 14.044 24.0344 14.044C23.2424 14.044 22.5897 13.8423 22.0764 13.439C21.5704 13.0283 21.299 12.4417 21.2624 11.679H22.4724C22.5017 12.0677 22.652 12.3867 22.9234 12.636C23.1947 12.878 23.5614 12.999 24.0234 12.999C24.4707 12.999 24.8154 12.878 25.0574 12.636C25.2994 12.3867 25.4204 12.0677 25.4204 11.679C25.4204 11.1657 25.2554 10.8027 24.9254 10.59C24.6027 10.37 24.104 10.26 23.4294 10.26H23.1434V9.226H23.4404C24.0344 9.21867 24.4854 9.11967 24.7934 8.929C25.1087 8.73833 25.2664 8.43767 25.2664 8.027C25.2664 7.675 25.1527 7.39633 24.9254 7.191C24.698 6.97833 24.3754 6.872 23.9574 6.872C23.5467 6.872 23.2277 6.97833 23.0004 7.191C22.773 7.39633 22.6374 7.653 22.5934 7.961H21.3724Z" fill="#310000"/>
</svg>
