<svg width="16" height="16" viewBox="0 0 16 16" fill="none" xmlns="http://www.w3.org/2000/svg">
<path d="M14.6667 6.00002V6.66669C13.7506 6.66669 13 7.41721 13 8.33335C13 9.2495 13.7506 10 14.6667 10C14.6667 11.4528 14.4377 12.2269 13.999 12.6656C13.5602 13.1044 12.7862 13.3334 11.3334 13.3334H7.66671V12.3334C7.66671 11.7839 7.21618 11.3334 6.66671 11.3334C6.11723 11.3334 5.66671 11.7839 5.66671 12.3334V13.3334H4.66671C3.21393 13.3334 2.43983 13.1044 2.00109 12.6656C1.56235 12.2269 1.33337 11.4528 1.33337 10L1.33337 9.66669C2.24952 9.66669 3.00004 8.91616 3.00004 8.00002C3.00004 7.08388 2.24952 6.33335 1.33337 6.33335V6.00002C1.33337 4.54724 1.56235 3.77315 2.00109 3.33441C2.43983 2.89567 3.21393 2.66669 4.66671 2.66669H5.66671V3.66669C5.66671 4.21616 6.11723 4.66669 6.66671 4.66669C7.21618 4.66669 7.66671 4.21616 7.66671 3.66669V2.66669H11.3334C12.7862 2.66669 13.5602 2.89567 13.999 3.33441C14.4377 3.77315 14.6667 4.54724 14.6667 6.00002ZM6.66671 10.4467C7.21618 10.4467 7.66671 9.99616 7.66671 9.44669V6.55335C7.66671 6.00388 7.21618 5.55335 6.66671 5.55335C6.11723 5.55335 5.66671 6.00388 5.66671 6.55335V9.44669C5.66671 9.99616 6.11723 10.4467 6.66671 10.4467Z" fill="#4B4DD4" stroke="#4B4DD4"/>
</svg>
