<svg width="16" height="16" viewBox="0 0 16 16" fill="none" xmlns="http://www.w3.org/2000/svg">
<path d="M2.0435 10.2991L2.04352 10.2991L2.0458 10.2954C2.16731 10.0979 2.37869 9.97998 2.61331 9.97998H5.99997C6.1733 9.97998 6.34294 10.0487 6.48233 10.1828C6.60532 10.3071 6.6732 10.4714 6.67331 10.6529C6.67331 10.653 6.67331 10.6532 6.67331 10.6533L6.66664 13.6522V13.6533C6.66664 13.87 6.55965 14.0774 6.37956 14.2039C6.26196 14.2862 6.12851 14.3266 5.99997 14.3266C5.94002 14.3266 5.86233 14.3133 5.78174 14.2868C4.14833 13.7101 2.77197 12.4823 2.00996 10.922C1.91073 10.7151 1.92292 10.4912 2.0435 10.2991Z" fill="#4B4DD4" stroke="#4B4DD4"/>
<path d="M14.9866 6.40001C14.24 3.12001 11.3666 0.833344 7.99997 0.833344C4.6333 0.833344 1.75997 3.12001 1.0133 6.40001C0.933305 6.74668 1.0133 7.10001 1.23997 7.38001C1.46664 7.66001 1.79997 7.82001 2.15997 7.82001H13.8466C14.2066 7.82001 14.54 7.66001 14.7666 7.38001C14.9866 7.10001 15.0666 6.74001 14.9866 6.40001Z" fill="#4B4DD4"/>
<path d="M13.3733 9.51332L9.99998 9.50665C9.68665 9.50665 9.39331 9.62665 9.17331 9.84665C8.95331 10.0667 8.83331 10.36 8.83331 10.6733L8.83998 13.66C8.83998 14.04 9.02665 14.4 9.33998 14.62C9.53998 14.76 9.77331 14.8333 10.0066 14.8333C10.1333 14.8333 10.26 14.8133 10.38 14.7667C12.1266 14.1533 13.6066 12.84 14.4266 11.18C14.6 10.8267 14.58 10.4133 14.3733 10.08C14.1533 9.71999 13.78 9.51332 13.3733 9.51332Z" fill="#4B4DD4"/>
</svg>
