<svg width="16" height="16" viewBox="0 0 16 16" fill="none" xmlns="http://www.w3.org/2000/svg">
<path d="M14.6666 6.00002V6.66669C13.7505 6.66669 13 7.41721 13 8.33335C13 9.2495 13.7505 10 14.6666 10C14.6666 11.4528 14.4377 12.2269 13.9989 12.6656C13.5602 13.1044 12.7861 13.3334 11.3333 13.3334H7.66665V12.3334C7.66665 11.7839 7.21612 11.3334 6.66665 11.3334C6.11717 11.3334 5.66665 11.7839 5.66665 12.3334V13.3334H4.66665C3.21387 13.3334 2.43977 13.1044 2.00103 12.6656C1.56229 12.2269 1.33331 11.4528 1.33331 10L1.33331 9.66669C2.24946 9.66669 2.99998 8.91616 2.99998 8.00002C2.99998 7.08388 2.24946 6.33335 1.33331 6.33335V6.00002C1.33331 4.54724 1.56229 3.77315 2.00103 3.33441C2.43977 2.89567 3.21387 2.66669 4.66665 2.66669H5.66665V3.66669C5.66665 4.21616 6.11717 4.66669 6.66665 4.66669C7.21612 4.66669 7.66665 4.21616 7.66665 3.66669V2.66669H11.3333C12.7861 2.66669 13.5602 2.89567 13.9989 3.33441C14.4377 3.77315 14.6666 4.54724 14.6666 6.00002ZM6.66665 10.4467C7.21612 10.4467 7.66665 9.99616 7.66665 9.44669V6.55335C7.66665 6.00388 7.21612 5.55335 6.66665 5.55335C6.11717 5.55335 5.66665 6.00388 5.66665 6.55335V9.44669C5.66665 9.99616 6.11717 10.4467 6.66665 10.4467Z" fill="#4B4DD4" stroke="#4B4DD4"/>
</svg>
